<?xml version="1.0" encoding="UTF-8"?>
<!DOCTYPE svg PUBLIC "-//W3C//DTD SVG 1.1//EN" "http://www.w3.org/Graphics/SVG/1.1/DTD/svg11.dtd">
<!-- Creator: CorelDRAW X6 -->
<svg xmlns="http://www.w3.org/2000/svg" xml:space="preserve" width="520px" height="520px" version="1.1" style="shape-rendering:geometricPrecision; text-rendering:geometricPrecision; image-rendering:optimizeQuality; fill-rule:evenodd; clip-rule:evenodd"
viewBox="0 0 924 924"
 xmlns:xlink="http://www.w3.org/1999/xlink">
 <defs>
  <style type="text/css">
   <![CDATA[
    .fil17 {fill:#090909}
    .fil0 {fill:#0B0B0B}
    .fil3 {fill:#0BF4D5}
    .fil8 {fill:#0CFADA}
    .fil7 {fill:#27E4CB}
    .fil4 {fill:#37E3CC}
    .fil9 {fill:#48CFBD}
    .fil13 {fill:#48DAC5}
    .fil11 {fill:#67C7BA}
    .fil6 {fill:#87B3AD}
    .fil14 {fill:#A0A2A2}
    .fil5 {fill:#A2A5A5}
    .fil2 {fill:#A3A3A3}
    .fil16 {fill:#A4A7A7}
    .fil10 {fill:#A5A5A5}
    .fil15 {fill:#A6A6A6}
    .fil18 {fill:#F2F2F2}
    .fil1 {fill:#F6F6F6}
    .fil12 {fill:#F8F8F8}
   ]]>
  </style>
 </defs>
 <g id="Layer_x0020_1">
  <metadata id="CorelCorpID_0Corel-Layer"/>
  <g id="_594559584">
   <path class="fil0" d="M18 897c-8,-23 4,-55 26,-62 17,29 -3,49 -26,62zm603 -15c-8,-29 21,-41 45,-43 0,21 -23,45 -45,43zm-212 -28c-5,-21 11,-26 28,-23 -2,14 -13,25 -28,23zm364 -42c-3,-25 14,-30 34,-31 10,0 22,-29 46,-10 10,8 7,15 15,18 9,4 14,0 22,12 6,8 7,19 3,28 -10,22 -6,1 -3,25 3,29 -21,27 -36,30 -9,2 -22,29 -46,9 -11,-9 -3,-14 -16,-18 -9,-3 -15,-4 -21,-13 -5,-7 -6,-18 -2,-26 10,-21 6,-2 3,-23zm-283 -27c-9,11 -10,26 -31,25 -22,-1 -21,-16 -30,-26 -14,-1 -27,3 -36,-13 -11,-19 3,-27 6,-40 -4,-12 -17,-21 -7,-39 9,-17 25,-11 38,-14 0,0 20,-43 48,-18 12,11 4,19 20,19 35,0 38,27 27,43 -10,17 -1,8 4,25 3,11 1,22 -8,29 -13,10 -19,5 -31,7zm-148 -67c-12,1 -43,3 -54,0 -15,-4 -25,-26 -15,-34 24,-19 64,7 69,33zm-108 -92c12,7 16,23 8,34 -2,-1 -12,-12 -13,-14 -4,-8 -2,-15 5,-20zm329 14c-3,-18 2,-37 15,-50 21,-21 32,-11 49,-17 10,-4 35,-63 88,-27 23,16 8,27 37,28 42,2 62,48 48,77 -16,35 -1,14 3,46 2,18 -3,36 -17,49 -22,21 -36,10 -49,17 -7,4 -10,23 -34,32 -18,7 -38,5 -54,-6 -23,-17 -8,-26 -38,-28 -17,-1 -32,-10 -41,-24 -10,-15 -13,-37 -5,-53 16,-34 2,-10 -3,-43zm-87 -12c13,-5 26,8 23,18 -13,3 -25,-3 -23,-18zm-326 29c-4,-23 16,-33 36,-34 -1,17 -18,34 -36,34zm193 -88c22,-1 42,21 36,43 -14,2 -20,0 -26,-13 -4,-8 -9,-22 -10,-30zm-98 -50c18,-17 37,-18 46,8 10,2 18,4 23,15 6,15 0,19 -7,29 9,26 -5,38 -31,35 -14,19 -39,15 -45,-9 -24,-2 -33,-27 -16,-43 -2,-11 -6,-17 2,-28 7,-10 17,-9 28,-8zm571 38c13,-30 48,-37 77,-38 2,27 -53,58 -77,38zm-208 -46c-14,1 -30,2 -43,-6 -9,-5 -21,-23 -12,-32 12,-12 53,14 55,37zm-364 -66c11,-11 28,-11 40,0 -6,7 -6,12 -19,11 -8,-1 -15,-6 -21,-11zm110 74c-16,-15 -27,-11 -25,-45 2,-35 25,-33 29,-40 6,-11 -6,-26 25,-43 32,-17 44,4 51,4 10,0 20,-19 51,1 29,19 16,38 21,46 6,10 26,9 24,44 -2,34 -17,28 -29,41 -6,21 -1,31 -27,44 -33,16 -44,-7 -50,-5 -21,6 -25,16 -51,-2 -25,-17 -16,-25 -19,-44zm-304 -27c-16,-7 -38,-4 -41,-34 -1,-15 4,-17 9,-27 5,-8 -4,-12 -4,-26 0,-21 17,-36 37,-35 25,1 14,-23 47,-21 33,3 20,26 44,30 21,4 33,22 29,43 -3,13 -12,14 -10,23 4,12 8,14 3,30 -8,27 -27,23 -46,24 -12,11 -13,24 -37,21 -26,-3 -23,-16 -32,-28zm563 -69c-14,2 -26,-7 -29,-20 16,-2 31,0 29,20zm-283 139c-16,28 32,58 33,59 -1,1 -71,34 -83,41 -19,12 -57,51 -75,52 -69,7 -58,42 -78,51 -19,8 -24,3 -40,24 -13,17 -14,35 -21,45l-25 -19c5,-7 27,-12 18,-37 -17,-6 -22,19 -26,23l-9 -19c6,-7 21,-8 33,-24 12,-17 22,-3 44,-13 46,-20 17,-67 19,-75 4,-2 43,-4 57,-9 10,-3 42,-22 43,-23l23 35c26,-18 -6,-51 -6,-54 8,-2 12,7 27,3 12,-3 9,-8 26,-10 34,-5 20,-26 26,-42 9,-28 9,-31 -16,-45 -24,-14 2,-24 -48,-17 -16,-13 -30,-29 -37,-49 -6,-18 -1,-55 16,-65 4,1 11,12 22,17 16,7 23,-3 32,2l-1 23c-8,0 -44,-11 -49,12 3,5 22,12 28,14 22,7 18,-4 28,-9l33 21c5,11 1,28 15,40 23,21 4,16 18,38 28,44 67,20 75,23 28,12 62,6 75,-24 15,-35 4,-10 22,-33 12,-15 9,-41 14,-43 10,4 -9,32 27,45 5,2 56,12 60,12 5,-39 -27,-51 -53,-64 19,-17 32,-13 49,-44 5,-9 10,-31 12,-34 0,-1 26,-18 29,-19 19,19 1,42 14,67 11,21 1,50 -7,72 -10,29 -21,22 -39,46 -11,14 -36,5 -59,28 -33,33 -3,20 -56,15 -118,-11 -118,40 -131,-7 -5,-17 -36,-40 -53,-30zm366 -112c-10,-9 -15,-5 -20,-23 -3,-12 -1,-25 6,-35 12,-19 16,2 18,-23 2,-22 37,-37 53,-28 24,13 5,0 28,-1 12,0 24,6 32,14 13,13 9,17 9,32 4,4 23,7 21,37 -1,29 -23,31 -25,34 -2,18 -1,26 -20,36 -27,14 -41,-4 -43,-4 -18,8 -22,12 -42,0 -18,-11 -16,-21 -16,-38zm-192 -106c20,54 73,24 80,26 4,1 38,18 41,19l-4 19 -43 -17c-9,28 23,31 34,37 -5,25 -54,40 -76,38l-23 -28c1,-21 -7,-37 -25,-48 -35,-21 -47,3 -56,-5l17 -17c9,3 59,29 65,-6l-42 -10c0,0 28,-26 34,-9zm-267 -26c1,-14 4,-22 18,-29 16,-7 21,-4 32,5 24,-14 53,6 46,31 12,9 17,13 16,30 -1,12 -8,24 -21,25 4,27 -31,44 -50,24 -11,9 -21,8 -33,0 -13,-9 -14,-15 -13,-31 -12,-7 -17,-14 -16,-30 1,-15 9,-20 20,-25zm579 19c15,-9 31,-3 41,10 34,50 -14,132 -40,178 -38,66 -30,43 -64,39 -15,-2 -18,-19 -34,-29 -22,-14 -34,-5 -46,-9l17 -74c7,12 -4,23 21,40 25,17 37,2 46,4 20,5 23,13 47,-1 24,-15 14,-26 24,-36 48,-49 4,-59 0,-83 -4,-23 -24,-30 -11,-38zm-681 -13c16,-20 46,-20 56,5 -17,26 -38,9 -56,-5zm299 39c-27,0 -50,-45 -45,-70 27,13 60,33 45,70zm121 -200c17,-6 32,0 44,11 15,14 16,-2 39,-4 57,-4 36,60 42,67 18,19 53,44 11,74 -26,18 -22,-6 -28,31 -2,14 -12,28 -26,33 -17,5 -32,-1 -45,-12 -14,-13 -18,3 -41,4 -56,2 -33,-61 -40,-67 -22,-19 -50,-46 -12,-73 24,-17 24,3 28,-30 2,-17 11,-27 26,-33zm199 145c-8,-35 31,-83 66,-93 48,-14 21,4 31,35 8,23 36,29 27,51l-27 -10c-9,25 16,24 29,32l-5 42c-5,-3 -12,-26 -33,-33 -26,-9 -22,11 -51,5 -17,-3 -20,4 -28,4 -7,-1 -16,-12 -3,-17 11,-4 42,-12 30,-35l-36 21zm-369 -142c3,-9 5,-16 17,-17 11,-1 14,7 19,14 21,-3 34,9 21,28 5,10 20,33 -16,34 -8,20 -25,24 -36,4 -8,0 -20,2 -25,-8 -5,-10 3,-17 2,-22 0,-1 -22,-33 17,-33zm411 11c14,2 36,9 27,29 -14,6 -26,-16 -27,-29zm-558 -25c8,-10 13,-19 28,-17 15,1 18,10 25,19 13,1 21,3 28,15 9,18 -4,26 -3,32 2,10 10,17 0,31 -8,11 -17,12 -29,12 -16,22 -38,25 -52,-1 -51,-6 -26,-43 -26,-46 0,-7 -11,-13 -1,-31 7,-12 16,-14 29,-14zm82 -38c7,-6 26,-11 37,-10 14,1 21,10 23,23 -17,14 -48,5 -60,-12zm-80 -19c4,-4 21,-6 30,-11 11,-6 15,-13 22,-17 3,-2 39,13 63,8 39,-8 46,-32 51,-17 0,1 -18,49 -20,57 -11,-13 -7,-24 -34,-22 -4,0 -48,8 -51,10 -2,13 21,29 32,33 28,10 32,0 53,-5 11,44 -27,20 -29,49 -1,9 2,9 4,16 3,8 -1,6 -2,16 -1,18 12,16 17,23 -6,23 -17,41 -38,53 -17,11 -15,1 -30,-3 -17,-4 -11,6 -32,-2 -35,-13 -40,25 -53,35 -31,25 -3,45 2,59 -1,19 -30,31 -22,75 6,34 36,53 38,60 -9,5 -19,-2 -30,13 -7,11 0,30 -15,28 -6,-9 4,-19 -10,-30 -4,-3 -22,-12 -26,-11 -12,24 18,41 18,44 -26,9 -61,-11 -74,-34 20,-30 47,-5 65,-41 10,-22 -2,-34 1,-42 6,-17 15,-19 6,-42 -7,-18 18,-53 26,-72 5,-11 24,-77 27,-79 14,6 21,37 56,6 12,-11 48,-4 36,-48 -4,-14 19,-42 -21,-54 -17,-5 -12,-13 -26,-18 -21,-8 -25,5 -34,5l-2 -42zm632 -94c7,8 21,26 28,35 9,13 7,35 -8,40 -13,4 -28,-18 -31,-29 -4,-18 1,-34 10,-47zm-872 61l0 13 83 -66c11,12 10,26 32,44 19,15 34,16 56,12 37,34 38,18 57,30l4 2 -14 35c-12,-5 1,-22 -36,-25 -14,28 23,25 26,32l-48 20c-11,-11 -7,-25 -33,-37 -8,-4 -20,-3 -25,-9 -5,-6 -5,-12 -14,-20 -36,-34 -63,-12 -90,11l0 12c12,1 15,-32 53,-29 33,2 33,21 45,39 21,6 37,1 50,28 15,32 -5,39 -11,58 5,22 19,33 -1,59 -20,26 -35,14 -55,18 -4,2 -27,55 -81,13l0 13c39,23 57,13 86,-15 31,-5 59,-3 68,-46 4,-21 -8,-37 -3,-45 14,-25 7,-19 11,-44 38,-19 37,-6 69,-45l0 26c-28,8 -34,17 -28,46 6,28 -24,13 19,54l-25 76c-17,-12 -17,-24 -49,-21 -21,2 -32,13 -44,26 20,16 58,34 83,17l-20 36c-4,-1 -28,-12 -29,-12 -6,-4 -8,-15 -18,-21 -21,-13 -41,-8 -57,8 -12,13 -36,-3 -52,28 -12,23 10,53 -14,53l0 8c12,4 -11,34 41,51 20,6 6,33 60,28 15,10 13,23 41,33 32,11 44,-1 64,2 1,10 -7,18 4,31 8,10 17,7 22,17 -2,15 -43,47 -58,46 5,-11 28,-23 19,-47 -6,0 -37,15 -42,22 -9,12 -5,15 -6,26 -1,10 -19,9 -18,1 3,-18 15,-30 -3,-52 -17,-20 -28,-14 -47,-21 -21,-30 -35,-54 -78,-27l0 13c15,-8 22,-21 44,-11 23,11 19,27 28,36 19,1 41,1 50,23 11,27 -8,35 -15,52 8,18 20,33 6,54 -15,22 -35,13 -53,14 -8,3 -15,45 -59,27l0 11c28,8 3,6 39,49 -28,23 -50,61 -21,92 3,-2 26,-27 29,-31 12,-17 14,-27 9,-47 18,4 14,29 33,49l-6 35 8 0 10 -37c-2,-4 -36,-23 -16,-73 14,-35 27,-36 58,-40 4,-6 1,-40 50,-50 14,-3 30,-3 44,4 19,9 17,19 26,25 16,-1 16,-10 40,-1 12,5 21,13 29,22 26,30 16,44 7,72 3,5 38,19 15,78l10 0c13,-43 9,-47 -12,-80 17,-57 -25,-115 -84,-102l-35 -27 30 -27c7,64 57,48 110,47 -2,-42 -46,-66 -86,-64 53,-35 147,-76 212,-66 -16,12 -24,8 -38,32 -9,15 -5,9 -19,17 -11,6 -9,12 -16,19 -29,6 -56,13 -38,52 11,25 -31,26 18,66 -5,28 -20,33 -3,69 4,8 15,17 12,25 -5,15 -8,21 -3,38l9 0c-9,-40 14,-61 54,-56 14,-12 15,-28 45,-26 26,2 28,18 38,35 30,3 48,13 47,47l9 0 -3 -24 46 -12c12,8 25,25 43,8l-23 -15 84 -42 15 34 -28 33c-14,1 -35,3 -43,18l71 0 -18 -15c6,-15 20,-31 36,-29 9,7 23,41 53,18 21,-16 8,-4 30,-11 10,-4 17,-11 20,-22 5,-20 -6,-13 3,-34 5,-11 4,-23 -3,-34 -7,-11 -17,-10 -25,-16 -1,-1 -13,-15 -19,-21l19 -24 21 4 33 34 0 -11c-14,-6 -17,-22 -23,-34 -20,-3 -38,2 -50,-22 -11,-23 5,-36 14,-52 -7,-18 -19,-33 -7,-53 14,-24 36,-14 54,-15l11 -17 0 -14 -17 18c-21,4 -32,-5 -52,15 -14,14 -15,35 -7,52 10,22 -9,22 -11,48 -1,33 20,33 25,44 -2,7 -15,22 -22,24 -25,7 -19,9 -31,14 -14,5 -20,-3 -33,13 -14,17 -4,23 -6,36l-32 21 1 -34c-20,-1 -23,32 -25,45l-66 26c17,-11 34,-42 26,-64 -14,9 -32,12 -44,22 -26,20 -12,31 -16,49 -19,5 -17,-10 -37,-16 -29,-8 -10,-10 -31,-26 -28,-21 -55,-12 -75,13l-1 -4 -49 21 -9 -13c13,-9 37,-8 35,-42l-43 10 1 4c-1,-13 3,-40 18,-41 4,1 46,59 72,1 15,-2 30,-2 39,-16 14,-22 -1,-31 -2,-43 -2,-20 33,-52 -36,-61l-32 -26 9 -16c11,16 19,32 45,20 -7,-21 -18,-24 -34,-30 17,-13 54,-19 71,-6 4,11 -3,22 6,40 10,21 3,12 -3,32 -10,37 14,78 57,82 20,2 13,8 26,21 28,26 78,22 98,-12 9,-14 18,-7 35,-13 23,-8 39,-31 42,-55 2,-22 -3,-23 -9,-40 -2,-6 8,-23 9,-35 4,-41 -29,-43 -6,-69 49,12 107,-11 106,-66l-80 21c21,-40 33,-76 90,-76l0 -7c-42,1 -40,16 -65,29 1,-11 18,-62 22,-83 7,-39 3,-64 6,-99 23,5 14,-1 38,29l0 -14 -12 -21c-21,-6 -37,-1 -50,-28 -14,-28 1,-39 12,-58 -8,-21 -17,-33 -1,-58 11,-16 32,-22 51,-19l0 -10c-30,-4 -56,9 -66,38 -8,23 19,75 -27,59 -4,-13 7,-17 -14,-27 -4,-2 -24,-12 -28,-12 -13,22 17,38 22,45 0,0 -27,17 -33,24 -10,10 -18,29 -23,33l-26 -18c-13,18 16,27 20,33l-7 50c-11,7 -26,1 -40,20 -8,11 -5,32 -23,33 -14,-16 -9,-36 -3,-54 20,-10 40,-18 43,-44 4,-34 -15,-37 -30,-55 -1,-27 5,-55 -31,-67 -32,-11 -46,19 -74,-10 5,-12 48,-50 60,-49 6,20 5,42 34,49 28,7 9,-3 27,16 7,7 18,12 29,13 33,2 34,-24 56,-27 32,-5 29,-21 42,-39l90 -38 0 -12 -10 4c12,-31 -4,-46 -21,-69l-43 0c-10,36 1,66 31,85 -8,6 -37,15 -49,17 -5,-15 -10,-16 -4,-29 5,-10 5,-23 1,-33 -9,-27 -26,-26 -48,-32l-4 -8 -9 0 11 15c18,3 32,1 42,22 13,26 -5,38 -4,46 1,11 18,22 2,47 -13,21 -25,15 -42,20 -12,13 -15,27 -40,26 -25,-1 -25,-13 -37,-26 -17,-4 -29,1 -41,-18 -15,-24 1,-44 2,-48 1,-7 -17,-24 -3,-48 13,-22 26,-15 42,-20l10 -15 -9 0c-9,18 -49,5 -55,49 -7,48 34,22 -27,60 -20,13 -35,40 -59,42 -37,3 -37,31 -46,56 -13,11 -28,9 -39,32 -9,19 -4,37 9,53 11,15 35,21 1,38 -10,5 -34,21 -40,28 2,-53 -22,-64 -67,-90 -8,25 -7,44 7,67 20,32 26,22 45,39 -19,16 -15,1 -40,9 -44,13 -31,43 -47,54 -15,9 -13,16 -20,30 -27,1 -36,-22 -32,-46 8,-6 23,-1 34,-17 5,-7 4,-12 7,-17 3,-5 8,-5 13,-12 7,-10 9,-29 1,-39 -13,-17 -8,-13 -16,-33 6,-7 21,-13 32,-26 9,-12 16,-36 19,-40 11,1 22,29 41,3 10,-13 34,-10 27,-33 -5,-18 4,-36 -12,-43 -13,-5 -10,3 -23,-9 -11,-10 -12,-2 -23,-7l-2 -46 25 22c15,-17 -17,-31 -19,-33l12 -14c8,3 11,15 29,20 27,7 10,7 27,23 19,19 54,19 72,-1 16,-19 44,0 63,-37 8,-16 6,-26 1,-42 -3,-9 8,-21 10,-35l-9 0 -14 28c16,43 1,72 -48,66 -13,10 -13,29 -46,25 -25,-3 -27,-17 -37,-34 -19,-5 -39,-3 -46,-31 -9,-37 17,-30 8,-56l-9 0c6,19 -4,14 -8,36 -3,15 -11,19 -25,27 -28,16 -55,14 -81,-3 4,-26 16,-11 36,-26 11,-8 22,-21 27,-34l-10 0c-2,10 -13,21 -21,27 -17,12 -18,7 -35,8 -5,21 1,18 -17,35 -9,9 -21,14 -34,16 -15,3 -31,2 -44,-5 -17,-8 -15,-12 -23,-26 -12,3 -13,9 -31,5 -10,-2 -18,-6 -26,-13 -17,-13 -24,-27 -30,-47l-12 0c-8,13 -61,57 -78,64z"/>
   <path class="fil1" d="M331 562c17,-10 48,13 53,30 13,47 14,-4 131,7 53,5 24,18 56,-15 23,-23 48,-14 59,-28 18,-24 29,-17 39,-46 7,-21 18,-50 7,-72 -12,-25 5,-48 -14,-67 -3,1 -28,18 -29,19 -2,3 -7,25 -12,34 -17,31 -30,27 -49,44 26,13 59,25 53,64 -3,0 -54,-10 -60,-12 -36,-13 -16,-41 -27,-45 -5,3 -2,28 -14,43 -18,24 -7,-2 -22,33 -13,31 -47,36 -75,24 -8,-3 -47,21 -75,-23 -14,-22 6,-17 -18,-38 -14,-13 -9,-29 -15,-40l-33 -21c-10,5 -6,16 -28,9 -6,-2 -26,-10 -28,-14 6,-23 41,-11 49,-12l1 -23c-9,-5 -15,5 -32,-2 -11,-5 -18,-16 -22,-17 -17,10 -22,47 -16,65 7,20 21,35 37,49 50,-7 24,3 48,17 25,14 25,17 16,45 -5,16 8,37 -26,42 -17,2 -14,7 -26,10 -15,4 -19,-5 -27,-3 0,2 32,35 6,54l-23 -35c0,0 -33,19 -43,23 -14,5 -53,6 -57,9 -2,8 27,55 -19,75 -22,10 -32,-4 -44,13 -12,16 -26,17 -33,24l9 19c4,-4 9,-29 26,-23 9,25 -13,30 -18,37l25 19c8,-10 9,-28 21,-45 15,-21 20,-16 40,-24 20,-8 8,-44 78,-51 18,-2 56,-40 75,-52 12,-7 82,-41 83,-41 0,-1 -49,-31 -33,-59z"/>
   <path class="fil1" d="M924 557l0 -111c-57,0 -69,36 -90,76l80 -21c1,55 -57,78 -106,66 -22,26 10,28 6,69 -1,12 -11,28 -9,35 6,17 11,18 9,40 -2,24 -19,47 -42,55 -17,6 -26,-1 -35,13 -21,34 -70,38 -98,12 -14,-13 -7,-19 -26,-21 -43,-4 -68,-45 -57,-82 6,-20 13,-11 3,-32 -8,-18 -2,-30 -6,-40 -17,-13 -54,-7 -71,6 17,6 27,9 34,30 -27,12 -34,-4 -45,-20l-9 16 32 26c69,9 34,41 36,61 1,12 16,22 2,43 -9,14 -24,14 -39,16 -26,58 -68,0 -72,-1 -14,1 -19,28 -18,41l-1 -4 43 -10c2,34 -23,33 -35,42l9 13 49 -21 1 4c20,-24 48,-34 75,-13 21,16 2,18 31,26 20,6 18,21 37,16 4,-18 -10,-29 16,-49 13,-10 30,-13 44,-22 8,22 -9,53 -26,64l66 -26c2,-13 5,-46 25,-45l-1 34 32 -21c2,-13 -8,-19 6,-36 13,-16 20,-8 33,-13 13,-5 7,-7 31,-14 7,-2 20,-17 22,-24 -5,-11 -26,-11 -25,-44 1,-27 20,-27 11,-48 -8,-17 -6,-38 7,-52 20,-21 31,-11 52,-15l17 -18z"/>
   <path class="fil1" d="M702 0l-90 0c-2,14 -12,26 -10,35 4,16 7,26 -1,42 -19,36 -46,18 -63,37 -18,20 -53,20 -72,1 -16,-16 0,-16 -27,-23 -18,-5 -21,-17 -29,-20l-12 14c2,2 34,16 19,33l-25 -22 2 46c11,5 12,-3 23,7 13,12 10,4 23,9 16,7 7,25 12,43 7,24 -17,20 -27,33 -19,26 -30,-2 -41,-3 -4,4 -10,28 -19,40 -10,13 -26,19 -32,26 8,20 3,16 16,33 8,10 6,29 -1,39 -5,7 -10,8 -13,12 -3,5 -2,10 -7,17 -11,16 -26,11 -34,17 -4,24 5,47 32,46 7,-13 5,-20 20,-30 17,-10 3,-41 47,-54 25,-7 21,7 40,-9 -19,-16 -25,-6 -45,-39 -14,-23 -15,-42 -7,-67 45,26 69,37 67,90 5,-6 30,-23 40,-28 35,-17 11,-24 -1,-38 -12,-16 -18,-34 -9,-53 11,-23 26,-21 39,-32 9,-24 9,-53 46,-56 24,-2 39,-29 59,-42 60,-38 20,-12 27,-60 6,-44 46,-31 55,-49z"/>
   <path class="fil2" d="M674 612c73,-14 93,98 20,111 -72,13 -92,-97 -20,-111zm-38 138c11,10 8,38 47,39 41,1 38,-28 49,-38 6,-5 37,11 58,-22 21,-34 -10,-56 -9,-62 1,-7 30,-28 9,-62 -21,-33 -53,-15 -58,-22 -13,-17 -12,-39 -50,-37 -36,2 -35,31 -45,39 -22,3 -40,-9 -58,22 -19,34 10,54 10,61 -1,9 -30,27 -9,61 19,30 35,18 57,21z"/>
   <path class="fil1" d="M240 96l2 42c9,-1 13,-13 34,-5 15,5 9,13 26,18 40,12 17,40 21,54 12,43 -24,37 -36,48 -35,32 -42,0 -56,-6 -3,2 -22,68 -27,79 -8,19 -33,53 -26,72 9,23 0,25 -6,42 -3,9 10,21 -1,42 -17,36 -44,11 -65,41 13,23 48,44 74,34 0,-4 -30,-20 -18,-44 4,-1 22,8 26,11 14,11 5,21 10,30 15,2 8,-17 15,-28 10,-16 21,-8 30,-13 -2,-7 -32,-27 -38,-60 -8,-44 21,-56 22,-75 -5,-14 -33,-34 -2,-59 12,-10 17,-48 53,-35 21,8 15,-3 32,2 15,4 13,14 30,3 20,-13 32,-30 38,-53 -5,-7 -18,-5 -17,-23 1,-10 4,-8 2,-16 -2,-6 -5,-6 -4,-16 2,-29 40,-5 29,-49 -21,5 -25,15 -53,5 -11,-4 -34,-20 -32,-33 3,-1 46,-9 51,-10 27,-1 23,9 34,22 2,-9 20,-57 20,-57 -5,-15 -12,9 -51,17 -25,5 -60,-10 -63,-8 -7,4 -12,11 -22,17 -9,5 -26,7 -30,11z"/>
   <path class="fil1" d="M924 107l0 -30 -90 38c-12,18 -9,35 -42,39 -23,3 -23,30 -56,27 -10,-1 -21,-5 -29,-13 -18,-18 2,-9 -27,-16 -29,-7 -28,-29 -34,-49 -13,-1 -55,37 -60,49 28,29 41,0 74,10 36,12 29,40 31,67 14,18 34,22 30,55 -3,26 -23,34 -43,44 -6,18 -11,38 3,54 18,-1 15,-22 23,-33 15,-19 29,-13 40,-20l7 -50c-4,-5 -33,-15 -20,-33l26 18c5,-4 13,-23 23,-33 6,-7 33,-23 33,-24 -5,-7 -36,-23 -22,-45 3,0 23,10 28,12 20,11 10,15 14,27 46,15 19,-37 27,-59 10,-29 36,-42 66,-38z"/>
   <path class="fil1" d="M362 924l50 0c-5,-17 -2,-23 3,-38 3,-8 -8,-17 -12,-25 -17,-36 -2,-41 3,-69 -49,-41 -7,-41 -18,-66 -18,-40 9,-47 38,-52 7,-7 5,-13 16,-19 14,-8 10,-2 19,-17 14,-24 22,-20 38,-32 -66,-10 -159,31 -212,66 40,-3 83,22 86,64 -53,2 -103,18 -110,-47l-30 27 35 27c59,-14 101,44 84,102 21,34 25,38 12,80z"/>
   <path class="fil1" d="M0 316l0 123c24,0 2,-30 14,-53 16,-31 39,-16 52,-28 16,-16 36,-21 57,-8 10,6 12,17 18,21 1,1 25,11 29,12l20 -36c-25,16 -63,-1 -83,-17 12,-14 23,-25 44,-26 32,-3 32,9 49,21l25 -76c-44,-41 -13,-26 -19,-54 -6,-29 0,-38 28,-46l0 -26c-32,38 -31,26 -69,45 -4,25 3,19 -11,44 -5,9 7,25 3,45 -9,43 -37,40 -68,46 -28,28 -47,38 -86,15z"/>
   <path class="fil3" d="M701 92c-14,-52 66,-70 77,-19 11,51 -64,69 -77,19zm56 -92l-35 0c-14,12 -10,16 -17,24 -16,1 -30,-4 -41,15 -12,22 0,28 7,43 -7,14 -19,21 -8,43 11,20 25,15 41,16 10,11 8,27 34,27 25,0 25,-16 34,-27 15,-2 28,6 40,-15 13,-21 0,-28 -6,-43 3,-12 20,-21 7,-43 -12,-21 -24,-15 -41,-16 -7,-8 -5,-12 -17,-24z"/>
   <path class="fil1" d="M0 556c42,-27 57,-3 78,27 19,7 30,0 47,21 18,22 6,33 3,52 -1,8 17,9 18,-1 1,-11 -3,-14 6,-26 5,-6 36,-22 42,-22 9,24 -14,37 -19,47 15,0 56,-31 58,-46 -5,-10 -14,-7 -22,-17 -10,-13 -3,-21 -4,-31 -20,-2 -32,9 -64,-2 -27,-9 -26,-22 -41,-33 -54,4 -40,-22 -60,-28 -52,-17 -29,-47 -41,-51l0 110z"/>
   <path class="fil4" d="M44 444c-13,-61 82,-86 97,-19 14,62 -84,83 -97,19zm7 48c9,12 7,25 32,28 24,3 25,-10 37,-21 19,-1 38,3 46,-24 4,-15 0,-17 -3,-30 -3,-9 7,-11 10,-23 4,-21 -8,-39 -29,-43 -25,-4 -11,-28 -44,-30 -34,-3 -23,21 -47,21 -21,-1 -37,14 -37,35 0,14 9,17 4,26 -6,11 -11,12 -9,27 2,30 24,27 41,34z"/>
   <path class="fil1" d="M0 77l0 30c27,-23 54,-46 90,-11 9,8 9,14 14,20 5,6 17,5 25,9 27,12 22,26 33,37l48 -20c-4,-8 -41,-5 -26,-32 36,3 23,20 36,25l14 -35 -4 -2c-18,-12 -19,4 -57,-30 -22,4 -38,3 -56,-12 -22,-18 -22,-32 -32,-44l-83 66z"/>
   <path class="fil1" d="M689 452l-17 74c12,4 24,-4 46,9 16,10 19,27 34,29 34,5 26,28 64,-39 26,-46 74,-128 40,-178 -9,-13 -26,-19 -41,-10 -12,8 8,15 11,38 4,24 48,34 0,83 -10,10 1,22 -24,36 -24,14 -27,6 -47,1 -10,-2 -21,13 -46,-4 -25,-17 -14,-28 -21,-40z"/>
   <path class="fil5" d="M120 262c17,-22 -6,-34 1,-49 37,26 1,90 -45,62 10,-14 27,8 44,-13zm-31 -121c68,-15 63,65 32,69 -1,-15 5,-9 11,-22 7,-17 -3,-37 -20,-40 -15,-3 -10,5 -23,-7zm0 0c-16,-8 -7,-8 -14,-20 -10,-16 -34,-17 -45,-4 -9,10 -1,12 -17,16 4,-43 75,-50 76,8zm-89 -23l0 34c26,-16 45,-22 75,-7 46,23 49,94 -1,120 -31,16 -48,5 -74,-8l0 12c13,6 5,8 13,20 9,13 31,17 45,2 9,-10 1,-12 16,-15 0,17 -16,32 -33,33 -23,2 -29,-9 -40,-23l0 17c54,42 77,-11 81,-13 20,-4 35,8 55,-18 20,-26 6,-38 1,-59 7,-19 26,-26 11,-58 -13,-27 -29,-22 -50,-28 -13,-17 -12,-37 -45,-39 -38,-2 -41,30 -53,29z"/>
   <path class="fil1" d="M754 309l36 -21c12,22 -20,31 -30,35 -14,5 -4,16 3,17 8,1 11,-7 28,-4 29,6 25,-13 51,-5 21,7 27,30 33,33l5 -42c-12,-8 -38,-7 -29,-32l27 10c10,-22 -19,-27 -27,-51 -11,-31 17,-49 -31,-35 -35,10 -74,57 -66,93z"/>
   <path class="fil3" d="M602 290c17,-15 45,44 26,55 -17,9 -42,-41 -26,-55zm-28 -6c26,-7 8,44 -18,51 -29,8 -10,-43 18,-51zm58 -23c33,-7 65,23 31,30 -32,7 -70,-22 -31,-30zm-106 -13c33,-9 69,20 37,29 -32,9 -70,-19 -37,-29zm107 -44c31,-13 13,39 -12,49 -29,12 -17,-38 12,-49zm-70 -11c19,-9 43,50 24,57 -20,8 -42,-48 -24,-57zm-18 97c-1,7 -29,39 -7,53 22,15 41,-18 49,-20 9,7 15,38 40,32 27,-7 8,-48 10,-53 10,-3 47,5 49,-22 2,-26 -33,-26 -42,-32 0,-7 15,-18 13,-38 -2,-20 -19,-22 -34,-14 -15,8 -20,27 -27,12 -6,-12 -16,-26 -30,-26 -19,0 -23,22 -19,36 7,33 2,10 -26,20 -16,5 -25,19 -13,34 13,15 31,12 37,17z"/>
   <path class="fil6" d="M604 0l-40 0c5,24 5,34 -9,55 -29,43 -119,26 -102,-55l-31 0c9,26 -17,19 -8,56 7,28 27,26 46,31 10,16 11,31 37,34 32,4 32,-16 46,-25 49,6 64,-23 48,-66l14 -28z"/>
   <path class="fil1" d="M775 924l76 0c2,-11 10,-26 20,-30l21 30 32 0 0 -149 -33 -34 -21 -4 -19 24c7,6 18,20 19,21 8,6 18,5 25,16 7,10 8,22 3,34 -10,20 2,13 -3,34 -3,11 -10,18 -20,22 -21,8 -8,-4 -30,11 -30,23 -44,-12 -53,-18 -16,-2 -31,15 -36,29l18 15z"/>
   <path class="fil1" d="M471 353l42 10c-5,35 -56,9 -65,6l-17 17c9,8 21,-16 56,5 18,11 26,27 25,48l23 28c23,2 71,-14 76,-38 -10,-6 -43,-9 -34,-37l43 17 4 -19c-3,-2 -37,-18 -41,-19 -6,-2 -59,28 -80,-26 -6,-17 -34,9 -34,9z"/>
   <path class="fil5" d="M157 811c-22,33 -16,47 -24,60 -10,17 -43,9 -46,-21 -2,-22 7,-45 24,-60 30,-25 52,12 46,21zm101 -22c-13,-51 76,-39 82,23 3,31 -33,46 -43,22 -7,-17 -40,-45 -40,-46zm-7 -20c-10,25 -32,6 -60,17 -12,5 -15,12 -28,2 -10,-8 -12,-20 -7,-32 19,-40 113,-33 96,12zm-160 155l9 0c-3,-27 11,-42 38,-34 3,6 5,12 9,18 3,5 9,11 11,16l12 0c-20,-27 -36,-48 -20,-86 12,-29 38,-48 70,-48 31,0 59,19 71,47 18,43 -3,58 -20,87l12 0c22,-30 16,-30 23,-63 17,-10 33,-12 44,9 10,20 1,37 -5,55l9 0c24,-59 -11,-73 -15,-78 10,-29 20,-42 -7,-72 -8,-9 -18,-18 -29,-22 -24,-9 -24,0 -40,1 -9,-7 -6,-16 -26,-25 -14,-6 -29,-6 -44,-4 -49,10 -47,44 -50,50 -32,4 -44,5 -58,40 -20,50 14,68 16,73l-10 37z"/>
   <path class="fil2" d="M194 871c-5,-34 45,-41 50,-9 5,35 -45,40 -50,9zm9 53l33 0c25,-17 48,-26 42,-67 -10,-66 -107,-65 -117,1 -6,40 17,50 42,67z"/>
   <path class="fil3" d="M636 750c-21,-3 -38,9 -57,-21 -21,-34 8,-52 9,-61 1,-7 -29,-27 -10,-61 17,-31 35,-19 58,-22 9,-8 8,-37 45,-39 38,-2 36,20 50,37 5,7 38,-11 58,22 22,34 -8,55 -9,62 0,6 30,29 9,62 -21,33 -52,17 -58,22 -11,10 -8,39 -49,38 -39,-1 -35,-29 -47,-39zm-72 -110c5,33 19,9 3,43 -8,16 -5,38 5,53 9,14 25,24 41,24 30,1 15,11 38,28 16,12 36,14 54,6 24,-9 26,-28 34,-32 13,-7 27,4 49,-17 13,-13 19,-31 17,-49 -4,-32 -20,-12 -3,-46 14,-29 -6,-75 -48,-77 -29,-1 -14,-13 -37,-28 -53,-36 -78,23 -88,27 -17,6 -28,-4 -49,17 -13,13 -18,32 -15,50z"/>
   <path class="fil7" d="M794 835c-3,-54 73,-55 77,-7 4,51 -74,56 -77,7zm-20 -23c3,21 7,2 -3,23 -4,8 -3,19 2,26 6,10 11,10 21,13 13,4 5,9 16,18 24,20 37,-8 46,-9 15,-3 39,0 36,-30 -2,-24 -7,-3 3,-25 4,-9 3,-20 -3,-28 -8,-11 -13,-8 -22,-12 -9,-4 -5,-10 -15,-18 -24,-19 -37,10 -46,10 -20,1 -37,6 -34,31z"/>
   <path class="fil3" d="M664 241c9,10 36,12 35,40 -2,30 -31,26 -43,33 -5,11 6,42 -21,51 -28,9 -37,-18 -48,-24 -12,3 -30,27 -53,10 -23,-17 -5,-40 -6,-54 -5,-6 -65,-34 -20,-63 20,-13 31,0 30,-21 -2,-47 36,-52 58,-27 17,20 10,6 32,-2 58,-20 36,48 36,57zm-109 -77c-15,6 -24,16 -26,33 -4,33 -4,14 -28,30 -38,27 -10,54 12,73 7,6 -16,69 40,67 23,-1 26,-17 41,-4 13,11 28,18 45,12 14,-4 24,-18 26,-33 6,-37 2,-13 28,-31 42,-30 8,-54 -11,-74 -7,-7 15,-71 -42,-67 -22,2 -24,18 -39,4 -13,-12 -27,-18 -44,-11z"/>
   <path class="fil5" d="M547 290c-7,-5 -25,-2 -37,-17 -12,-15 -2,-28 13,-34 28,-10 34,12 26,-20 -3,-15 0,-37 19,-36 15,0 25,15 30,26 7,15 12,-4 27,-12 15,-8 33,-6 34,14 1,20 -13,31 -13,38 8,6 44,6 42,32 -2,27 -39,18 -49,22 -1,5 17,47 -10,53 -25,6 -31,-24 -40,-32 -8,2 -27,34 -49,20 -23,-15 5,-46 7,-53zm118 -49c-1,-9 22,-77 -36,-57 -22,8 -15,22 -32,2 -21,-24 -60,-20 -58,27 1,22 -11,8 -30,21 -44,29 15,56 20,63 0,14 -17,37 6,54 23,17 40,-6 53,-10 11,5 20,33 48,24 27,-9 16,-40 21,-51 12,-8 42,-4 43,-33 1,-28 -26,-30 -35,-40z"/>
   <path class="fil6" d="M420 924l31 0c10,-16 6,-14 20,-28 7,-7 26,-13 36,-13 26,0 48,16 56,40l40 0c0,-33 -17,-44 -47,-47 -10,-16 -13,-32 -38,-35 -29,-3 -30,14 -45,26 -39,-5 -62,16 -54,56z"/>
   <path class="fil1" d="M924 439l0 -124c-24,-30 -14,-24 -38,-29 -3,35 1,60 -6,99 -4,21 -21,72 -22,83 25,-13 23,-28 65,-29z"/>
   <path class="fil5" d="M33 721c-10,37 -35,12 -26,-22 10,-37 35,-12 26,22zm7 -37c-10,-29 43,-9 49,13 6,26 -41,9 -49,-13zm32 -59c35,-10 27,25 -7,33 -36,9 -30,-23 7,-33zm-45 -39c20,-9 22,50 3,57 -20,7 -21,-49 -3,-57zm-26 31l0 122c30,34 39,-11 45,-30 6,0 38,25 51,4 13,-20 -13,-35 -22,-46 9,-9 35,-16 30,-39 -6,-27 -45,-7 -52,-7 -2,-13 1,-49 -25,-46 -13,2 -21,18 -23,30 -1,7 1,13 -4,12z"/>
   <path class="fil3" d="M289 208c-14,35 -65,16 -53,-19 5,-16 21,-22 37,-17 15,5 22,22 16,36zm-48 -50c-11,-1 -21,-2 -28,9 -8,13 -1,20 4,30 -6,10 -13,17 -5,30 6,9 16,12 26,10 6,9 6,18 22,20 14,1 20,-7 24,-18 28,6 42,-18 24,-39 7,-2 11,-17 7,-27 -6,-15 -17,-13 -29,-14 -4,-11 -9,-19 -22,-19 -16,0 -17,8 -24,18z"/>
   <path class="fil5" d="M494 546c-12,30 -79,33 -62,-3 5,-11 15,1 38,-20 15,-14 30,7 24,23zm-112 -33c13,17 15,16 34,24 16,6 7,31 -15,30 -38,-1 -62,-54 -20,-54zm100 -24c-12,69 -116,51 -104,-18 12,-68 115,-49 104,18zm3 -29c33,-33 49,22 33,48 -11,16 -32,14 -34,0 -1,-4 4,-16 5,-23 1,-11 -1,-15 -3,-25zm-111 43c-37,29 -47,-26 -33,-49 9,-14 29,-17 34,-2 2,7 -3,16 -4,24 -1,11 3,17 3,27zm74 -108c32,-13 74,41 41,52 -14,4 -19,-13 -37,-20 -10,-4 -15,-2 -15,-15 0,-8 4,-14 11,-17zm-22 27c-39,10 -22,9 -40,20 -11,7 -30,-10 -17,-30 19,-30 77,-28 58,10zm-72 98c3,20 -6,28 19,44 26,18 29,9 51,2 6,-2 17,21 50,5 26,-12 22,-23 27,-44 12,-12 27,-6 29,-41 2,-35 -18,-34 -24,-44 -5,-8 8,-27 -21,-46 -31,-20 -41,-1 -51,-1 -7,0 -19,-21 -51,-4 -31,16 -19,32 -25,43 -4,7 -27,5 -29,40 -2,34 10,30 25,45z"/>
   <path class="fil1" d="M612 924l91 0c8,-15 29,-17 43,-18l28 -33 -15 -34 -84 42 23 15c-18,18 -32,0 -43,-8l-46 12 3 24z"/>
   <path class="fil3" d="M61 211c-10,23 -46,7 -35,-16 10,-22 45,-7 35,16zm-61 -31l0 45c15,17 27,31 55,24 47,-11 49,-81 1,-93 -30,-8 -40,7 -56,24z"/>
   <path class="fil3" d="M169 924l34 0c-25,-16 -48,-27 -42,-67 10,-65 106,-67 117,-1 6,41 -17,51 -42,67l34 0c16,-29 38,-43 20,-87 -12,-28 -39,-47 -71,-47 -32,0 -58,19 -70,48 -16,38 0,59 20,86z"/>
   <path class="fil1" d="M0 924l82 0 6 -35c-18,-21 -14,-45 -33,-49 5,20 4,30 -9,47 -3,4 -26,29 -29,31 -29,-32 -8,-70 21,-92 -36,-42 -11,-41 -39,-49l0 148z"/>
   <path class="fil2" d="M253 540c35,-11 47,38 17,47 -37,11 -44,-39 -17,-47zm-5 -15c-24,-7 -39,11 -26,31 -19,17 -12,37 14,39 5,25 26,29 39,8 10,2 19,4 27,-5 6,-8 5,-18 0,-25 7,-7 14,-13 10,-26 -4,-11 -13,-13 -23,-14 -1,-10 -6,-19 -17,-20 -14,-2 -16,6 -23,13z"/>
   <path class="fil5" d="M924 301l0 -45c-15,-6 -25,-36 -25,-53 0,-17 11,-46 25,-51l0 -14c-33,-8 -48,22 -36,41 17,29 -26,40 -6,69 15,21 33,5 39,19 -20,9 -42,-1 -50,-20 -13,-31 16,-48 19,-51 -5,-9 -10,-7 -13,-21 -3,-10 -2,-19 3,-28 9,-19 26,-23 45,-19l0 -10c-19,-3 -40,3 -51,19 -16,24 -7,36 1,58 -11,19 -26,30 -12,58 13,27 29,22 50,28l12 21z"/>
   <path class="fil1" d="M412 0l-51 0c-5,13 -16,26 -27,34 -20,15 -32,0 -36,26 25,17 53,19 81,3 14,-8 22,-12 25,-27 4,-22 14,-17 8,-36z"/>
   <path class="fil3" d="M157 811c6,-9 -16,-46 -46,-21 -17,14 -26,37 -24,60 3,31 36,39 46,21 7,-13 2,-27 24,-60z"/>
   <path class="fil3" d="M257 789c0,1 33,29 40,46 10,24 46,8 43,-22 -6,-63 -96,-74 -82,-23z"/>
   <path class="fil3" d="M451 775c-5,-28 16,-40 20,-14 4,27 -16,41 -20,14zm23 -37c17,-6 43,12 36,23 -6,9 -41,-4 -36,-23zm-26 10c-8,15 -44,25 -35,4 7,-16 46,-24 35,-4zm61 -45c6,17 -27,31 -35,24 -9,-10 17,-31 35,-24zm-97 1c9,-11 45,12 35,23 -10,10 -44,-13 -35,-23zm44 -25c15,-12 21,31 8,38 -15,8 -18,-30 -8,-38zm-15 21c-6,1 -32,-14 -37,4 -4,16 13,22 19,29 -4,6 -24,14 -18,30 6,18 31,2 37,3 4,8 2,32 20,30 17,-2 14,-24 18,-31 10,2 23,13 35,1 8,-19 -11,-24 -17,-34 6,-9 25,-12 17,-32 -14,-14 -29,1 -36,0 -2,-10 -2,-32 -19,-31 -16,1 -15,22 -19,30z"/>
   <path class="fil8" d="M250 769c18,-45 -77,-53 -96,-12 -5,12 -3,24 7,32 13,10 16,3 28,-2 28,-11 51,7 60,-17z"/>
   <path class="fil3" d="M796 451c12,-9 23,12 14,24 -7,10 -19,17 -32,17 -19,0 -25,-19 -14,-25 8,-5 4,4 32,-16zm-83 -6c8,-2 15,13 28,18 8,3 13,2 12,13 0,7 -4,12 -12,14 -29,6 -60,-37 -29,-44zm39 -71c54,-12 73,75 16,86 -55,11 -77,-73 -16,-86zm64 18c23,-8 32,45 8,56 -6,3 -15,2 -19,-4 -4,-6 -1,-9 1,-15 5,-19 -9,-30 9,-36zm-121 -6c6,-2 14,0 17,6 4,6 0,9 -2,16 -3,16 8,32 -9,36 -26,6 -30,-48 -7,-57zm105 4c-12,-13 -13,-13 -29,-20 -16,-7 -4,-26 12,-26 27,1 55,41 18,46zm-80 -4c-36,-6 -9,-46 23,-43 16,1 22,21 9,26 -20,8 -14,2 -31,17zm-25 64c1,17 -2,27 16,38 20,13 24,8 42,0 2,0 16,18 43,4 19,-10 19,-18 20,-36 2,-3 23,-5 25,-34 2,-30 -17,-33 -21,-37 0,-15 4,-19 -9,-32 -8,-8 -20,-14 -32,-14 -23,0 -4,14 -28,1 -16,-9 -51,5 -53,28 -2,25 -6,4 -18,23 -7,10 -9,23 -6,35 5,19 10,15 20,23z"/>
   <path class="fil3" d="M262 16c-8,4 -23,9 -32,10 -10,1 -28,-4 -35,2 -21,18 -5,42 18,48 20,5 48,-1 63,-15 22,-21 1,-53 -14,-45z"/>
   <path class="fil5" d="M262 16c15,-8 36,23 14,45 -15,15 -43,20 -63,15 -24,-6 -39,-30 -18,-48 7,-6 25,-1 35,-2 9,-1 24,-6 32,-10zm90 -16l-9 0c-13,30 -54,42 -62,0l-13 0c-17,23 -79,23 -97,0l-12 0 22 18c8,55 -70,37 -81,-18l-9 0c6,20 13,34 30,47 8,6 16,11 26,13 18,4 19,-3 31,-5 8,14 6,18 23,26 14,7 29,8 44,5 13,-2 25,-7 34,-16 17,-17 12,-14 17,-35 16,-1 18,4 35,-8 8,-6 19,-17 21,-27z"/>
   <path class="fil2" d="M424 465c23,-8 32,25 14,32 -23,9 -35,-24 -14,-32zm-34 22c8,52 86,42 81,-11 -6,-53 -89,-44 -81,11z"/>
   <path class="fil3" d="M0 586l0 31c5,1 3,-4 4,-12 2,-12 10,-28 23,-30 26,-4 23,32 25,46 7,0 46,-20 52,7 5,22 -21,30 -30,39 9,10 35,25 22,46 -13,21 -45,-4 -51,-4 -6,19 -15,65 -45,30l0 15c39,22 47,-21 53,-29 15,3 39,13 51,-7 14,-23 -8,-37 -12,-49 9,-13 29,-23 20,-47 -9,-24 -35,-14 -49,-16 -7,-13 -4,-31 -24,-39 -20,-7 -29,6 -39,19z"/>
   <path class="fil2" d="M0 569l0 17c10,-13 20,-26 39,-19 20,8 17,26 24,39 14,3 40,-8 49,16 9,24 -11,33 -20,47 4,12 26,26 12,49 -12,20 -36,10 -51,7 -6,8 -14,51 -53,29l0 12c44,17 52,-24 59,-27 18,-1 38,8 53,-14 14,-21 2,-36 -6,-54 7,-16 26,-25 15,-52 -9,-23 -31,-22 -50,-23 -9,-9 -5,-26 -28,-36 -22,-10 -29,3 -44,11z"/>
   <path class="fil9" d="M391 176c-30,-13 -24,23 -10,22 -9,4 -13,13 -8,22 9,6 14,2 22,-1 8,31 29,16 23,-4 4,6 16,4 22,1 4,-10 0,-20 -11,-22 8,-4 12,-15 8,-23 -7,-3 -16,-4 -22,3 0,-9 -3,-19 -14,-17 -9,2 -10,12 -10,19z"/>
   <path class="fil5" d="M768 0l-11 0c12,11 10,16 17,24 18,1 29,-5 41,16 12,22 -4,31 -7,43 7,15 19,22 6,43 -12,21 -25,13 -40,15 -10,12 -9,28 -34,27 -26,0 -24,-17 -34,-27 -16,-2 -30,4 -41,-16 -12,-22 1,-29 8,-43 -7,-15 -19,-21 -7,-43 11,-19 24,-15 41,-15 7,-8 3,-12 17,-24l-11 0 -10 15c-16,5 -30,-2 -42,20 -14,24 4,41 3,48 0,4 -17,24 -2,48 12,20 24,15 41,18 12,13 12,25 37,26 24,1 28,-12 40,-26 17,-5 29,1 42,-20 15,-25 -2,-36 -2,-47 -1,-8 17,-20 4,-46 -10,-21 -24,-19 -42,-22l-11 -15z"/>
   <path class="fil3" d="M410 733c-3,-10 -21,-20 -10,-37 11,-18 32,-3 37,-11 6,-9 7,-26 26,-24 16,2 17,17 23,26 9,1 29,-7 37,10 8,17 -7,25 -12,34 5,10 20,19 11,35 -9,17 -27,8 -36,9 -7,10 -6,27 -26,27 -19,0 -19,-20 -25,-27 -11,1 -30,7 -36,-9 -7,-16 5,-23 11,-33zm81 51c13,-2 18,3 31,-7 9,-7 11,-18 8,-29 -5,-18 -14,-8 -4,-25 10,-17 7,-43 -27,-43 -16,0 -8,-8 -20,-19 -28,-25 -48,18 -48,18 -13,3 -28,-3 -38,14 -10,18 3,26 7,39 -3,12 -17,21 -6,40 9,16 23,12 36,13 9,9 9,25 30,26 20,0 22,-15 31,-25z"/>
   <path class="fil3" d="M282 924l62 0c6,-18 14,-35 5,-55 -10,-21 -26,-19 -44,-9 -7,33 -1,34 -23,63z"/>
   <path class="fil3" d="M500 5c20,-10 34,20 15,30 -21,10 -35,-20 -15,-30zm45 -5l-75 0c-33,75 103,87 75,0z"/>
   <path class="fil1" d="M850 0l-74 0 4 8c22,5 39,5 48,32 4,11 4,23 -1,33 -6,13 -1,14 4,29 12,-2 41,-11 49,-17 -30,-20 -40,-49 -31,-85z"/>
   <path class="fil3" d="M390 487c-8,-54 75,-64 81,-11 6,53 -73,63 -81,11zm92 2c12,-67 -92,-85 -104,-18 -12,69 92,87 104,18z"/>
   <path class="fil5" d="M442 699c4,-8 2,-29 19,-30 16,-1 16,22 19,31 7,0 22,-15 36,0 8,20 -11,24 -17,32 6,10 25,14 17,34 -12,12 -25,1 -35,-1 -4,7 -2,29 -18,31 -18,2 -16,-22 -20,-30 -6,-1 -30,15 -37,-3 -6,-16 15,-24 18,-30 -6,-7 -23,-13 -19,-29 5,-18 31,-3 37,-4zm-31 35c-6,10 -18,17 -11,33 7,16 25,10 36,9 6,7 6,27 25,27 20,0 19,-17 26,-27 9,-1 28,8 36,-9 8,-16 -7,-25 -11,-35 5,-10 19,-17 12,-34 -8,-17 -27,-8 -37,-10 -6,-9 -7,-24 -23,-26 -19,-2 -20,15 -26,24 -5,8 -26,-8 -37,11 -10,17 7,27 10,37z"/>
   <path class="fil10" d="M79 437c-2,-20 27,-23 28,-3 1,19 -26,20 -28,3zm8 -37c-49,11 -32,79 13,70 45,-9 32,-79 -13,-70z"/>
   <path class="fil4" d="M451 924l113 0c-7,-24 -29,-41 -56,-40 -11,0 -29,6 -36,13 -14,14 -11,11 -20,28z"/>
   <path class="fil8" d="M158 0l-59 0c11,56 89,74 81,18l-22 -18z"/>
   <path class="fil3" d="M674 622c60,-14 80,77 21,91 -59,13 -84,-76 -21,-91zm-1 -10c-72,14 -52,124 20,111 73,-13 53,-125 -20,-111z"/>
   <path class="fil3" d="M754 405c19,-8 27,18 12,26 -17,9 -32,-17 -12,-26zm39 20c9,-43 -57,-58 -67,-15 -10,45 57,59 67,15z"/>
   <path class="fil3" d="M324 394c-15,27 -56,11 -39,-5 6,-6 5,3 25,-12 10,-7 19,7 13,17zm-73 -24c12,12 6,8 23,16 12,6 2,21 -10,20 -24,-1 -41,-36 -13,-36zm-1 -17c-4,-45 64,-52 69,-8 6,48 -65,53 -69,8zm87 22c-5,3 -10,2 -14,-1 -5,-5 -2,-8 -1,-14 4,-14 -4,-23 6,-28 20,-9 26,33 9,43zm-104 -49c6,-4 20,-6 15,13 -3,12 3,24 -4,28 -19,10 -31,-26 -10,-41zm84 3c-11,-14 -10,-8 -22,-17 -10,-7 -2,-19 10,-19 23,0 43,37 12,36zm-52 -38c9,-2 23,2 21,14 -2,9 -14,6 -25,14 -20,16 -29,-21 4,-29zm-27 27c-12,5 -19,11 -20,25 -1,15 4,23 16,30 -1,16 0,22 13,31 12,8 21,9 33,0 18,20 54,3 50,-24 13,-1 20,-13 21,-25 1,-17 -4,-22 -16,-30 7,-25 -21,-45 -46,-31 -11,-9 -17,-12 -32,-5 -14,6 -17,14 -18,29z"/>
   <path class="fil2" d="M924 764l0 -13c-12,-8 -12,-21 -15,-33 -17,0 -42,7 -50,-17 -9,-24 14,-34 21,-46 -11,-14 -25,-30 -12,-49 12,-19 35,-10 51,-6l5 -11 0 -18 -11 17c-18,1 -40,-9 -54,15 -12,20 -1,36 7,53 -10,16 -26,29 -14,52 12,24 30,20 50,22 6,12 9,28 23,34z"/>
   <path class="fil1" d="M0 64c17,-7 70,-51 78,-64l-78 0 0 64z"/>
   <path class="fil3" d="M0 151l0 13c9,-5 29,-29 65,-14 66,27 33,127 -36,109 -18,-5 -17,-11 -28,-16l0 13c26,13 43,23 74,8 50,-26 47,-97 1,-120 -29,-14 -49,-8 -75,7z"/>
   <path class="fil3" d="M924 751l0 -17c-6,-8 -5,-21 -4,-31 -12,3 -44,18 -52,-4 -8,-23 20,-32 30,-41 -11,-10 -31,-24 -24,-43 8,-21 38,-5 50,0l0 -26 -5 11c-16,-4 -39,-13 -51,6 -13,19 1,36 12,49 -7,11 -30,21 -21,46 9,24 34,17 50,17 3,12 3,25 15,33z"/>
   <path class="fil5" d="M0 164l0 16c16,-17 26,-31 56,-24 47,12 46,82 -1,93 -27,7 -40,-7 -55,-24l0 17c11,5 11,12 28,16 69,18 103,-82 36,-109 -35,-15 -56,10 -65,14z"/>
   <path class="fil11" d="M289 208c5,-14 -1,-30 -16,-36 -15,-5 -32,1 -37,17 -12,35 39,53 53,19z"/>
   <path class="fil5" d="M720 677c-15,49 -87,26 -72,-21 16,-48 85,-23 72,21zm-46 -55c-63,15 -38,104 21,91 59,-14 39,-105 -21,-91z"/>
   <path class="fil5" d="M793 425c-10,44 -77,30 -67,-15 10,-43 76,-28 67,15zm-41 -50c-61,13 -40,97 16,86 58,-11 38,-98 -16,-86z"/>
   <path class="fil5" d="M924 734l0 -47c-13,7 -29,21 -45,10 -11,-19 28,-34 45,-32l0 -10c-17,-1 -50,-21 -39,-39 12,-7 31,3 39,12l0 -13c-12,-5 -42,-21 -50,0 -7,19 12,33 24,43 -10,9 -38,18 -30,41 8,22 40,7 52,4 -1,10 -2,23 4,31z"/>
   <path class="fil3" d="M494 546c6,-16 -9,-37 -24,-23 -23,21 -33,10 -38,20 -17,36 50,33 62,3z"/>
   <path class="fil3" d="M427 422c19,-37 -38,-40 -58,-10 -12,20 6,36 17,30 18,-11 2,-10 40,-20z"/>
   <path class="fil3" d="M449 395c-7,3 -11,9 -11,17 0,13 6,11 15,15 17,7 23,25 37,20 33,-11 -9,-64 -41,-52z"/>
   <path class="fil3" d="M382 514c-42,0 -19,53 20,54 22,1 30,-24 15,-30 -19,-8 -22,-7 -34,-24z"/>
   <path class="fil1" d="M343 718c-5,-27 -45,-52 -69,-33 -10,8 0,30 15,34 10,3 42,1 54,0z"/>
   <path class="fil12" d="M872 3c-9,13 -15,29 -10,47 3,11 18,33 31,29 15,-5 17,-27 8,-40 -7,-10 -20,-28 -28,-35z"/>
   <path class="fil3" d="M486 460c2,10 4,14 3,25 0,7 -5,19 -5,23 2,14 24,16 34,0 17,-25 0,-81 -33,-48z"/>
   <path class="fil3" d="M375 503c0,-10 -4,-16 -3,-27 1,-8 6,-17 4,-24 -5,-15 -25,-11 -34,2 -15,23 -4,77 33,49z"/>
   <path class="fil2" d="M837 842c-20,2 -19,-18 -8,-21 12,-3 21,11 8,21zm-9 -38c-37,7 -27,62 10,55 36,-7 25,-62 -10,-55z"/>
   <path class="fil3" d="M194 871c5,31 55,26 50,-9 -5,-32 -55,-25 -50,9z"/>
   <path class="fil1" d="M817 558c24,20 80,-11 77,-38 -29,2 -65,8 -77,38z"/>
   <path class="fil13" d="M253 540c-26,9 -20,59 17,47 29,-9 17,-58 -17,-47z"/>
   <path class="fil3" d="M675 641c36,-12 53,42 19,53 -36,12 -53,-41 -19,-53zm46 36c14,-45 -56,-69 -72,-21 -16,47 57,70 72,21z"/>
   <path class="fil12" d="M435 364c15,-36 -18,-57 -45,-70 -5,24 18,69 45,70z"/>
   <path class="fil3" d="M924 137l0 -10c-20,-3 -36,1 -45,19 -5,9 -5,18 -3,28 4,14 8,12 13,21 -3,3 -32,19 -19,51 8,20 31,29 50,20 -6,-14 -24,2 -39,-19 -20,-28 24,-40 6,-69 -12,-20 3,-49 36,-41z"/>
   <path class="fil14" d="M241 158c7,-10 8,-18 24,-18 13,0 18,9 22,19 12,1 23,-1 29,14 4,9 0,24 -7,27 18,21 4,45 -24,39 -4,12 -11,20 -24,18 -15,-1 -16,-11 -22,-20 -10,2 -21,0 -26,-10 -8,-13 0,-20 5,-30 -5,-10 -12,-17 -4,-30 7,-11 17,-10 28,-9zm-3 -5c-13,-1 -22,1 -29,14 -10,18 2,23 1,31 0,4 -25,41 26,46 13,26 36,24 52,1 12,0 21,-1 29,-12 10,-14 2,-21 0,-31 -1,-6 12,-14 3,-32 -6,-12 -15,-14 -28,-15 -8,-9 -10,-18 -25,-19 -15,-1 -21,8 -28,17z"/>
   <path class="fil3" d="M279 360c-14,-10 -5,-25 8,-22 12,3 13,24 -8,22zm-5 -35c-35,16 -12,61 19,50 34,-12 14,-64 -19,-50z"/>
   <path class="fil5" d="M80 394c54,-19 80,68 25,82 -53,14 -78,-63 -25,-82zm-36 50c13,64 111,43 97,-19 -15,-67 -110,-42 -97,19z"/>
   <path class="fil13" d="M924 256l0 -105c-14,6 -25,35 -25,51 0,17 10,47 25,53z"/>
   <path class="fil3" d="M87 400c45,-10 59,60 13,70 -45,9 -63,-59 -13,-70zm-7 -6c-54,19 -29,96 25,82 55,-14 29,-102 -25,-82z"/>
   <path class="fil3" d="M563 0l-8 0c4,17 6,33 -6,49 -23,30 -64,27 -83,0 -12,-17 -10,-30 -6,-49l-9 0c-17,81 73,98 102,55 14,-21 14,-31 9,-55z"/>
   <path class="fil2" d="M722 386c18,-15 11,-9 31,-17 13,-5 8,-25 -9,-26 -31,-3 -58,37 -23,43z"/>
   <path class="fil14" d="M696 386c-23,9 -20,63 7,57 17,-4 6,-20 9,-36 1,-7 5,-10 2,-16 -4,-6 -11,-8 -17,-6z"/>
   <path class="fil3" d="M99 924l58 0c-2,-5 -8,-11 -11,-16 -4,-7 -5,-12 -9,-18 -28,-8 -41,7 -38,34z"/>
   <path class="fil2" d="M816 393c-18,7 -5,17 -9,36 -2,7 -5,10 -1,15 4,5 12,7 19,4 23,-11 14,-64 -8,-56z"/>
   <path class="fil2" d="M713 446c-31,7 0,51 29,44 7,-2 12,-6 12,-14 0,-11 -4,-10 -12,-13 -13,-5 -20,-19 -28,-18z"/>
   <path class="fil10" d="M801 391c37,-5 9,-45 -18,-46 -16,0 -27,19 -12,26 16,7 17,7 29,20z"/>
   <path class="fil5" d="M555 0l-9 0c27,87 -108,75 -75,0l-9 0c-4,19 -6,32 6,49 19,27 60,30 83,0 12,-15 10,-31 6,-49z"/>
   <path class="fil2" d="M796 451c-29,20 -24,11 -32,16 -10,7 -4,25 14,25 13,0 24,-7 32,-17 9,-13 -2,-33 -14,-24z"/>
   <path class="fil5" d="M729 51c40,-15 62,47 22,62 -39,15 -67,-45 -22,-62zm-28 41c13,50 88,32 77,-19 -11,-51 -91,-33 -77,19z"/>
   <path class="fil1" d="M610 512c-2,-23 -43,-49 -55,-37 -9,9 3,27 12,32 13,7 28,6 43,6z"/>
   <path class="fil5" d="M274 325c33,-15 53,38 19,50 -31,11 -54,-34 -19,-50zm-25 28c4,45 75,39 69,-8 -5,-44 -73,-37 -69,8z"/>
   <path class="fil15" d="M527 248c-33,9 5,37 37,29 32,-9 -5,-38 -37,-29z"/>
   <path class="fil2" d="M564 193c-18,8 5,64 24,57 18,-7 -5,-66 -24,-57z"/>
   <path class="fil15" d="M634 204c-28,12 -41,61 -12,49 25,-10 43,-62 12,-49z"/>
   <path class="fil2" d="M575 284c-28,8 -47,59 -18,51 26,-7 44,-58 18,-51z"/>
   <path class="fil2" d="M602 290c-16,14 10,64 26,55 19,-11 -9,-69 -26,-55z"/>
   <path class="fil2" d="M633 261c-39,8 -2,37 31,30 34,-7 2,-37 -31,-30z"/>
   <path class="fil3" d="M248 525c7,-8 9,-15 23,-13 11,2 16,10 17,20 10,1 20,2 23,14 4,13 -3,18 -10,26 6,8 7,17 0,25 -8,10 -17,7 -27,5 -13,21 -35,17 -39,-8 -26,-2 -33,-21 -14,-39 -13,-19 2,-38 26,-31zm-2 -5c-10,-2 -21,-2 -28,8 -8,11 -4,17 -2,28 -17,16 -8,41 16,43 6,24 31,28 45,9 25,3 39,-9 31,-35 6,-10 13,-14 7,-29 -4,-11 -12,-13 -23,-15 -9,-26 -28,-25 -46,-8z"/>
   <path class="fil5" d="M702 673c-8,23 -44,10 -35,-13 8,-22 43,-9 35,13zm-27 -33c-34,12 -17,65 19,53 34,-11 17,-65 -19,-53z"/>
   <path class="fil1" d="M18 897c23,-13 43,-33 26,-62 -22,8 -35,39 -26,62z"/>
   <path class="fil3" d="M33 721c9,-34 -16,-58 -26,-22 -9,34 16,59 26,22z"/>
   <path class="fil8" d="M40 684c8,22 55,39 49,13 -6,-22 -59,-43 -49,-13z"/>
   <path class="fil3" d="M26 586c-19,8 -17,64 3,57 19,-7 17,-65 -3,-57z"/>
   <path class="fil3" d="M72 625c-36,11 -43,43 -7,33 34,-9 42,-44 7,-33z"/>
   <path class="fil14" d="M388 172c12,-38 30,-4 31,-3 18,-7 31,5 16,25 16,17 11,30 -12,27 -3,8 -4,18 -15,18 -10,0 -12,-8 -16,-14 -10,2 -16,5 -22,-4 -3,-10 0,-13 5,-21 -14,-18 -14,-29 13,-27zm-3 -5c-39,0 -17,32 -17,33 1,6 -7,12 -2,22 5,9 16,8 25,8 11,20 28,16 36,-4 36,-1 20,-24 16,-34 13,-20 0,-31 -21,-28 -5,-7 -8,-14 -19,-14 -11,1 -14,8 -17,17z"/>
   <path class="fil1" d="M320 115c11,17 43,27 60,12 -2,-13 -9,-22 -23,-23 -11,-1 -30,4 -37,10z"/>
   <path class="fil3" d="M713 87c-6,-36 46,-43 52,-10 6,36 -47,43 -52,10zm16 -36c-44,17 -17,77 22,62 40,-15 18,-77 -22,-62z"/>
   <path class="fil3" d="M268 0l-97 0c17,23 80,23 97,0z"/>
   <path class="fil1" d="M136 324c18,14 39,31 56,5 -10,-24 -41,-24 -56,-5z"/>
   <path class="fil3" d="M924 687l0 -22c-18,-2 -56,13 -45,32 16,10 33,-3 45,-10z"/>
   <path class="fil3" d="M342 0l-62 0c8,42 49,30 62,0z"/>
   <path class="fil3" d="M924 655l0 -27c-9,-9 -27,-19 -39,-12 -11,18 22,38 39,39z"/>
   <path class="fil1" d="M621 882c21,2 44,-23 45,-43 -23,2 -52,15 -45,43z"/>
   <path class="fil5" d="M826 798c41,-9 57,56 14,65 -43,9 -57,-56 -14,-65zm-32 37c3,49 81,44 77,-7 -4,-48 -80,-47 -77,7z"/>
   <path class="fil2" d="M61 211c10,-23 -24,-38 -35,-16 -11,23 24,39 35,16z"/>
   <path class="fil3" d="M702 673c8,-23 -26,-36 -35,-13 -9,24 26,37 35,13z"/>
   <path class="fil3" d="M828 804c35,-7 46,48 10,55 -36,7 -47,-47 -10,-55zm-2 -5c-44,10 -30,75 14,65 44,-9 28,-75 -14,-65z"/>
   <path class="fil2" d="M324 394c5,-10 -3,-24 -13,-17 -21,15 -20,7 -25,12 -17,16 24,32 39,5z"/>
   <path class="fil1" d="M380 613c6,-22 -14,-44 -36,-43 1,8 6,22 10,30 6,13 12,14 26,13z"/>
   <path class="fil2" d="M250 370c-28,0 -11,35 13,36 12,1 22,-14 10,-20 -16,-8 -10,-5 -23,-16z"/>
   <path class="fil5" d="M327 332c-11,5 -2,14 -6,28 -2,6 -5,9 1,14 4,4 10,4 14,1 18,-10 11,-52 -9,-43z"/>
   <path class="fil3" d="M76 275c46,27 82,-36 45,-62 -7,15 16,27 -1,49 -17,22 -34,-1 -44,13z"/>
   <path class="fil10" d="M316 329c31,1 10,-36 -12,-36 -12,0 -20,13 -10,19 13,8 11,3 22,17z"/>
   <path class="fil5" d="M734 64c25,-8 35,31 12,38 -26,8 -38,-29 -12,-38zm-21 23c5,33 58,26 52,-10 -6,-33 -57,-26 -52,10z"/>
   <path class="fil3" d="M89 141c-2,-59 -73,-52 -76,-8 16,-3 8,-6 17,-16 12,-13 35,-11 45,4 8,12 -2,12 14,20z"/>
   <path class="fil2" d="M232 325c-21,15 -8,52 10,41 7,-4 1,-16 4,-28 5,-19 -9,-18 -15,-13z"/>
   <path class="fil3" d="M424 465c-21,8 -9,41 14,32 19,-7 9,-41 -14,-32z"/>
   <path class="fil2" d="M264 291c-33,7 -24,44 -4,29 10,-8 23,-6 25,-14 3,-12 -11,-16 -21,-14z"/>
   <path class="fil3" d="M89 141c12,12 8,5 23,7 17,3 27,23 20,40 -6,13 -12,6 -11,22 32,-5 37,-84 -32,-69z"/>
   <path class="fil3" d="M0 286c12,14 17,25 40,23 17,-2 33,-16 33,-33 -15,2 -7,5 -16,15 -13,15 -36,11 -45,-2 -7,-11 0,-14 -13,-20l0 18z"/>
   <path class="fil10" d="M500 5c-19,10 -6,40 15,30 19,-9 5,-40 -15,-30z"/>
   <path class="fil1" d="M924 65l0 -65 -31 0c17,23 33,38 21,69l10 -4z"/>
   <path class="fil3" d="M391 176c0,-7 1,-18 10,-19 11,-2 14,9 14,17 6,-6 15,-6 22,-3 4,8 1,19 -8,23 11,2 15,12 11,22 -5,2 -18,5 -22,-1 5,20 -16,35 -23,4 -8,3 -12,7 -22,1 -4,-9 0,-18 8,-22 -14,1 -20,-34 10,-22zm-3 -5c-27,-2 -27,10 -13,27 -5,7 -8,11 -5,21 7,9 13,6 22,4 4,6 6,15 16,14 11,0 11,-10 15,-18 23,3 28,-10 12,-27 15,-20 2,-32 -16,-25 -1,-1 -19,-36 -31,3z"/>
   <path class="fil16" d="M451 775c4,27 24,13 20,-14 -4,-26 -25,-14 -20,14z"/>
   <path class="fil10" d="M412 704c-9,10 26,33 35,23 10,-11 -26,-34 -35,-23z"/>
   <path class="fil1" d="M151 657c18,0 34,-17 36,-34 -19,1 -39,11 -36,34z"/>
   <path class="fil5" d="M448 748c11,-20 -28,-12 -35,4 -9,21 26,11 35,-4z"/>
   <path class="fil17" d="M851 924l41 0 -21 -30c-10,4 -17,19 -20,30z"/>
   <path class="fil3" d="M734 71c14,-8 27,16 12,23 -16,8 -29,-14 -12,-23zm0 -7c-26,8 -14,45 12,38 23,-7 14,-46 -12,-38z"/>
   <path class="fil14" d="M456 678c-10,8 -7,47 8,38 13,-7 7,-51 -8,-38z"/>
   <path class="fil2" d="M473 738c-5,19 30,32 36,23 7,-11 -19,-29 -36,-23z"/>
   <path class="fil2" d="M509 703c-17,-7 -44,14 -35,24 8,8 41,-7 35,-24z"/>
   <path class="fil5" d="M754 405c-20,8 -5,34 12,26 14,-7 7,-34 -12,-26z"/>
   <path class="fil3" d="M79 437c2,17 29,16 28,-3 -1,-20 -31,-17 -28,3z"/>
   <path class="fil14" d="M734 71c-17,10 -4,31 12,23 15,-7 2,-32 -12,-23z"/>
   <path class="fil12" d="M823 206c9,-19 -12,-26 -27,-29 1,13 13,35 27,29z"/>
   <path class="fil1" d="M246 446c6,5 13,10 21,11 13,2 13,-3 19,-11 -11,-11 -29,-11 -40,0z"/>
   <path class="fil1" d="M409 854c15,3 26,-9 28,-23 -17,-3 -33,1 -28,23z"/>
   <path class="fil1" d="M614 423c2,-20 -13,-22 -29,-20 3,13 15,22 29,20z"/>
   <path class="fil18" d="M235 626c-7,5 -9,12 -5,20 1,2 11,13 13,14 8,-12 4,-28 -8,-34z"/>
   <path class="fil5" d="M279 360c21,2 20,-18 8,-22 -13,-4 -21,12 -8,22z"/>
   <path class="fil3" d="M837 842c13,-10 4,-24 -8,-21 -11,3 -12,23 8,21z"/>
   <path class="fil1" d="M477 628c-2,14 10,20 23,18 3,-10 -9,-23 -23,-18z"/>
  </g>
 </g>
</svg>
