<?xml version="1.0" encoding="UTF-8"?>
<!DOCTYPE svg PUBLIC "-//W3C//DTD SVG 1.1//EN" "http://www.w3.org/Graphics/SVG/1.1/DTD/svg11.dtd">
<!-- Creator: CorelDRAW X6 -->
<svg xmlns="http://www.w3.org/2000/svg" xml:space="preserve" width="368px" height="245px" version="1.1" style="shape-rendering:geometricPrecision; text-rendering:geometricPrecision; image-rendering:optimizeQuality; fill-rule:evenodd; clip-rule:evenodd"
viewBox="0 0 133 89"
 xmlns:xlink="http://www.w3.org/1999/xlink">
 <defs>
  <style type="text/css">
   <![CDATA[
    .str0 {stroke:lime;stroke-width:0.0373995}
    .str1 {stroke:black;stroke-width:0.0981615}
    .str3 {stroke:lime;stroke-width:0.0981615}
    .str2 {stroke:#959595;stroke-width:0.0981615}
    .fil1 {fill:#000}
    .fil2 {fill:#959595}
    .fil0 {fill:lime;fill-rule:nonzero}
   ]]>
  </style>
 </defs>
 <g id="Layer_x0020_1">
  <metadata id="CorelCorpID_0Corel-Layer"/>
  <path class="fil0 str0" d="M128 19c0,0 0,0 0,0 0,0 0,0 0,0 0,0 0,0 0,0 0,0 0,0 0,0zm1 0c0,0 0,0 0,0 0,0 0,0 0,0 0,0 0,0 0,0 0,0 0,0 0,0zm1 1c0,0 0,0 0,0 0,0 0,0 0,0 0,0 0,0 0,0 0,0 0,0 0,0zm0 1c0,0 0,0 0,0 0,0 0,0 0,0 0,0 0,0 0,0 0,0 0,0 0,0zm-1 -2c0,0 0,0 1,1 0,0 1,1 1,1 0,0 1,-1 1,-1 0,0 -1,0 -1,-1 0,0 0,0 1,0 0,0 1,0 1,-1 0,0 -1,-1 -2,0 0,0 -1,1 -1,1z"/>
  <path class="fil0 str0" d="M128 63c0,0 0,0 0,0 0,0 0,0 0,0 0,0 0,0 0,0 0,0 0,0 0,0zm1 0c0,0 0,0 0,0 0,0 0,0 0,0 0,0 0,0 0,0 0,0 0,0 0,0zm1 1c0,0 0,0 0,0 0,0 0,0 0,0 0,0 0,0 0,0 0,0 0,0 0,0zm0 1c0,0 0,0 0,0 0,0 0,0 0,0 0,0 0,0 0,0 0,0 0,0 0,0zm-1 -2c0,0 0,0 1,1 0,0 1,1 1,1 0,0 1,-1 1,-1 0,0 -1,0 -1,-1 0,0 0,0 1,0 0,0 1,0 1,-1 0,0 -1,-1 -2,0 0,0 -1,1 -1,1z"/>
  <polygon class="fil1 str1" points="0,0 133,0 133,89 0,89 "/>
  <rect class="fil2 str2" y="1" width="31" height="21"/>
  <rect class="fil2 str2" y="45" width="31" height="21"/>
  <rect class="fil2 str3" x="33" y="1" width="66" height="21"/>
  <polygon class="fil2 str3" points="33,45 99,45 99,62 97,64 98,66 97,66 33,66 "/>
  <rect class="fil2 str2" x="100" y="1" width="33" height="21"/>
  <rect class="fil2 str2" x="100" y="45" width="33" height="21"/>
  <polygon class="fil2 str3" points="67,24 69,23 133,23 133,44 67,44 67,25 "/>
  <polygon class="fil2 str3" points="66,67 69,67 132,67 132,88 66,88 66,69 "/>
  <rect class="fil2 str3" y="23" width="66" height="21"/>
  <polygon class="fil2 str3" points="0,67 28,67 31,69 32,67 66,67 66,89 0,89 "/>
  <path class="fil1 str3" d="M31 22c1,0 1,-1 1,0 0,1 0,3 -1,3 -1,0 1,-3 -2,-3 -3,0 0,0 1,0z"/>
  <path class="fil1 str3" d="M111 44c-1,0 -1,-1 -1,0 0,1 0,3 1,3 1,0 -1,-3 2,-3 3,0 0,0 -1,0z"/>
 </g>
</svg>
