<?xml version="1.0" encoding="UTF-8"?>
<!DOCTYPE svg PUBLIC "-//W3C//DTD SVG 1.1//EN" "http://www.w3.org/Graphics/SVG/1.1/DTD/svg11.dtd">
<!-- Creator: CorelDRAW X6 -->
<svg xmlns="http://www.w3.org/2000/svg" xml:space="preserve" width="318px" height="245px" version="1.1" style="shape-rendering:geometricPrecision; text-rendering:geometricPrecision; image-rendering:optimizeQuality; fill-rule:evenodd; clip-rule:evenodd"
viewBox="0 0 109 154"
 xmlns:xlink="http://www.w3.org/1999/xlink">
 <defs>
  <style type="text/css">
   <![CDATA[
    .str0 {stroke:black;stroke-width:0.0737828}
    .str3 {stroke:gray;stroke-width:0.0737828}
    .str2 {stroke:#999999;stroke-width:0.0737828}
    .str1 {stroke:#A2A31C;stroke-width:0.0737828}
    .str4 {stroke:white;stroke-width:0.0737828}
    .fil0 {fill:black}
    .fil1 {fill:#4E6C2B}
    .fil3 {fill:gray}
    .fil2 {fill:gold}
    .fil4 {fill:white}
   ]]>
  </style>
 </defs>
 <g id="Layer_x00">
 <animateTransform attributeName="transform" begin = "0" type="translate" values = "0,-310" dur="1s"/>
 <g id="Layer_x002">
 <animateTransform attributeName="transform" begin = "2;" type="scale" values = "1;.95;1" dur="3s"  repeatCount="indefinite"/>
 <g id="Layer_x0020">

 <g id="Layer_x0020_1" transform="translate(0)">
   <animateTransform attributeName="transform" begin = "1;" type="translate" values = "0,-310;0,30;0,0" dur="1s"/>
   
  <path class="fil0 str0" d="M79 69c1,1 1,2 1,4 -2,4 -12,4 -15,2 -2,0 -1,0 -2,-1 4,2 8,3 13,3 5,-1 9,-3 4,-8 -1,-2 -5,-5 -7,-6 2,2 6,4 7,6z"/>
  <path class="fil1 str1" d="M18 58c2,0 2,1 0,1l0 -1z"/>
  <path class="fil1 str1" d="M63 55l3 1 1 1c-1,-1 -2,-2 -4,-1l0 0z"/>
  <path class="fil1 str1" d="M54 27l2 3c-1,-1 -1,-2 -2,-3z"/>
  <path class="fil2 str2" transform="translate(2,2) rotate(-2)" d="M3 50c-5,8 2,14 7,20 7,7 17,12 27,13 11,0 23,-10 24,-9l1 1c1,0 0,1 2,1 1,0 10,3 14,-1 1,-1 1,-3 0,-4 -1,-7 -13,-6 -6,-13 1,2 7,7 9,7 1,0 12,4 18,0 0,-9 -2,-9 -2,-12 0,-2 -3,-5 -4,-6 -2,-2 -5,-3 -7,-4 3,-2 10,-5 10,-9l0 0 2 -6c-1,-2 0,-7 1,-9 1,-2 3,-4 5,-5 -3,-1 -8,-1 -11,0 -3,0 -8,3 -9,3 -1,0 -4,3 -10,7 -8,6 -33,-15 -46,6 -3,0 -3,1 -5,2 -7,2 -9,8 -9,10 0,1 1,1 1,0 -2,9 -9,8 -12,10z"/>
  <path class="fil1 str1" d="M17 55c0,1 0,1 0,2 -1,0 -1,0 -2,0l0 -2 2 0z"/>
  <path class="fil1 str1" d="M21 54c-1,-1 0,-1 0,-1 1,-1 2,0 1,1 0,0 -1,0 -1,0z"/>
  <path class="fil1 str1" d="M16 53c-1,0 -1,0 -1,0 0,0 1,-2 1,0z"/>
  <path class="fil1 str1" d="M11 52c-1,0 -1,0 -1,-1 0,0 1,0 1,0l0 1z"/>
  <path class="fil3 str3" transform="translate(3,1)" d="M62 24c1,-1 3,-1 4,-1 2,10 2,15 12,22 3,-3 3,-18 0,-21 -2,-2 -8,-4 -9,-5 -1,-2 -1,-6 -4,-9 -8,-11 -28,4 -37,-3 -2,-2 -2,-3 -3,-4 -6,20 26,21 37,21z"/>
  <path class="fil0 str0" d="M96 31c0,4 -6,8 -10,9 2,1 5,3 7,4 1,1 4,5 4,6 2,3 3,9 3,13 -5,3 -14,2 -18,-1 -3,0 -8,-5 -9,-7l-3 4c-1,-1 -2,-1 -2,-1 -2,-1 -1,0 -1,-2 0,-1 0,-2 0,-3l-1 -7 -3 -7c1,3 2,4 3,8 1,3 2,7 0,10l-1 -1 -3 -1 0 0c3,0 7,5 10,6l-2 -2 3 -4c1,1 3,3 4,4 2,2 3,2 5,3 5,2 15,4 19,0 1,-5 -1,-11 -4,-15 -4,-7 -8,-8 -9,-9 2,-2 8,-5 8,-10l-2 0z"/>
  <path class="fil0 str0" d="M28 14l-1 -2c-2,-2 -2,-6 -1,-8 1,1 1,2 3,4 9,7 29,-8 37,3 2,3 3,8 4,9 0,1 7,3 9,5 4,3 3,18 0,21l-2 -2c-3,-3 -5,-6 -7,-10l3 5 4 6 3 3c2,-5 4,-16 2,-21 -1,-3 -2,-2 -4,-4 1,-2 7,-8 9,-8 5,-4 15,-6 22,-4 -2,2 -3,3 -5,5 -2,3 -2,5 -2,9l-2 6c3,-1 2,-2 3,-5 0,-2 0,-5 1,-7 1,-4 5,-6 8,-9 -6,-4 -21,0 -28,6 -3,2 -4,4 -6,6 -5,-2 -5,-1 -6,-6 -1,-3 -2,-6 -5,-8 -5,-4 -11,-2 -16,-1 -1,0 -5,0 -5,0l3 1c-4,2 -6,0 -10,1l3 0c-3,2 -7,0 -9,-1 -3,-2 -4,-6 -5,-6 -2,3 -1,13 2,14 1,3 5,5 7,6 0,0 -3,3 -4,4 -1,1 -3,3 -3,4 -4,0 -7,1 -10,4 -2,2 -5,6 -4,9l2 -1 0 1 -3 6 -11 2 0 0c-5,15 34,54 62,24 -1,-1 -13,9 -24,9 -6,0 -22,-5 -26,-10 -1,-1 -3,-2 -4,-4 -3,-1 -8,-11 -5,-18 7,-2 19,-2 25,1l8 3 -10 -5c-1,0 -5,-1 -7,-1 -3,-1 -5,0 -7,-1 1,-3 2,-4 2,-6 1,-1 0,-1 2,-1 1,1 1,1 1,2 1,1 0,1 1,1 -1,-1 -1,-2 -2,-3 2,-1 5,-1 7,-1 3,0 1,3 5,0l3 1c0,3 -4,6 -7,5 -3,0 -4,-1 -6,-2 0,1 0,1 2,2 1,1 2,0 3,1 3,-1 6,0 8,-3 1,-1 1,-1 2,-2l-1 -3c-1,1 0,1 -2,0 -1,0 -1,0 -2,0 -1,0 -3,0 -4,-1l-6 0 -4 1 -1 0c0,-3 4,-8 7,-9 0,-1 0,0 1,-1 0,0 1,0 2,0 1,0 2,0 3,0l4 1 1 1 1 -1c-2,-1 -4,-1 -5,-2 1,-2 4,-5 6,-6 1,-1 2,-1 2,-1 -1,0 -4,-2 -5,-2 -1,-1 -2,-1 -2,-2 -1,-1 0,-1 -2,-2z"/>
  <path class="fil0 str0" transform="translate(1,3)" d="M38 25c2,-1 7,-2 8,-1 6,2 9,5 10,12l-1 -1c-2,0 -5,-2 -8,-2 -2,0 -8,0 -10,0l-5 1 0 0 7 -1 4 0c0,2 -1,2 1,4 2,0 3,0 3,-2 -2,1 -2,1 -2,-1 2,0 5,1 6,2l3 1c0,5 -5,9 -10,9 -2,0 -4,0 -6,-1l-1 -1c1,1 1,1 2,2 3,1 6,1 10,0 3,-1 5,-4 6,-5l1 -3 2 1c0,-2 0,-5 -1,-7 -1,-2 -2,-4 -3,-5 0,0 -5,-3 -5,-3l-1 0c-4,-1 -10,0 -13,3l3 -2z">
	  <!--animateTransform attributeName = "transform" attributeType="XML" type = "scale" begin = "0" dur = "1.3s" repeatCount="indefinite" values = "1.1;1.1;1.1;1.1;1.1;1.2;1.1;1"/-->
  </path>
  <path class="fil4 str4" transform="translate(3,3)" d="M19 42l0 0c2,1 3,2 6,2 3,0 7,-2 7,-5l-3 -1c-4,2 -2,0 -5,0 -2,0 -5,0 -7,1 0,1 1,2 2,3z"/>
  <path class="fil4 str4" transform="translate(1,3)" d="M33 36l0 2 1 3c0,0 3,3 3,4l1 1c2,1 4,1 6,1 5,-1 10,-4 10,-9l-3 -1c-1,-1 -5,-2 -6,-2 0,2 1,2 2,1 0,2 -1,2 -3,2 -2,-2 -1,-2 -1,-4l-4 0 -7 1z">
  <!--animateTransform attributeName = "transform" attributeType="XML" type = "scale" begin = "0" dur = "1.3s" repeatCount="indefinite" values = "1.1;1.1;1.1;1.1;1.1;1.2;1.1;1"/-->
  </path>
  <path class="fil1 str1" d="M65 74c3,2 13,3 15,-2 0,-2 0,-2 -1,-4 0,2 1,3 0,4 -4,4 -13,1 -14,1z"/>
  <path class="fil1 str1" d="M83 63c4,3 13,3 18,1 0,-4 -1,-10 -3,-13 0,3 2,3 2,12 -6,4 -16,0 -18,0z"/>
  <path class="fil1 str1" d="M84 14c1,0 6,-3 9,-3 3,-1 8,-1 11,0 -2,2 -4,3 -5,5 -1,2 -2,7 -1,9 0,-4 0,-6 2,-9 2,-3 3,-3 5,-5 -6,-2 -16,0 -22,4z"/>
  <path class="fil1 str1" d="M8 67c-1,-2 -3,-4 -4,-7 -1,-3 -1,-6 0,-10 8,-3 15,-1 23,0l1 0c-6,-3 -18,-3 -25,-1 -2,7 3,16 5,18z"/>
  <path class="fil1 str1" d="M12 71c0,-1 -1,-1 -2,-2 -1,-1 -1,-2 -2,-2 1,2 2,3 4,4z"/>
  <path class="fil1 str1" d="M50 26c3,2 6,5 6,9l1 1c-1,-6 -4,-10 -10,-12 1,1 2,1 3,2z"/>
  <path class="fil1 str1" d="M17 51c0,1 1,1 1,0l-1 0z"/>
  <path class="fil1 str1" d="M15 53c1,0 0,0 1,0 0,-3 -1,0 -1,0z"/>
  <path class="fil1 str1" d="M18 59c2,0 2,-1 0,-1l0 1z"/>
  <path class="fil1 str1" d="M10 51c0,1 0,1 1,1l0 -1c-1,0 -1,0 -1,0z"/>
  <path class="fil1 str1" d="M21 53c0,0 -1,0 0,1 0,0 1,0 1,0 1,-1 0,-2 -1,-1z"/>
  <path class="fil1 str1" d="M14 55l0 2c1,1 1,1 2,0 0,-1 0,-1 0,-2l-2 0z"/>
  <path class="fil4 str0" d="M16 71l34 -8c-5,0 -18,17 -30,10 -1,0 -3,-2 -4,-1z">
	<animate attributeName = "d" begin = "0" dur = "1s" repeatCount="indefinite"
							values = "M16 71l24 0c-5,0 -8,8 -21,1 -1,0 -3,-2 -4,-1z;
							M16 71l24 0c-5,0 -8,8 -21,1 -1,0 -3,-2 -4,-1z;
							M16 71l24 0c-5,0 -8,8 -21,1 -1,0 -3,-2 -4,-1z;
							M16 71l34 -8c-5,0 -18,17 -30,10 -1,0 -3,-2 -4,-1z;
										M16 71l24 0c-5,0 -8,8 -21,1 -1,0 -3,-2 -4,-1z;
										M16 71l34 -8c-5,0 -18,17 -30,10 -1,0 -3,-2 -4,-1z;
										M16 71l24 0c-5,0 -8,8 -21,1 -1,0 -3,-2 -4,-1z
									"/>
		</path>	
 </g>
  </g>
   </g>
    </g>
</svg>
