<?xml version="1.0" encoding="UTF-8"?>
<!DOCTYPE svg PUBLIC "-//W3C//DTD SVG 1.1//EN" "http://www.w3.org/Graphics/SVG/1.1/DTD/svg11.dtd">
<!-- Creator: CorelDRAW X6 -->
<svg xmlns="http://www.w3.org/2000/svg" xml:space="preserve" width="194px" height="269px" version="1.1" style="shape-rendering:geometricPrecision; text-rendering:geometricPrecision; image-rendering:optimizeQuality; fill-rule:evenodd; clip-rule:evenodd"
viewBox="0 0 3385 4683"
 xmlns:xlink="http://www.w3.org/1999/xlink">
 <defs>
  <style type="text/css">
   <![CDATA[
    .fil0 {fill:#050606}/*contur*/
    .fil3 {fill:#2C323D}
    .fil1 {fill:#747F9B}/*body*/
    .fil4 {fill:#94C1D9} /*wings dot*/
    .fil2 {fill:#E3F2FE} /*eyes & wings*/
	
	#r_eye:hover{fill:#baba00}
	 
	 .str0 {stroke:#A25D01;stroke-width:44.0225}
    .fil10 {fill:#CC9933;fill-rule:nonzero}
	.text {font:30em/100% arial; stroke:none; fill:#fff}
	#text{
	-webkit-transition: all 1s;
	-moz-transition: prop time;
	-ms-transition: prop time;
	-o-transition: prop time;
	transition: prop time;
	-webkit-transform: scale(0);
	-moz-transform: scale(x, y);
	-ms-transform: scale(x, y);
	-o-transform: scale(x, y);
	transform: scale(x, y);}
	
	#Layer_x0020_1:hover~#text{-webkit-transform: scale(1);
	-moz-transform: scale(x, y);
	-ms-transform: scale(x, y);
	-o-transform: scale(x, y);
	transform: scale(x, y);}
	
	/*-webkit-animation: identifier 1s linear;
	-o-animation: name duration timing-function delay iteration-count direction fill-mode;
	animation: name duration timing-function delay iteration-count direction fill-mode;}
	@-webkit-keyframes identifier {
		from { -webkit-transform: scale(0);
		-moz-transform: scale(x, y);
		-ms-transform: scale(x, y);
		-o-transform: scale(x, y);
		transform: scale(x, y); }
		to { -webkit-transform: scale(1);
		-moz-transform: scale(x, y);
		-ms-transform: scale(x, y);
		-o-transform: scale(x, y);
		transform: scale(x, y); }
	}
	@-o-keyframes identifier {
		from {  }
		to {  }
	}
	@-moz-keyframes identifier {
		from {  }
		to {  }
	}
	@keyframes identifier {
		from {  }
		to {  }
	}*/
   ]]>
  </style>
 </defs>
 <g id="Layer_x0020_1">
  <metadata id="CorelCorpID_0Corel-Layer"/>
  <g id="_577589920">
  
   <path class="fil0" d="M1629 2197l32 -52 40 -36c600,-296 1109,-234 758,534 -238,519 -1166,439 -979,-156 39,-180 -123,126 -31,354 58,145 195,234 354,242 435,23 188,-242 871,-159l18 158 23 -110c169,-249 637,-373 671,-759l0 -91c-4,-44 -12,-92 -28,-143 -183,-619 -950,-98 -1146,-197 -3,-313 1570,-1090 555,-1738 -579,-369 -952,1692 -1226,1697l-63 19 -455 -1477c-248,-2 -1184,1560 -997,1945l763 39 -241 411c558,906 -329,629 -450,857l35 73 703 -338 92 401 -384 321 87 69 433 -603 697 262 -71 277c82,3 360,-15 407,35l-331 622 55 29 6 0 368 -695 -50 -45 -374 -12c-70,-216 368,-300 464,-363 316,-206 165,-211 571,-47l-251 622c58,60 183,87 263,116l17 -39 -197 -119c36,-78 277,-564 264,-607l-358 -171 120 -223c-102,-276 -575,-81 -487,221l292 -32c-30,466 -1256,409 -1693,-295 -422,-680 564,-1395 1248,-1157l-394 360zm1047 -444c664,-129 943,673 179,1025 -677,311 -307,-204 -278,-347 104,-512 -320,-596 100,-678zm-1767 -1129c11,12 263,846 310,969 101,260 147,195 -110,343 -222,128 -272,120 -526,119 -550,-2 -454,-182 -184,-672 53,-97 454,-742 510,-759zm1554 419c-9,-78 -2,-80 24,-152l100 66c-16,84 -39,99 -123,86zm452 -364c-81,153 -1430,1802 -975,696 123,-299 290,-613 435,-906 322,-651 562,168 540,210zm-468 159c-172,566 506,92 0,0zm-2363 1277c-98,-407 430,-1204 682,-1531 59,-76 221,-367 263,-90 25,164 42,307 89,468 40,135 307,758 261,827 -75,-22 -219,-485 -256,-588 -92,-256 -121,-438 -153,-704 -166,13 -882,1217 -817,1584l743 8c-79,120 -273,51 -401,54 -169,4 -245,40 -412,-28zm1580 -375c63,-252 319,-765 444,-1015 114,-228 341,-897 672,-537 398,433 320,482 -9,887 -106,131 -226,266 -342,389 -72,76 -279,355 -379,259 0,0 331,-331 370,-373 180,-194 332,-396 494,-603 91,-116 94,-110 24,-248 -68,-133 -206,-342 -367,-357 -150,79 -398,610 -469,784 -59,145 -123,297 -188,439 -56,125 -96,361 -251,373z"/>
   <path class="fil1" d="M1405 3179c33,237 -198,274 -285,124 -49,-84 -3,-139 84,-166 105,-33 124,-11 201,42zm68 -63c39,-45 94,-41 156,-14l-10 110c-65,16 -73,22 -143,-3l-3 -93zm-270 -94c137,-82 211,137 -8,88l8 -88zm1461 77l28 -17 -18 -158c-682,-83 -436,182 -871,159 -159,-8 -296,-98 -354,-242 -91,-229 70,-535 31,-354l149 -290 394 -360c-684,-238 -1671,477 -1248,1157 437,704 1663,761 1693,295l-292 32c-88,-303 385,-497 487,-221zm-963 -990l-40 36 40 -36z"/>
   <!--right eye--> <path class="fil2" id="r_eye" d="M2037 2245c-14,80 21,-26 -70,98 -152,209 -258,114 -235,-23 26,-154 287,-418 302,-122 -60,20 -57,-33 -92,46 56,40 43,35 95,1zm-336 -136l-40 36 -32 52 -149 290c-187,595 741,675 979,156 351,-768 -158,-830 -758,-534z">
   
   <animateTransform
            attributeName="transform"
            begin="0s"
            dur=".1s"
            type="translate"
            from="0 0"
            to="0 40"
            repeatCount="indefinite" 
        />
</path>
   
   <!--left eye--><path class="fil2" d="M2974 1830l32 101 102 20 -7 119c-165,38 -302,-36 -274,-223l146 -16zm-298 -76c-420,82 4,166 -100,678 -29,142 -399,658 278,347 765,-352 485,-1154 -179,-1025z">
   <animateTransform
            attributeName="transform"
            begin="0s"
            dur=".1s"
            type="translate"
            from="0 0"
            to="0 40"
            repeatCount="indefinite" 
        />
</path>
   <!--left wing--><path class="fil2" d="M1663 1740c154,-12 194,-248 251,-373 64,-142 128,-294 188,-439 71,-174 319,-705 469,-784 161,15 299,224 367,357 70,137 67,132 -24,248 -161,206 -314,409 -494,603 -39,42 -370,372 -370,373 100,96 307,-183 379,-259 116,-122 236,-258 342,-389 329,-405 406,-454 9,-887 -331,-361 -558,308 -672,537 -125,250 -381,762 -444,1015z"/>
   <!--right wing--><path class="fil2" d="M83 2115c167,68 243,32 412,28 128,-3 322,66 401,-54l-743 -8c-65,-367 651,-1571 817,-1584 32,266 60,448 153,704 37,103 182,566 256,588 46,-69 -222,-692 -261,-827 -47,-161 -64,-304 -89,-468 -42,-277 -204,14 -263,90 -252,327 -780,1124 -682,1531z"/>
   <path class="fil0" d="M2037 2245c-52,34 -39,39 -95,-1 35,-80 32,-26 92,-46 -15,-295 -276,-32 -302,122 -23,137 83,232 235,23 90,-124 56,-19 70,-98z"/>
   <path class="fil3" d="M1405 3179c-78,-53 -97,-74 -201,-42 -86,27 -132,81 -84,166 87,150 318,113 285,-124z"/>
   <path class="fil0" d="M2828 1846c-28,187 109,261 274,223l7 -119 -102 -20 -32 -101 -146 16z"/>
   <path class="fil0" d="M759 1196c-2,-54 6,-74 20,-127 23,-85 4,-72 83,-81 31,54 32,142 30,214l-133 -6zm-74 25c55,30 179,48 250,21 23,-58 21,-159 4,-222 -23,-81 -91,-81 -164,-94 -32,114 -84,150 -89,295z"/>
   <path class="fil0" d="M1066 1667l-66 21c-30,-42 -35,-85 -53,-138 -87,-261 132,-47 119,118zm-201 -235l97 325c89,-12 107,-25 172,-88 -12,-102 -86,-229 -152,-313 -51,30 -63,24 -117,76z"/>
   <path class="fil0" d="M2708 619l-22 110c-62,-2 -130,-14 -172,-50l22 -69 172 9zm-260 90c74,58 175,78 274,74l59 -203c-104,-7 -167,-20 -267,-23l-65 152z"/>
   <path class="fil3" d="M602 1495c57,4 158,17 203,17 9,-120 -45,-195 -168,-186 -27,44 -40,107 -35,168z"/>
   <path class="fil4" d="M759 1196l133 6c2,-72 1,-160 -30,-214 -79,9 -60,-4 -83,81 -14,53 -23,73 -20,127z"/>
   <path class="fil0" d="M2187 1042l121 20c26,-45 42,-101 21,-162l-125 -13c-26,76 -24,74 -18,155z"/>
   <path class="fil0" d="M737 1671c5,99 37,130 136,119 49,-62 43,-70 36,-149 -67,-5 -124,2 -173,30z"/>
   <path class="fil4" d="M1000 1688l66 -21c13,-164 -206,-379 -119,-118 18,53 23,96 53,138z"/>
   <path class="fil0" d="M1472 3117l3 93c70,24 77,19 143,3l10 -110c-62,-28 -117,-31 -156,14z"/>
   <path class="fil0" d="M2554 414l83 59 72 -89c-49,-81 -32,-64 -114,-102 -45,61 -52,44 -42,132z"/>
   <path class="fil4" d="M2514 679c42,37 110,48 172,50l22 -110 -172 -9 -22 69z"/>
   <path class="fil4" d="M2462 1043c85,13 107,-2 123,-86l-100 -66c-26,72 -33,74 -24,152z"/>
   <path class="fil0" d="M1202 3022l-8 88c219,49 145,-170 8,-88z"/>
  </g>
 </g> 
<g id="text">
<path class="fil10 str0" d="M22 466c0,-111 0,-222 0,-333 0,-61 50,-111 111,-111 349,0 697,0 1046,0 61,0 111,50 111,111 0,111 0,222 0,333 0,61 -50,111 -111,111 -48,0 -95,0 -143,0 190,79 103,185 293,264 -285,-79 -293,-185 -579,-264 -206,0 -412,0 -618,0 -61,0 -111,-50 -111,-111z"/>
  <text x="4%" y="10%" class="text"  >Help!</text>
  </g>
</svg>
