<?xml version="1.0" encoding="UTF-8"?>
<!DOCTYPE svg PUBLIC "-//W3C//DTD SVG 1.1//EN" "http://www.w3.org/Graphics/SVG/1.1/DTD/svg11.dtd">
<!-- Creator: CorelDRAW X6 -->
<svg xmlns="http://www.w3.org/2000/svg" xml:space="preserve" width="128px" height="291px" version="1.1" style="shape-rendering:geometricPrecision; text-rendering:geometricPrecision; image-rendering:optimizeQuality; fill-rule:evenodd; clip-rule:evenodd"
viewBox="0 0 20 40"
 xmlns:xlink="http://www.w3.org/1999/xlink">
 <defs>
  <style type="text/css">
   <![CDATA[
    .str3 {stroke:#597B00;stroke-width:0.0300423}
    .str2 {stroke:#597B00;stroke-width:0.0788513}
    .str1 {stroke:#996633;stroke-width:0.0788513}
    .str0 {stroke:#CC9933;stroke-width:0.0788513}
    .fil0 {fill:#597B00}
    .fil1 {fill:#415300}
    .fil3 {fill:#996633}
    .fil2 {fill:#CC9933}
   ]]>
  </style>
 </defs>
 <g id="Layer_x0020_1" transform="translate(0,3)">
  <metadata id="CorelCorpID_0Corel-Layer"/>
  <polygon class="fil0"  points="7,8 3,16 0,22 0,23 7,20 14,23 10,16 "/>
  <polygon class="fil0" points="3,19 0,23 0,38 3,33 12,33 7,26 "/>
  <polygon class="fil0" points="12,22 5,31 0,36 0,39 12,39 22,39 22,34 19,31 "/>
  <polygon class="fil0" points="12,19 8,26 3,34 12,34 21,34 17,26 "/>
  <polygon class="fil0" points="12,0 9,7 6,14 12,14 19,14 16,7 "/>
  <polygon class="fil0" points="12,6 9,13 5,20 12,20 20,20 16,13 "/>
  <polygon class="fil0" points="12,13 9,20 5,27 12,27 20,27 16,20 "/>
  <path class="fil1" d="M13 19l-4 7 -4 7c3,-1 8,-3 9,-2l8 2 -4 -7 -4 -7z"/>
  <polygon class="fil1" points="13,0 9,7 6,14 13,11 19,14 16,7 "/>
  <polygon class="fil1" points="12,6 9,13 5,20 12,17 20,20 16,13 "/>
  <polygon class="fil1" points="13,13 9,20 5,27 12,24 20,27 16,20 "/>
  <path class="fil2 str0" d="M11 37l2 0c0,-2 0,-3 0,-4 0,-1 -1,0 -2,0l0 4z"/>
  <path class="fil3 str1" d="M13 36c0,2 -1,-1 -2,1 1,0 1,0 2,0 0,-1 0,-4 0,-1z"/>
  <polygon class="fil0 str2" points="12,38 12,34 11,36 10,33 10,36 7,34 8,37 5,36 7,37 4,37 7,39 6,39 7,40 "/>
  <polygon class="fil0 str2" points="14,40 12,36 14,38 14,34 15,37 17,34 17,37 19,35 18,37 21,36 19,39 20,39 19,40 "/>
  <polygon class="fil1 str3" points="12,39 13,35 11,37 11,33 10,37 9,33 9,37 6,35 7,37 5,35 7,39 6,38 7,39 "/>
  <polygon class="fil1 str3" points="13,40 12,36 13,38 13,34 15,37 16,34 16,37 18,35 18,37 20,36 18,39 19,39 18,40 "/>
  <polygon class="fil0 str3" points="8,40 4,37 8,38 8,35 10,38 13,35 13,38 17,36 16,38 21,36 17,40 19,39 17,40 "/>
  <polygon class="fil0" transform="translate(1,7)" points="20,22 22,26 22,34 20,34 12,34 16,28 "/>
  <polygon class="fil0" points="20,5 22,10 22,17 20,17 14,17 17,11 "/>
  <polygon class="fil0" points="20,10 22,15 22,23 20,23 13,23 17,16 "/>
  <polygon class="fil0" points="20,16 22,21 22,28 20,28 13,28 17,22 "/>
  <path class="fil1" d="M20 5l3 6 0 4 0 1 0 5 0 0 0 0 0 5 0 1 0 6c-1,0 -2,-1 -3,0l-7 2 4 -6 1 -1 -4 1 3 -6 1 -1 -3 1 3 -6 0 -1 -3 1 3 -6 3 -6z"/>
  <path class="fil2 str0" d="M21 37l-2 0c0,-1 0,-3 0,-3 0,-1 1,0 2,0l0 3z"/>
  <path class="fil3 str1" d="M19 36c0,2 1,-1 2,1 -1,0 -1,0 -2,0 0,-1 0,-3 0,-1z"/>
  <polygon class="fil0 str2" points="21,38 20,34 21,36 22,34 22,37 22,36 22,39 "/>
  <polygon class="fil0 str2" points="19,40 20,36 18,38 18,35 17,38 16,35 16,38 14,36 15,38 13,36 14,39 13,39 14,40 "/>
  <polygon class="fil1 str3" points="21,39 19,36 21,37 21,34 22,37 22,36 22,39 "/>
  <polygon class="fil1 str3" points="19,40 21,36 19,38 19,35 18,38 17,35 17,38 15,36 15,38 13,36 15,39 14,39 15,40 "/>
  <polygon class="fil0 str3" points="22,38 22,38 19,35 19,38 15,36 17,38 13,37 16,40 14,39 16,40 22,40 "/>
  <polygon class="fil0" points="3,6 0,11 0,20 3,20 10,20 7,13 "/>
  <polygon class="fil0" points="4,9 1,16 0,18 0,23 4,23 10,23 7,16 "/>
  <polygon class="fil0" points="3,12 0,17 0,26 3,26 10,26 7,19 "/>
  <path class="fil1" d="M3 6l-3 5 0 7 0 0 0 0 0 6 0 1 0 7c1,0 3,-1 3,0l8 2 -4 -7 -1 -1 4 2 -4 -7 -1 -1 4 2 -4 -7 -4 -7z"/>
  <polygon class="fil1" points="16,4 13,11 9,18 16,15 22,17 22,15 20,11 "/>
  <path class="fil2 str0" d="M1 36l1 0c0,-2 1,-3 1,-4 0,-1 -1,0 -1,0l-1 4z"/>
  <path class="fil3 str1" d="M4 35c0,2 -1,-1 -2,1 1,0 1,0 2,0 0,-1 0,-4 0,-1z"/>
  <polygon class="fil0 str2" points="3,37 4,33 3,35 1,32 1,36 0,34 0,39 "/>
  <polygon class="fil0 str2" points="4,39 3,35 4,37 4,34 6,37 7,34 7,37 9,35 9,37 11,35 9,39 10,38 9,39 "/>
  <polygon class="fil1 str3" points="4,39 2,35 4,37 4,34 5,37 7,34 7,37 9,35 8,37 10,35 8,39 10,38 9,39 "/>
  <polygon class="fil1 str3" points="3,39 5,35 3,37 3,33 2,37 0,34 0,39 "/>
  <polygon class="fil0 str3" points="0,36 1,38 4,35 5,38 9,36 7,38 12,36 8,40 11,39 9,40 0,40 "/>
 </g>
</svg>
