<?xml version="1.0" encoding="UTF-8"?>
<!DOCTYPE svg PUBLIC "-//W3C//DTD SVG 1.1//EN" "http://www.w3.org/Graphics/SVG/1.1/DTD/svg11.dtd">
<!-- Creator: CorelDRAW X6 -->
<svg xmlns="http://www.w3.org/2000/svg" xml:space="preserve" version="1.1" style="shape-rendering:geometricPrecision; text-rendering:geometricPrecision; image-rendering:optimizeQuality; fill-rule:evenodd; clip-rule:evenodd"
viewBox="0 0 200 57"
 xmlns:xlink="http://www.w3.org/1999/xlink">
 <defs>
  <style type="text/css">
   <![CDATA[
    .str3 {stroke:#597B00;stroke-width:0.0427053}
    .str2 {stroke:#597B00;stroke-width:0.112087}
    .str1 {stroke:#996633;stroke-width:0.112087}
    .str0 {stroke:#CC9933;stroke-width:0.112087}
    .fil0 {fill:#597B00}
    .fil1 {fill:#779800}
    .fil4 {fill:#996633}
    .fil2 {fill:#99CC33}
    .fil3 {fill:#CC9933}
   ]]>
  </style>
 </defs>
 <g id="Layer_x0020_1" transform="translate(-48)">
  <metadata id="CorelCorpID_0Corel-Layer"/>
  <polygon class="fil0" points="30,12 35,22 40,33 30,28 19,33 25,22 "/>
  <polygon class="fil0" points="36,27 42,37 48,47 41,57 36,47 23,47 29,37 "/>
  <polygon class="fil0" points="23,32 33,44 43,56 23,56 2,56 12,44 "/>
  <polygon class="fil0" points="22,28 28,38 34,48 22,48 9,48 16,38 "/>
  <polygon class="fil0" points="22,0 27,10 31,20 22,20 12,20 17,10 "/>
  <polygon class="fil0" points="22,9 27,19 33,29 22,29 11,29 16,19 "/>
  <polygon class="fil0" points="22,18 27,28 33,38 22,38 11,38 16,28 "/>
  <path class="fil1" d="M22 28l6 10 6 10c-4,-2 -11,-4 -13,-3l-12 3 6 -10 6 -10z"/>
  <polygon class="fil1" points="22,0 26,10 31,20 22,16 12,20 17,10 "/>
  <path class="fil2" d="M21 0c3,7 2,3 -2,5l1 -2 1 -2z"/>
  <polygon class="fil1" points="22,9 27,19 33,29 22,24 11,29 17,19 "/>
  <polygon class="fil1" points="22,18 27,28 32,38 22,34 11,38 16,28 "/>
  <path class="fil3 str0" d="M23 52l-3 0c0,-2 0,-4 0,-6 1,-1 2,0 3,0l0 6z"/>
  <path class="fil4 str1" d="M20 50c0,3 2,-1 3,2 -1,0 -2,0 -3,0 0,-2 0,-5 0,-2z"/>
  <polygon class="fil0 str2" points="23,54 22,48 24,51 26,47 26,51 29,48 28,52 32,51 30,53 34,52 29,56 31,56 29,57 "/>
  <polygon class="fil0 str2" points="20,56 22,51 19,53 19,49 18,53 15,49 15,53 12,50 13,53 10,51 13,56 11,55 13,57 "/>
  <polygon class="fil1 str3" points="23,55 20,50 23,52 23,47 25,52 27,47 27,52 30,49 29,52 32,50 29,55 31,54 30,56 "/>
  <polygon class="fil1 str3" points="20,56 23,51 20,53 20,49 19,53 16,49 16,53 13,50 14,53 11,51 14,56 12,55 14,57 "/>
  <polygon class="fil0 str3" points="28,57 34,52 28,55 28,50 25,54 21,49 21,54 15,51 17,54 10,51 16,57 12,56 15,57 "/>
  <polygon class="fil0" points="11,31 6,40 0,49 11,49 22,49 17,40 "/>
  <polygon class="fil0" points="11,7 7,16 3,25 11,25 20,25 15,16 "/>
  <polygon class="fil0" points="11,15 6,23 2,32 11,32 21,32 16,23 "/>
  <polygon class="fil0" points="11,23 6,32 2,40 11,40 21,40 16,32 "/>
  <path class="fil1" d="M11 31l-5 9 -5 9c4,-1 10,-3 11,-3l10 3 -5 -9 -5 -9z"/>
  <polygon class="fil1" points="11,7 7,16 3,25 11,21 20,25 15,16 "/>
  <path class="fil2" d="M11 7c-3,6 -2,2 2,4l-1 -2 -1 -2z"/>
  <polygon class="fil1" points="11,15 6,23 2,32 11,28 20,32 16,23 "/>
  <polygon class="fil1" points="11,23 7,32 2,40 11,36 21,40 16,32 "/>
  <path class="fil3 str0" d="M10 53l3 0c0,-2 0,-4 0,-5 -1,-1 -2,0 -3,0l0 5z"/>
  <path class="fil4 str1" d="M12 51c0,3 -2,-1 -3,2 1,0 2,0 3,0 0,-2 0,-5 0,-2z"/>
  <polygon class="fil0 str2" points="10,54 11,49 9,52 8,48 8,52 4,49 6,53 2,51 4,53 1,53 5,56 3,56 5,57 "/>
  <polygon class="fil0 str2" points="13,56 11,52 13,54 13,49 15,53 17,49 17,53 20,51 19,53 21,52 19,56 21,56 19,57 "/>
  <polygon class="fil1 str3" points="10,55 12,51 10,53 10,48 9,52 7,48 7,52 4,50 5,52 2,51 4,55 3,55 4,56 "/>
  <polygon class="fil1 str3" points="12,56 10,52 12,54 12,49 14,53 16,49 16,53 19,51 18,53 21,52 18,56 20,56 18,57 "/>
  <polygon class="fil0 str3" points="5,57 1,53 6,55 5,50 8,54 12,50 12,54 17,52 16,54 21,52 17,57 20,56 17,57 "/>
  <polygon class="fil0" points="35,8 41,18 46,28 35,28 25,28 30,18 "/>
  <polygon class="fil0" points="34,13 39,23 43,33 34,33 25,33 29,23 "/>
  <polygon class="fil0" points="35,17 41,27 46,37 35,37 25,37 30,27 "/>
  <path class="fil1" d="M35 27l6 10 6 10c-4,-2 -11,-4 -13,-3l-12 3 6 -10 6 -10z"/>
  <polygon class="fil1" points="36,8 41,18 46,28 36,23 25,28 30,18 "/>
  <polygon class="fil1" points="16,5 22,15 27,25 16,21 6,25 11,15 "/>
  <polygon class="fil1" points="35,17 41,27 46,37 35,33 25,37 30,27 "/>
  <path class="fil3 str0" d="M39 51l-4 0c0,-2 -1,-4 0,-6 1,-1 3,0 4,0l0 6z"/>
  <path class="fil4 str1" d="M34 50c0,3 2,-1 3,2 -1,0 -2,0 -3,0 0,-2 0,-5 0,-2z"/>
  <polygon class="fil0 str2" points="35,53 34,47 36,50 37,46 37,51 41,47 40,51 44,50 42,52 45,51 41,55 43,55 41,56 "/>
  <polygon class="fil0 str2" points="33,55 36,50 33,53 33,48 31,52 29,48 29,52 26,50 27,52 24,50 27,55 25,55 26,56 "/>
  <polygon class="fil1 str3" points="34,55 37,50 34,53 34,48 32,52 30,48 30,52 27,50 28,52 25,50 28,55 26,55 27,56 "/>
  <polygon class="fil1 str3" points="35,55 33,50 36,52 36,47 37,52 39,47 39,52 43,49 42,52 45,50 42,55 44,54 42,56 "/>
  <polygon class="fil0 str3" points="41,57 46,52 40,54 41,49 37,54 33,49 33,54 27,51 29,53 23,51 28,56 24,56 27,57 "/>
 </g>
</svg>
