<?xml version="1.0" encoding="UTF-8"?>
<!DOCTYPE svg PUBLIC "-//W3C//DTD SVG 1.1//EN" "http://www.w3.org/Graphics/SVG/1.1/DTD/svg11.dtd">
<!-- Creator: CorelDRAW X6 -->
<svg xmlns="http://www.w3.org/2000/svg" xml:space="preserve" viewBox="0 0 299 100"
 xmlns:xlink="http://www.w3.org/1999/xlink">
 <defs>
  <style type="text/css">
   <![CDATA[
   
   #Layer_x0020_1{
		-webkit-animation-duration: 12s;
		animation-duration: 12s;
		animation-duration: 12s;
		-webkit-animation-name: bounce;
		animation-name: bounce;
		 -webkit-animation-iteration-count: infinite;
			animation-iteration-count: infinite;
			-webkit-animation-timing-function: linear; /* Safari and Chrome */ 
    animation-timing-function: linear;
	}
   
   @-webkit-keyframes bounce {
  0%, 10%, 40%, 65%, 100% {
    -webkit-transform: translateY(0) scale(1) skew(0deg);
    transform: translateY(0) scale(1) skew(0deg);
  }

  25% {
    -webkit-transform: translateX(-10px) scale(1,.9) skew(10deg);
    transform: translateX(-10px)  scale(1,.9) skew(10deg);
  }

  50% {
    -webkit-transform: translateY(5px)  scale(1,.9) skew(-5deg);
    transform: translateY(5px)  scale(1,.9) skew(-5deg);
  }
  75% {
    -webkit-transform: translateY(15px)  scale(1,.9) skew(5deg);
    transform: translateY(15px)  scale(1,.9) skew(5deg);
  }
}
    .str1 {stroke:white;stroke-width:0}
    .str2 {stroke:yellow;stroke-width:0}
    .str0 {stroke:#FFFFff;stroke-width:.5}
    .fil7 {fill:none}
    .fil39 {fill:#FFFF99}
    .fil0 {fill:rgba(194, 205, 255, 0.65)}
    .fil29 {fill:url(#id0)}
    .fil2 {fill:url(#id1)}
    .fil9 {fill:url(#id2)}
    .fil21 {fill:url(#id3)}
    .fil15 {fill:url(#id4)}
    .fil36 {fill:url(#id5)}
    .fil4 {fill:url(#id6)}
    .fil11 {fill:url(#id7)}
    .fil23 {fill:url(#id8)}
    .fil17 {fill:url(#id9)}
    .fil38 {fill:url(#id10)}
    .fil32 {fill:url(#id11)}
    .fil27 {fill:url(#id12)}
    .fil34 {fill:url(#id13)}
    .fil24 {fill:url(#id14)}
    .fil18 {fill:url(#id15)}
    .fil5 {fill:url(#id16)}
    .fil12 {fill:url(#id17)}
    .fil25 {fill:url(#id18)}
    .fil19 {fill:url(#id19)}
    .fil6 {fill:url(#id20)}
    .fil13 {fill:url(#id21)}
    .fil28 {fill:url(#id22)}
    .fil30 {fill:url(#id23)}
    .fil1 {fill:url(#id24)}
    .fil26 {fill:url(#id25)}
    .fil8 {fill:url(#id26)}
    .fil33 {fill:url(#id27)}
    .fil20 {fill:url(#id28)}
    .fil14 {fill:url(#id29)}
    .fil35 {fill:url(#id30)}
    .fil31 {fill:url(#id31)}
    .fil3 {fill:url(#id32)}
    .fil10 {fill:url(#id33)}
    .fil22 {fill:url(#id34)}
    .fil16 {fill:url(#id35)}
    .fil37 {fill:url(#id36)}
   ]]>
  </style>
  <radialGradient id="id0" gradientUnits="userSpaceOnUse" cx="27.7015" cy="45.4364" r="1.20722" fx="27.7015" fy="45.4364">
   <stop offset="0" style="stop-color:#FEFEFE"/>
   <stop offset="0.239216" style="stop-color:#FFFBDB"/>
   <stop offset="1" style="stop-color:#FFF383"/>
  </radialGradient>
  <radialGradient id="id1" gradientUnits="userSpaceOnUse" xlink:href="#id0" cx="72.8372" cy="27.3136" r="1.23623" fx="72.8372" fy="27.3136">
  </radialGradient>
  <radialGradient id="id2" gradientUnits="userSpaceOnUse" xlink:href="#id0" cx="87.4555" cy="48.8929" r="1.23623" fx="87.4555" fy="48.8929">
  </radialGradient>
  <radialGradient id="id3" gradientUnits="userSpaceOnUse" xlink:href="#id0" cx="227.374" cy="62.1191" r="1.23623" fx="227.374" fy="62.1191">
  </radialGradient>
  <radialGradient id="id4" gradientUnits="userSpaceOnUse" xlink:href="#id0" cx="246.169" cy="32.1862" r="1.23623" fx="246.169" fy="32.1862">
  </radialGradient>
  <radialGradient id="id5" gradientUnits="userSpaceOnUse" xlink:href="#id0" cx="295.592" cy="41.2358" r="1.23623" fx="295.592" fy="41.2358">
  </radialGradient>
  <radialGradient id="id6" gradientUnits="userSpaceOnUse" cx="120.347" cy="44.3411" r="0.846908" fx="120.347" fy="44.3411">
   <stop offset="0" style="stop-color:#FEFEFE"/>
   <stop offset="0.470588" style="stop-color:#FFFBDB"/>
   <stop offset="1" style="stop-color:#FFF383"/>
  </radialGradient>
  <radialGradient id="id7" gradientUnits="userSpaceOnUse" xlink:href="#id6" cx="135.331" cy="34.2702" r="0.846908" fx="135.331" fy="34.2702">
  </radialGradient>
  <radialGradient id="id8" gradientUnits="userSpaceOnUse" xlink:href="#id6" cx="177.855" cy="57.2065" r="0.846908" fx="177.855" fy="57.2065">
  </radialGradient>
  <radialGradient id="id9" gradientUnits="userSpaceOnUse" xlink:href="#id6" cx="200.743" cy="12.3127" r="0.846908" fx="200.743" fy="12.3127">
  </radialGradient>
  <radialGradient id="id10" gradientUnits="userSpaceOnUse" xlink:href="#id6" cx="246.255" cy="34.7862" r="0.846908" fx="246.255" fy="34.7862">
  </radialGradient>
  <radialGradient id="id11" gradientUnits="userSpaceOnUse" cx="59.057" cy="23.4687" r="1.25931" fx="59.057" fy="23.4687">
   <stop offset="0" style="stop-color:#FEFEFE"/>
   <stop offset="0.580392" style="stop-color:#FFFBDB"/>
   <stop offset="1" style="stop-color:#FFF383"/>
  </radialGradient>
  <radialGradient id="id12" gradientUnits="userSpaceOnUse" xlink:href="#id0" cx="77.3764" cy="50.1852" r="1.61804" fx="77.3764" fy="50.1852">
  </radialGradient>
  <radialGradient id="id13" gradientUnits="userSpaceOnUse" xlink:href="#id0" cx="105.24" cy="20.6042" r="1.68454" fx="105.24" fy="20.6042">
  </radialGradient>
  <radialGradient id="id14" gradientUnits="userSpaceOnUse" cx="128.559" cy="55.5291" r="4.50803" fx="128.559" fy="55.5291">
   <stop offset="0" style="stop-color:#FFFBDB"/>
   <stop offset="1" style="stop-color:#FFF383"/>
  </radialGradient>
  <radialGradient id="id15" gradientUnits="userSpaceOnUse" xlink:href="#id14" cx="151.405" cy="11.4804" r="4.50803" fx="151.405" fy="11.4804">
  </radialGradient>
  <radialGradient id="id16" gradientUnits="userSpaceOnUse" xlink:href="#id14" cx="170.704" cy="51.014" r="4.50803" fx="170.704" fy="51.014">
  </radialGradient>
  <radialGradient id="id17" gradientUnits="userSpaceOnUse" xlink:href="#id14" cx="185.94" cy="32.9759" r="4.50803" fx="185.94" fy="32.9759">
  </radialGradient>
  <radialGradient id="id18" gradientUnits="userSpaceOnUse" xlink:href="#id0" cx="128.851" cy="52.5016" r="2.23369" fx="128.851" fy="52.5016">
  </radialGradient>
  <radialGradient id="id19" gradientUnits="userSpaceOnUse" xlink:href="#id0" cx="151.697" cy="8.4529" r="2.23369" fx="151.697" fy="8.4529">
  </radialGradient>
  <radialGradient id="id20" gradientUnits="userSpaceOnUse" xlink:href="#id0" cx="170.996" cy="47.9864" r="2.23369" fx="170.996" fy="47.9864">
  </radialGradient>
  <radialGradient id="id21" gradientUnits="userSpaceOnUse" xlink:href="#id0" cx="186.233" cy="29.9484" r="2.23369" fx="186.233" fy="29.9484">
  </radialGradient>
  <radialGradient id="id22" gradientUnits="userSpaceOnUse" xlink:href="#id14" cx="28.9413" cy="45.422" r="3.33712" fx="28.9413" fy="45.422">
  </radialGradient>
  <radialGradient id="id23" gradientUnits="userSpaceOnUse" xlink:href="#id14" cx="58.7344" cy="22.2412" r="2.48133" fx="58.7344" fy="22.2412">
  </radialGradient>
  <radialGradient id="id24" gradientUnits="userSpaceOnUse" xlink:href="#id14" cx="73.8444" cy="27.0413" r="2.25165" fx="73.8444" fy="27.0413">
  </radialGradient>
  <radialGradient id="id25" gradientUnits="userSpaceOnUse" xlink:href="#id14" cx="78.8023" cy="49.7698" r="3.0877" fx="78.8023" fy="49.7698">
  </radialGradient>
  <radialGradient id="id26" gradientUnits="userSpaceOnUse" xlink:href="#id14" cx="88.4626" cy="48.6206" r="2.25165" fx="88.4626" fy="48.6206">
  </radialGradient>
  <radialGradient id="id27" gradientUnits="userSpaceOnUse" xlink:href="#id14" cx="106.873" cy="20.486" r="3.56779" fx="106.873" fy="20.486">
  </radialGradient>
  <radialGradient id="id28" gradientUnits="userSpaceOnUse" xlink:href="#id14" cx="228.381" cy="61.8468" r="2.25165" fx="228.381" fy="61.8468">
  </radialGradient>
  <radialGradient id="id29" gradientUnits="userSpaceOnUse" xlink:href="#id14" cx="247.176" cy="31.9139" r="2.25165" fx="247.176" fy="31.9139">
  </radialGradient>
  <radialGradient id="id30" gradientUnits="userSpaceOnUse" xlink:href="#id14" cx="296.599" cy="40.9635" r="2.25165" fx="296.599" fy="40.9635">
  </radialGradient>
  <radialGradient id="id31" gradientUnits="userSpaceOnUse" xlink:href="#id14" cx="58.9272" cy="22.4669" r="2.47067" fx="58.9272" fy="22.4669">
  </radialGradient>
  <radialGradient id="id32" gradientUnits="userSpaceOnUse" xlink:href="#id14" cx="120.9" cy="43.7785" r="1.58332" fx="120.9" fy="43.7785">
  </radialGradient>
  <radialGradient id="id33" gradientUnits="userSpaceOnUse" xlink:href="#id14" cx="135.884" cy="33.7076" r="1.58332" fx="135.884" fy="33.7076">
  </radialGradient>
  <radialGradient id="id34" gradientUnits="userSpaceOnUse" xlink:href="#id14" cx="178.407" cy="56.644" r="1.58332" fx="178.407" fy="56.644">
  </radialGradient>
  <radialGradient id="id35" gradientUnits="userSpaceOnUse" xlink:href="#id14" cx="201.296" cy="11.7502" r="1.58332" fx="201.296" fy="11.7502">
  </radialGradient>
  <radialGradient id="id36" gradientUnits="userSpaceOnUse" xlink:href="#id14" cx="246.808" cy="34.2236" r="1.58332" fx="246.808" fy="34.2236">
  </radialGradient>
  
  
 </defs>
 <g id="Layer_x0020_1">
  <metadata id="CorelCorpID_0Corel-Layer"/>
  <path class="fil0 str0" d="M291 38c-19,12 -65,22 -119,19 -74,-4 -65,-26 -18,-25 0,0 1,0 0,0 7,0 -43,-4 -53,9 -12,15 60,25 119,22 27,-2 48,-6 67,-11 -37,10 -96,16 -147,8 -52,-8 -60,-27 6,-31 1,0 7,0 3,-1 3,0 -14,0 -20,0 -72,3 -62,36 50,39 42,1 79,-3 110,-10 -49,11 -121,14 -173,3 -51,-11 -48,-32 26,-35 6,0 8,-1 1,-1 13,1 -14,0 -30,1 -56,5 -58,24 -22,34 39,12 110,14 166,8 12,-1 23,-3 34,-5 -48,9 -107,12 -161,5 -60,-8 -89,-28 -37,-40 27,-6 49,-4 57,-5 4,0 -6,-2 -7,-2 20,2 3,1 -4,1 -85,-4 -136,32 -23,49 49,7 105,6 156,0 -51,6 -107,7 -156,0 -67,-9 -94,-33 -32,-46 23,-5 46,-5 73,-3 13,1 0,-2 -5,-2 4,1 22,4 7,1 -44,-8 -105,2 -120,14 -25,20 42,40 123,44 16,1 32,1 49,1 -60,1 -117,-4 -153,-17 -42,-15 -31,-38 41,-44 50,-4 71,4 79,5 5,0 -6,-3 -7,-4 3,1 19,8 10,2 -17,-11 -82,-10 -117,-4 -69,12 -61,38 -3,52 12,3 25,5 40,7 -41,-6 -71,-14 -82,-26 -17,-17 25,-38 101,-39 36,0 65,5 71,13 2,2 4,-1 2,-3 2,2 0,9 8,5 13,-7 -17,-15 -43,-18 -65,-7 -135,5 -155,21 -9,7 -8,14 -2,22 -12,-14 -2,-27 41,-37 43,-10 120,-11 154,1 13,5 16,11 -2,16 0,0 7,-2 9,-3 -3,1 -25,7 -6,7 25,-1 32,-10 27,-16 -14,-15 -85,-21 -141,-17 -26,2 -46,6 -65,10 35,-9 80,-14 130,-11 50,3 95,15 75,28 -17,11 -58,6 -41,6 3,0 5,0 7,0 -8,0 -38,1 -21,5 21,5 55,0 69,-6 31,-12 -2,-28 -51,-35 -10,-1 -21,-2 -33,-3 49,3 90,11 96,24 5,10 -25,23 -70,21 -31,-1 -28,-10 -18,-6 0,0 1,0 1,0 -26,-10 -44,10 24,11 57,1 93,-15 85,-28 -2,-2 -4,-5 -8,-7 19,13 6,29 -49,34 -70,7 -100,-13 -65,-15 3,0 5,0 3,1 11,-4 -45,-3 -33,9 12,13 82,15 125,8 22,-4 36,-9 45,-15z"/>
  <g id="_723839216">
   <g>
    <polygon class="fil1" points="73,25 74,26 75,25 75,27 76,27 75,28 76,29 75,29 75,30 74,29 73,30 73,29 72,30 72,29 71,28 72,28 71,27 72,27 72,25 73,26 "/>
    <polygon class="fil2" points="73,26 74,27 74,27 74,27 75,27 74,28 75,28 74,28 74,29 74,28 73,29 73,28 73,29 73,28 72,28 73,28 72,27 73,27 73,27 73,27 "/>
   </g>
   <g>
    <polygon class="fil3" points="122,43 122,44 122,45 121,45 121,46 120,45 119,45 119,44 119,43 120,43 121,42 121,43 "/>
    <polygon class="fil4" points="121,44 121,44 121,45 121,45 121,45 120,45 120,45 120,44 120,44 120,44 121,43 121,44 "/>
   </g>
   <g>
    <polygon class="fil5" points="169,43 171,46 174,44 173,48 176,50 172,50 172,54 170,51 166,53 168,49 165,47 169,47 "/>
    <polygon class="fil6" points="170,46 171,47 172,46 172,48 173,49 171,50 171,51 170,50 168,51 169,49 168,48 169,48 "/>
   </g>
  </g>
  <path class="fil7" d="M73 28c42,18 75,26 120,18"/>
  <g id="_723866064">
   <g>
    <polygon class="fil8" points="88,46 89,48 90,47 89,48 91,48 90,49 91,50 89,50 90,52 89,51 88,52 87,51 86,51 87,50 85,50 86,49 85,48 87,48 86,47 88,48 "/>
    <polygon class="fil9" points="88,48 88,48 89,48 89,49 89,49 89,49 89,50 89,50 89,50 88,50 88,50 88,50 87,50 87,50 87,50 87,49 87,49 87,49 87,48 88,48 "/>
   </g>
   <g>
    <polygon class="fil10" points="137,33 137,34 137,35 136,35 136,36 135,35 134,35 134,34 134,33 135,33 136,32 136,33 "/>
    <polygon class="fil11" points="136,34 136,34 136,34 136,34 136,35 135,34 135,34 135,34 135,34 135,34 136,33 136,34 "/>
   </g>
   <g>
    <polygon class="fil12" points="184,25 186,28 190,26 188,30 191,32 187,32 187,36 185,33 182,35 183,31 180,29 184,29 "/>
    <polygon class="fil13" points="185,28 186,29 188,28 187,30 188,31 186,31 186,33 185,32 184,33 184,31 183,30 185,30 "/>
   </g>
  </g>
  <path class="fil7" d="M88 49c6,-1 24,-13 49,-15 10,-1 63,-6 75,-2"/>
  <g id="_723825520">
   <g>
    <polygon class="fil14" points="247,30 247,31 248,30 248,31 250,32 248,32 249,33 248,33 248,35 247,34 247,35 246,34 245,35 245,33 244,33 245,32 244,31 245,31 245,30 246,31 "/>
    <polygon class="fil15" points="247,31 247,32 247,31 247,32 248,32 247,32 248,33 247,33 247,33 247,33 247,34 247,33 246,33 246,33 246,33 246,32 246,32 246,32 246,31 246,32 "/>
   </g>
   <g>
    <polygon class="fil16" points="203,11 202,12 203,13 202,13 201,14 200,13 199,13 200,12 199,11 200,11 201,10 202,11 "/>
    <polygon class="fil17" points="202,12 202,12 202,13 201,13 201,13 201,13 200,13 201,12 200,12 201,12 201,11 201,12 "/>
   </g>
   <g>
    <polygon class="fil18" points="149,3 152,7 155,5 154,8 157,10 153,11 153,15 150,12 147,13 149,10 145,8 149,7 "/>
    <polygon class="fil19" points="150,6 151,8 153,7 152,9 154,10 152,10 152,12 151,10 149,11 150,9 148,8 150,8 "/>
   </g>
  </g>
  <path class="fil7" d="M247 32c-52,-23 -30,-21 -86,-22 -17,-1 -16,-6 -31,6 -1,1 -3,1 -4,1"/>
  <g id="_575269600">
   <g>
    <polygon class="fil20" points="228,59 228,61 230,60 229,61 231,62 230,62 231,63 229,63 230,65 228,64 228,65 227,64 226,65 227,63 225,63 226,62 225,61 227,61 226,60 227,61 "/>
    <polygon class="fil21" points="228,61 228,62 229,61 228,62 229,62 229,62 229,63 229,63 229,63 228,63 228,64 228,63 227,63 227,63 227,63 227,62 227,62 227,62 227,61 228,62 "/>
   </g>
   <g>
    <polygon class="fil22" points="180,56 179,57 180,58 179,58 178,59 178,58 176,58 177,57 176,56 178,56 178,55 179,56 "/>
    <polygon class="fil23" points="179,57 179,57 179,57 178,57 178,58 178,57 177,57 178,57 177,57 178,57 178,56 178,57 "/>
   </g>
   <g>
    <polygon class="fil24" points="127,47 129,51 132,49 131,52 134,54 130,55 130,59 128,56 124,57 126,54 123,52 126,51 "/>
    <polygon class="fil25" points="127,50 129,52 130,51 130,53 131,54 129,54 129,56 128,54 126,55 127,53 125,52 127,52 "/>
   </g>
   <g>
    <polygon class="fil26" points="78,47 79,48 81,48 80,50 82,51 80,51 81,53 79,53 78,54 77,53 75,53 76,51 74,50 76,50 75,48 77,48 "/>
    <polygon class="fil27" points="78,49 79,50 79,49 79,50 80,50 79,51 79,52 79,51 78,52 78,51 77,52 77,51 77,50 77,50 77,49 78,50 "/>
   </g>
   <g>
    <polygon class="fil28" points="28,44 31,42 30,45 33,47 29,47 28,50 27,47 24,47 27,45 26,42 "/>
    <polygon class="fil29" points="28,45 29,45 29,46 29,46 29,46 28,47 28,46 27,46 28,46 28,45 "/>
   </g>
   <g>
    <polygon class="fil30" points="61,21 60,23 61,24 59,24 58,26 57,24 56,24 56,23 56,21 57,21 58,20 59,21 "/>
    <polygon class="fil31" points="61,23 60,24 60,25 58,25 57,26 57,24 55,23 57,22 56,20 58,21 60,20 60,22 "/>
    <polygon class="fil32" points="59,22 59,23 59,23 59,23 58,24 58,23 57,23 58,23 57,22 58,22 58,22 59,22 "/>
   </g>
   <g>
    <polygon class="fil33" points="106,17 107,19 109,18 108,20 111,20 109,21 110,23 108,23 109,25 107,24 106,26 105,24 103,25 104,23 102,23 104,21 102,20 104,20 104,18 105,19 "/>
    <polygon class="fil34" points="106,19 106,20 107,20 107,21 108,21 107,21 108,22 107,22 107,23 107,22 106,23 106,22 105,23 105,22 104,22 105,21 104,21 105,21 105,20 106,20 "/>
   </g>
  </g>
  <path class="fil7" d="M228 62c-25,0 -56,-8 -90,-9 -13,0 -109,-5 -113,-8 -8,-6 20,-22 37,-22 10,-1 43,-9 44,-3 0,0 2,3 2,3"/>
  <g id="_724579824">
   <g>
    <polygon class="fil35" points="296,39 297,40 298,39 298,41 299,41 298,41 299,42 298,42 298,44 297,43 296,44 296,43 294,44 295,42 293,42 294,41 293,41 295,40 295,39 296,40 "/>
    <polygon class="fil36" points="296,40 296,41 297,40 297,41 297,41 297,41 297,42 297,42 297,42 296,42 296,43 296,42 295,42 296,42 295,42 295,42 295,41 296,41 295,40 296,41 "/>
   </g>
   <g>
    <polygon class="fil37" points="248,33 248,35 248,36 247,36 247,37 246,36 245,36 245,35 245,33 246,33 247,32 247,33 "/>
    <polygon class="fil38" points="247,34 247,35 247,35 247,35 247,35 246,35 246,35 246,35 246,34 246,34 247,34 247,34 "/>
   </g>
  </g>
  <path class="fil7" d="M296 41c-31,-6 -38,-1 -72,-14 -3,-1 -13,-6 -15,-1"/>
  <g id="_724585872">
   <g>
    <polygon class="fil0 str1" points="267,55 267,57 269,56 268,57 270,57 269,58 270,59 268,59 269,61 267,60 267,61 266,60 265,60 266,59 264,59 265,58 264,57 266,57 265,56 266,57 "/>
    <polygon class="fil0 str1" points="267,57 267,57 268,57 267,58 268,58 268,58 268,59 268,59 268,59 267,59 267,59 267,59 266,59 266,59 266,59 266,58 266,58 266,58 266,57 267,58 "/>
   </g>
   <g>
    <polygon class="fil0 str1" points="223,38 222,39 223,40 221,40 221,41 220,40 219,40 219,39 219,38 220,38 221,37 221,38 "/>
    <polygon class="fil0 str1" points="221,39 221,39 221,39 221,39 221,40 220,39 220,39 220,39 220,39 220,39 221,38 221,39 "/>
   </g>
   <g>
    <polygon class="fil0 str1" points="171,20 173,23 177,21 175,25 178,27 174,27 174,31 172,28 168,30 170,26 167,24 171,24 "/>
    <polygon class="fil0 str1" points="172,23 173,24 175,23 174,25 175,26 173,26 173,28 172,27 170,28 171,26 170,25 172,25 "/>
   </g>
   <g>
    <polygon class="fil0 str1" points="123,13 124,15 126,15 125,17 127,17 125,18 126,20 124,20 123,21 122,20 120,20 121,18 119,17 121,17 120,15 122,15 "/>
    <polygon class="fil0 str1" points="123,16 123,17 124,16 124,17 125,17 124,18 124,19 123,18 123,19 123,18 122,19 122,18 121,17 122,17 122,16 123,17 "/>
   </g>
   <g>
    <polygon class="fil0 str1" points="73,18 76,17 75,19 78,21 74,21 73,24 72,21 69,21 72,19 71,17 "/>
    <polygon class="fil0 str1" points="73,19 74,19 74,20 74,20 74,20 73,21 73,20 72,20 73,20 72,19 "/>
   </g>
   <g>
    <polygon class="fil0 str1" points="28,31 27,33 28,34 26,34 25,36 24,34 22,34 23,33 22,31 24,31 25,30 26,31 "/>
    <polygon class="fil0 str1" points="28,33 26,34 27,35 25,35 23,36 23,34 22,33 23,32 23,30 25,31 26,30 26,32 "/>
    <polygon class="fil0 str1" points="26,32 26,33 26,33 25,33 25,34 24,33 24,33 24,33 24,32 24,32 25,32 25,32 "/>
   </g>
  </g>
  <path class="fil7" d="M267 58c-8,-1 -50,-25 -87,-31 -46,-8 -73,-16 -117,-4 -6,2 -38,8 -38,10"/>
  <ellipse class="fil39 str2" cx="174" cy="31" rx="7" ry="5"/>
 </g>
</svg>
