<?xml version="1.0" encoding="UTF-8"?>
<!DOCTYPE svg PUBLIC "-//W3C//DTD SVG 1.1//EN" "http://www.w3.org/Graphics/SVG/1.1/DTD/svg11.dtd">
<!-- Creator: CorelDRAW X6 -->
<svg xmlns="http://www.w3.org/2000/svg" xml:space="preserve" width="156px" height="150px" version="1.1" style="shape-rendering:geometricPrecision; text-rendering:geometricPrecision; image-rendering:optimizeQuality; fill-rule:evenodd; clip-rule:evenodd"
viewBox="0 0 1173783 1128899"
 xmlns:xlink="http://www.w3.org/1999/xlink">
 <defs>
  <style type="text/css">
   <![CDATA[
    .str0 {stroke:black;stroke-width:1238.25}
    .fil14 {fill:#060201}
    .fil2 {fill:#0A0202}
    .fil15 {fill:#0A0505}
    .fil0 {fill:#0C0000}
    .fil3 {fill:#0C0403}
    .fil11 {fill:#0E0506}
    .fil12 {fill:#15110D}
    .fil1 {fill:#160000} /*external*/
    .fil5 {fill:#210101}
    .fil8 {fill:#290101}
    .fil4 {fill:#3D0202}/*center 4*/
    .fil7 {fill:#570807}
    .fil10 {fill:#781603}
    .fil6 {fill:#B23109}/*center 3*/
    .fil9 {fill:#F7D12D}/*center 2*/
    .fil13 {fill:#FAF6D2}/*center 1*/
   ]]>
  </style>
 </defs>
 <g id="Layer_x0020_1">
  <metadata id="CorelCorpID_0Corel-Layer"/>
  <g id="_577581056">
   <path class="fil0 str0" d="M728682 167485l-33106 70421 6357 3578 40791 -7675 -5486 2061 -4779 66258 12261 3014 -23379 8609 -2971 1050 70603 25067 -1279 -9051 46600 -12303 -5259 6882 57065 65822 5494 -10845 -3575 74552 -20319 6427 -1334 9706 71056 19120 3739 -9986 9438 29505 -80451 19318 -26536 -28785 -7574 2145 -19133 37263 3229 5021 23121 -2413 11118 36275 4386 -30986 14191 2048 -6927 47562 -6903 -8795 -70278 50858 -13070 -30739 -57034 35687 479 -8770 -23818 -2143 -520 5613 57434 18805 -4969 5930 22141 -13483 67109 18125 3959 -24783 61937 9849 -2946 22555 -52335 4119 -3980 4896 15239 33127 -26297 8123 10888 46534 -9414 -13392 -120627 -3307 -2546 12628 28720 73876 11185 1428 -49229 50351 -9342 -7204 -709 -22709 -25387 -13109c1727,-6511 18389,-25178 23541,-31676l-1958 -10577 -78145 -2584 -1867 12334 22469 15764c-44515,15083 -36761,2865 -31237,49496l-30305 5572c39496,90574 -46238,-4670 -68460,9916 -56646,37180 20369,55258 32341,52286 33475,-8310 37161,7860 14901,24421 -3395,2525 -53085,2714 -62233,3991 -7316,1021 -40172,-36220 -33854,5384 41,276 42822,26067 1271,32159l-15889 -37276c-42112,39463 23678,43202 37762,47554 70543,21795 36933,25878 59005,56960 24591,34629 56462,-120859 121836,-4852l973 -5655c-3729,-18320 -1939,-6698 4716,-14672 8032,-9625 15946,-10306 19167,-20334 -4038,-5458 -6290,1368 -13588,-8587 -156,-1662 3333,-27134 3497,-27243 2663,-1755 6604,1906 9201,-29 2004,-1493 5744,-10210 9331,-14087 10288,-11117 6658,-14791 15282,-11466 23530,9069 13811,18671 25584,23423l-2132 -12517c19022,27016 9355,44062 15317,55515 4877,-1074 10501,-25036 22449,-23499 10813,9895 2179,17353 10041,22662 5972,4033 16044,3149 12100,17682l-6500 -803 4596 23346 22682 -42437 -9575 5179 -33096 -99528 11330 -1146 29218 10567c-1734,-3482 -3229,-74350 3078,-84081 20880,-32211 17922,4843 37984,-11632 216,-177 46204,-15082 56076,-11035 24773,10153 7152,42088 6232,42804l-37282 -32979 -8790 17886 105820 27047c-1960,-25867 -13514,-17202 -24578,-25378 -31387,-23195 551,-5712 -515,-22055 -4158,-63811 38045,27555 63697,18579 35874,-12555 -35825,-51150 -22266,-63541 7399,-6762 -19026,-2535 -8549,-34364 1490,-4531 22025,15446 27601,-6169l-5221 3300 19409 30698 6656 -33594 147722 -6604 299 6702c-11916,-52949 -120195,-62603 -155584,-76874 -19940,-8041 -90604,-97916 -59062,38989 6827,29630 -2512,52920 -28303,25803 -37260,-39177 2520,-9126 -49616,-26317 -76666,-25277 82914,-48997 63739,-83712 -6380,-11551 -50627,-28735 -13265,-39588 39447,-11460 4890,-35560 48367,-54459 131666,-57229 38170,-27939 29577,-101320 -3084,-26340 -52933,-16466 -52899,-51890 39,-39943 54257,-6494 60387,-14523 31819,-41681 19762,-22134 67460,-17201 31445,3252 17643,-47411 44779,-15153l2636 -4618c-1513,-16759 -29582,-109532 -69895,-91878 -12547,5496 -24303,32000 -31034,20925 -8957,-14737 12630,-56898 -4082,-56137 -13254,601 -31247,39749 -37282,51423 -11536,22323 20670,-15095 22061,-3617 10407,85933 -52026,47109 17943,66757 23741,6666 -40136,40329 -76502,-27693 -10813,-20226 34156,-26683 10197,-37261 -35250,-15563 -39666,-14194 -41826,14614 -1489,19827 -4131,1636 -24107,-8450 -27713,-13995 10706,-35376 -4470,-46457 -46001,-33584 -57216,-73749 2974,-100625l6624 -6513 -57975 -11518 -4963 -25706 -7488 211 -996 53945 27185 6988 -48635 35051 -14708 -21572 -47193 31289 -18211 -27471z"/>
   <path class="fil1 str0" d="M532405 142746l-1643 8161 -31276 -19404 -77755 122415 -34146 -21271 2220 58914 -112136 32237 17059 35869 21024 -15759 12467 28928 1682 -12318 66259 3614 54 30131 -76833 16021 -34096 52297 -11295 -1399 -20080 -46675 -26306 25529 -18028 278 16843 30674 -252 46756 8379 -237 -30253 37302 13496 13330c15452,439 36480,-1120 50786,3500l-19692 -78374 25592 -8045 4206 5254 -14375 15062 87641 -34803 5296 11590 -13861 14073c40329,76066 -4472,26626 -49106,84240 -12231,15787 -52600,3721 -36785,42047 9275,22479 44390,48462 44401,48475l21900 -18834c-1061,-8179 -24958,-24681 -32104,-30838l104817 16247 -14092 2662 54447 91247 -103152 78241 -4722 -7592 70616 -72631 3708 6992c-10824,-14753 -43713,-61425 -53601,-71664l-470 64912 -59542 1983 -1822 11880 41568 26674 -18939 44657c5421,6944 23922,7202 32875,8780l-6685 55286 26167 366 21760 96582c24287,-15699 63505,-79077 18304,-79762 -9757,-148 -10476,-28095 8523,-21476 13882,4834 30189,7810 40242,-8188 53425,-85030 62870,66155 116516,22865l30305 -5572c-5523,-46631 -13278,-34413 31237,-49496l-22469 -15764 1867 -12334 78145 2584 1958 10577c-5153,6498 -21814,25165 -23541,31676l25387 13109 7183 -92906 -4651 -535 -12927 28888 -17649 -6468 25488 -69711 -84775 47325 -8167 5816 22412 -87597 -33421 -12849 523 -7405 60554 -17784 -42908 -2064 161 -7070 -21869 17340 -12771 -17818 -4727 13010 -37245 -36025 -34586 39307 -54550 1014 -1472 -85231 -9882 -483 -12748 45793 -47782 -20122 50058 -64454 -4649 -3612c-38717,-788 -41663,-48308 -56596,-57920 -63840,-41093 8650,-81517 20244,-34005 10925,44769 83426,-17875 64103,-25032 -23324,-8639 -20223,-43277 -9896,-60364 28208,-46670 54306,65101 67767,39306 4449,-8525 10028,-33389 10767,-43654 1802,-24950 40105,-12025 37461,-34559 -85,-713 22472,-69443 62189,-34253 61599,54577 44249,-2056 59891,-4558l-1363 3941 64235 22220 -8159 11947 23379 -8609 -12261 -3014 4779 -66258 5486 -2061 -40791 7675 -6357 -3578 33106 -70421 9553 -11958 -120567 -55411 -2316 44845 -6026 -637c-1706,-1838 2181,-56621 1334,-66799 -1654,-19916 -2949,203 -31444,-3422 -5590,-712 -25079,-12123 -25306,-11967 -12678,8639 -598,50237 8115,56828 3195,2416 49876,-14232 36368,-4639 -15270,10844 -36052,12001 -5567,38207 7358,6326 -2946,22828 -19334,17464 -27113,-8876 -6944,-32921 -41088,-27250z"/>
   <path class="fil2 str0" d="M203016 662251c8002,-18788 16526,-15334 30898,-8980 1596,-7532 -4197,-11583 7420,-18189 29346,-2454 13713,21409 13569,28899 8273,16333 11814,-564 8234,24044 -17547,-3211 -3655,-34 -17976,6583 -1266,-5111 3632,-5731 -4235,-9102l-3908 15475c-10195,-1688 -4072,-2546 -9334,-6351 -3959,-2862 -7980,-2553 -13450,-4706 -2350,-11737 2941,-25228 -11217,-27674zm-44679 -232702l-49640 96278 -14851 -5710 25803 12274 -34123 21517 24191 -3786 -3913 14750 90228 22531 24123 2686 405 16869 5783 1477 7373 -19193 8803 12080 -60765 42317 21263 18613 -57302 47903 -2839 -892 9890 -28041 4392 -68 -10155 190c-55503,44101 -143182,-17784 -83569,-13556 90399,6411 42833,-69818 -19117,-31772 -115940,71206 35303,76905 36728,83957 5093,25235 11819,49816 34881,65406 25594,17300 13733,-22064 18681,-37227 16430,-50365 123820,21366 132935,-43752 3058,-21853 18987,13346 686,29138 -11823,10203 -33228,-1006 -37445,22799 -3040,17167 29101,50546 5291,61332 -31411,14230 -18377,24780 3440,45320 40792,38407 82789,-10358 103868,-39117 -8954,-1578 -27454,-1836 -32875,-8780l18939 -44657 -41568 -26674 1822 -11880 59542 -1983 470 -64912c9888,10239 42777,56911 53601,71664l-3708 -6992 -70616 72631 4722 7592 103152 -78241 -54447 -91247 14092 -2662 -104817 -16247c7145,6157 31042,22659 32104,30838l-21900 18834c-11,-13 -35126,-25997 -44401,-48475 -15815,-38326 24554,-26260 36785,-42047 44634,-57614 89435,-8174 49106,-84240l13861 -14073 -5296 -11590 -87641 34803 14375 -15062 -4206 -5254 -25592 8045 19692 78374c-14306,-4620 -35334,-3062 -50786,-3500l-13496 -13330 30253 -37302 -8379 237 252 -46756 -16843 -30674 -51240 -10764z"/>
   <path class="fil3 str0" d="M227604 440035l26306 -25529 20080 46675 11295 1399 34096 -52297 76833 -16021 -54 -30131 -66259 -3614 -1682 12318 -12467 -28928 -21024 15759 -17059 -35869 112136 -32237 -2220 -58914 34146 21271 77755 -122415 31276 19404 1643 -8161 -72449 -142105 -29144 1729c20347,60414 29699,20 26478,95089 -1596,47096 -34975,6326 -49327,20738 -29375,29499 -14918,-523 -44094,-19308l-2451 9436c-6752,-1752 -31064,-9926 -36072,-7766 9095,22900 8860,15706 3096,30485l-125731 -49782c12127,44593 51360,63719 35505,114647 -15439,49597 55165,11252 65080,38405 6989,19141 26122,4919 11354,15399 -37276,26453 -17825,21600 -12477,48839 4441,22620 -41728,-33498 -51662,-4583 -20696,60240 -48984,-61745 -63083,-32926 -30875,63118 -8574,-762 -13580,63848 -1297,16725 20056,18415 18514,29918 -1555,11607 -20425,26317 1359,39739 34952,21536 39860,-38409 33885,45485z"/>
   <path class="fil4 str0" d="M491722 657779l-13608 -11656 18013 -2711 -7496 -86721 -23571 2524 18985 24542 -3803 4571 -31715 -23104 8305 25030 -11378 492 -2129 -54350 -12217 -1851 23301 -46451 40731 11096 26910 -70883c7031,-5835 5605,-4979 7615,-14238l-7472 6806 -7707 -6193 4178 14479 -11219 -4066 -9212 9532c-21973,-7551 -5481,-20251 1089,-28181 3898,-4706 5190,-12007 10093,-15399 5192,-3595 9635,-692 13583,-5120 -2230,-4254 -7828,-8130 -7872,-12444 -59,-5442 7374,-10278 12067,-9394 8086,1521 -10228,8990 2831,21975l5298 -12176c29861,13146 21395,-6939 42692,-839 6529,9025 -1688,29869 1077,33322l22341 -3453 27606 -10273 41592 749 38374 -21861 -23143 -18465 -10135 9282 -13572 -30323 4997 4485 51220 -21712 2971 -1050 8159 -11947 -64235 -22220 1363 -3941c-15642,2503 1708,59135 -59891,4558 -39717,-35189 -62273,33540 -62189,34253 2644,22534 -35659,9609 -37461,34559 -739,10265 -6318,35129 -10767,43654 -13462,25795 -39559,-85976 -67767,-39306 -10327,17087 -13427,51725 9896,60364 19323,7157 -53178,69800 -64103,25032 -11594,-47512 -84084,-7088 -20244,34005 14932,9612 17878,57132 56596,57920l4649 3612 -50058 64454 47782 20122 12748 -45793 9882 483 1472 85231 54550 -1014z"/>
   <path class="fil5 str0" d="M670629 393395l37625 13829 9895 -27388c7421,2085 34240,7537 37882,12457l-12342 14519 12423 -1810 7717 75636 -6887 1750 -8021 -11863 7982 -4305 57990 110302c-23218,11417 -16861,8793 -39120,31948l13070 30739 70278 -50858 6903 8795 6927 -47562 -14191 -2048 -4386 30986 -11118 -36275 -23121 2413 -3229 -5021 19133 -37263 7574 -2145 26536 28785 80451 -19318 -9438 -29505 -3739 9986 -71056 -19120 1334 -9706 20319 -6427 3575 -74552 -5494 10845 -57065 -65822 5259 -6882 -46600 12303 1279 9051 -70603 -25067 -51220 21712 -4997 -4485 13572 30323 10135 -9282 23143 18465 -38374 21861z"/>
   <path class="fil6 str0" d="M599129 454183c21704,11991 14563,29469 20789,28192 37266,-7654 4651,-18197 34689,9082 36140,32822 9428,-8110 16153,58456 29,284 -27092,70618 -27206,70665 -17927,7530 -1251,-42588 -18400,-18176 -23725,33779 -11469,-5767 -12123,-5980 -76149,9534 -66762,-24307 -80387,-61542 -18917,-51704 -11953,-4168 15790,-26536 23871,-19248 55024,-33355 50695,-54161zm2303 -51264c-7350,10316 -18051,5187 -24534,4253l-7467 15941c5632,2780 9737,5652 12600,7137 5304,2753 6950,24 12483,2195l-174 5796c2602,-2160 -2693,-4737 -8263,5931l13052 10010 -13517 -83c-6851,-122 -6503,3710 -6786,3887 -195,124 -4279,-564 -6810,135 -856,3354 -3140,11731 2624,6810 -7733,-2135 -6952,-2719 -12977,3133l-9459 -11040c10398,-3078 8013,2038 9893,-9662 11112,8002 17326,141 18902,-10914 -4995,-2621 -31996,3775 -39933,5389l6035 -7161c-2717,-3305 -12870,-14081 -15381,-14877 -4631,8978 2072,13091 -980,5533l-8690 2975 -26910 70883 -40731 -11096 -23301 46451 12217 1851 2129 54350 11378 -492 -8305 -25030 31715 23104 3803 -4571 -18985 -24542 23571 -2524 7496 86721 -18013 2711 13608 11656 34586 -39307 37245 36025 4727 -13010 12771 17818 21869 -17340 -161 7070 42908 2064 -60554 17784 -523 7405 33421 12849 9592 11864 11126 -13356 70078 -161478 3253 4622 -43539 -121027 -4886 20023 -50502 -3967 -111 -10543 35662 -11063 -19650 -11567 -27606 10273z">
   
    <!--animateTransform
            attributeName="transform"
            begin="0s"
            dur="12s"
            type="rotate"
            from="0 650000 550000"
            to="360 550000 550000"
            repeatCount="indefinite" 
        /-->
   
   </path>
   <path class="fil7 str0" d="M670629 393395l-41592 -749 19650 11567 -35662 11063 111 10543 50502 3967 4886 -20023 43539 121027 -3253 -4622 -70078 161478 73109 -17123c-9575,5722 -35935,18884 -41376,26743l32547 15787 -3255 -15321 83720 -30158 6624 11703 2158 -20436 -22771 -8733 -22141 13483 4969 -5930 -57434 -18805 520 -5613 23818 2143 -479 8770 57034 -35687c22259,-23155 15902,-20530 39120,-31948l-57990 -110302 -7982 4305 8021 11863 6887 -1750 -7717 -75636 -12423 1810 12342 -14519c-3642,-4921 -30461,-10372 -37882,-12457l-9895 27388 -37625 -13829z"/>
   <path class="fil8 str0" d="M769486 650107l22771 8733 -2158 20436 -6624 -11703 -83720 30158 3255 15321 -32547 -15787c5441,-7859 31801,-21021 41376,-26743l-73109 17123 -11126 13356 -9592 -11864 -22412 87597 8167 -5816 84775 -47325 -25488 69711 17649 6468 12927 -28888 4651 535 -7183 92906 709 22709 9342 7204 49229 -50351 -11185 -1428 -28720 -73876 2546 -12628 120627 3307 9414 13392 -10888 -46534 26297 -8123 -15239 -33127 3980 -4896 52335 -4119 2946 -22555 -61937 -9849 -3959 24783 -67109 -18125z"/>
   <path class="fil9" d="M566672 520478c25888,-3664 10476,-3567 22367,-1601 2150,-8340 150,-6908 5483,-13743 11079,3562 4898,4813 13951,11242 5,2 23933,9958 11754,23605 -9787,10966 -876,1008 -5964,17412 -20855,-605 -156,2163 -18237,6848 -3070,-5281 -3127,-1523 -881,-8468 -6796,8010 -7145,1443 -8445,973 -7269,-2629 3336,-1979 -2938,-528 -5679,1315 4124,1555 -2862,1495l-11287 -16453c-8783,-12498 437,-11763 -2940,-20782zm26335 -74479c4700,22586 -29117,37898 -55029,58793 -30114,24279 -37674,-27321 -17140,28803 14791,40419 4600,77153 87261,66804 709,231 -12595,43158 13158,6492 18614,-26501 514,27903 19973,19729 124,-52 29564,-76398 29533,-76707 -7300,-72257 21695,-27825 -17534,-63453 -32607,-29611 2797,-18168 -37655,-9859 -6758,1386 993,-17586 -22566,-30602z">
   
		
		
		<!--animateTransform attributeName="transform"
                      type="scale"
                      from="1 1" to="1.1 1"
                      begin="0s" dur="10s"
                      repeatCount="indefinite"
            /-->
   
   </path>
   <path class="fil10 str0" d="M522051 428308l8690 -2975c3052,7558 -3651,3445 980,-5533 2511,796 12664,11572 15381,14877l-6035 7161c7937,-1614 34938,-8010 39933,-5389 -1576,11055 -7790,18915 -18902,10914 -1880,11700 505,6585 -9893,9662l9459 11040c6026,-5852 5244,-5268 12977,-3133 -5764,4921 -3481,-3456 -2624,-6810 2532,-699 6615,-11 6810,-135 283,-177 -65,-4009 6786,-3887l13517 83 -13052 -10010c5571,-10668 10865,-8091 8263,-5931l174 -5796c-5533,-2171 -7179,557 -12483,-2195 -2863,-1485 -6968,-4357 -12600,-7137l7467 -15941c6484,934 17184,6063 24534,-4253l-22341 3453c-2766,-3453 5452,-24297 -1077,-33322 -21297,-6100 -12831,13985 -42692,839l-5298 12176c-13058,-12985 5255,-20454 -2831,-21975 -4693,-884 -12126,3952 -12067,9394 44,4314 5642,8190 7872,12444 -3949,4428 -8392,1526 -13583,5120 -4903,3391 -6195,10693 -10093,15399 -6570,7930 -23062,20629 -1089,28181l9212 -9532 11219 4066 -4178 -14479 7707 6193 7472 -6806c-2010,9259 -583,8403 -7615,14238z"/>
   <path class="fil11" d="M759879 58029c3346,-12875 4732,6120 8294,-11910l7519 7831 8065 -8819c-127,11986 2517,23108 8244,33007 3998,6913 6498,5366 11365,6347 11552,2330 3679,1989 10301,5203 10936,-15951 1144,-16512 12883,-31722 -3257,-9266 -6991,-5026 -4183,-15438l-6757 9254c-4214,-9891 -8127,-12337 -4240,-23177 -2431,-663 -9048,-3104 -10359,-3458 -11588,-3130 -6003,598 -10467,185 -2896,-270 -291,358 -4020,-1677 -237,-130 -803,-476 -1032,-616 -221,-133 -795,-440 -1001,-580 -5367,-3629 -1141,-3583 -3523,-9565 -13804,5307 -1190,3263 -10771,5751 -11170,-8713 -6464,-2883 -13476,-6185 -9568,-4505 4563,-4300 -13865,-3292 1500,17839 -7220,10057 5644,25248 6325,7470 8985,20847 11378,23611z"/>
   <path class="fil2" d="M204570 203354c-35901,-8145 -24708,-16803 -29016,-22641 -9901,-13414 -43500,-15210 -31696,9175 7295,15072 9467,2018 18257,12708 15967,19425 21244,35628 32201,39153 4001,1287 19131,2980 23540,881l-7036 -14437c22631,10008 4859,-32633 -13787,-33317l7537 8479z"/>
   <path class="fil12 str0" d="M282167 956052c816,7452 -4485,13988 -11061,17162l-991 -7818c-7969,1848 -7850,3174 -12976,9540l-6979 -3097c-382,626 -6458,22163 -6446,23213 36,3647 8032,17339 11014,20174 5871,-678 9001,-3383 14329,-5814 8717,-3976 4656,-2743 10064,-11417l7976 4771c6705,-8817 15218,-12456 17384,-18541 7311,-20527 8465,-16884 5038,-23338l-8795 9958c-8265,-4769 -3981,-4713 -6375,-12725 -9074,-336 -3058,2254 -12181,-2067z"/>
   <path class="fil13" d="M599433 554027c1576,569 2000,8530 10238,-1181 -2724,8419 -2654,3863 1068,10265 21920,-5679 -3172,-9033 22110,-8301 6167,-19888 -4636,-7815 7231,-21110 14765,-16543 -14245,-28613 -14251,-28615 -10975,-7794 -3481,-9311 -16911,-13629 -6466,8286 -4041,6550 -6648,16661 -14415,-2386 4269,-2503 -27115,1939 4093,10933 -7085,10044 3564,25196l13684 19947c8468,73 -3417,-218 3469,-1814 7607,-1760 -5250,-2546 3562,642z"/>
   <path class="fil2 str0" d="M495752 1087105c-4149,-8499 -7236,-11003 -6240,-19663 -16058,10403 -7142,19216 -25361,20779 -4336,7774 -13236,20137 -11102,27204 7527,913 7785,-4402 14965,-7781l3469 10364 10361 135 1103 9176 9862 -12799 7547 5273c4093,-6446 5114,-25990 3157,-34614l-7761 1924z"/>
   <path class="fil14" d="M81547 265905c221,6305 -1446,1934 3070,8094 -7093,1425 -5312,-1531 -5111,4838 10356,7829 10845,598 20486,-167 13054,-1037 6524,4597 16754,7727 3375,-11936 7209,-11565 10707,-18717l-18041 -10023 4771 -3993c-18938,-6901 -23803,4196 -32637,12241z"/>
   <path class="fil15 str0" d="M330125 907520l-10501 -4505 -9705 13146 -296 -7031 -9820 796c-4168,10839 -3512,30331 10678,33412l-2325 -9235c7571,-167 1734,2140 13260,1567 7015,-349 3804,3323 3690,6752 6375,-5346 6482,-12176 6911,-19965 -6466,-3089 -5138,661 -10234,-6858l8341 -8080z"/>
   <polygon class="fil2 str0" points="1046688,566415 1079135,563207 1074736,542789 "/>
  </g>
 </g>
</svg>
