<?xml version="1.0" encoding="UTF-8"?>
<!DOCTYPE svg PUBLIC "-//W3C//DTD SVG 1.1//EN" "http://www.w3.org/Graphics/SVG/1.1/DTD/svg11.dtd">
<!-- Creator: CorelDRAW X6 -->
<svg xmlns="http://www.w3.org/2000/svg" xml:space="preserve" width="205px" height="365px" version="1.1" style="shape-rendering:geometricPrecision; text-rendering:geometricPrecision; image-rendering:optimizeQuality; fill-rule:evenodd; clip-rule:evenodd"
viewBox="0 0 111 197"
 xmlns:xlink="http://www.w3.org/1999/xlink">
 <defs>
  <style type="text/css">
   <![CDATA[
    .fil3 {fill:#333333}
    .fil1 {fill:url(#id0)}
    .fil0 {fill:url(#id1)}
    .fil2 {fill:url(#id2)}
	.fil5 {stop-color:rgba(250,255,250,0.5)}
	.fil6 {stop-color:rgba(0,0,0,0)}
   ]]>
  </style>
  <linearGradient id="id0" gradientUnits="userSpaceOnUse" x1="55.2776" y1="197.255" x2="55.2776" y2="116.705">
   <stop offset="0" class="fil6"/>
   <stop offset="1" class="fil5"/>
  </linearGradient>
  <linearGradient id="id1" gradientUnits="userSpaceOnUse" x1="55.2774" y1="14.4501" x2="55.2774" y2="70.5503">
   <stop offset="0" style="stop-color:black"/>
   <stop offset="1" style="stop-color:#555"/>
  </linearGradient>
  <radialGradient id="id2" gradientUnits="userSpaceOnUse" cx="55.2776" cy="148.074" r="28.6033" fx="55.2776" fy="148.074">
   <stop offset="0" style="stop-color:#FEFEFE"/>
   <stop offset="1" style="stop-color:black"/>
  </radialGradient>
 </defs>
 <g id="Layer_x0020_1">
  <animateTransform attributeName="transform" begin = "1;" type="rotate" values = "0;-1;0;1;0" dur="1s" repeatCount="6"/>
   
  <metadata id="CorelCorpID_0Corel-Layer"/>
  <rect class="fil0" x="52" width="6" height="85"/>
  <path class="fil1" d="M110 186c0,0 1,1 1,1 0,6 -25,10 -55,10 -31,0 -55,-4 -55,-10 0,0 0,-1 1,-1l26 -69 57 0 26 69z"/>
  <path class="fil2" d="M74 89l10 26c0,1 1,1 1,2 0,5 -13,8 -29,8 -16,0 -29,-4 -29,-8 0,-1 0,-1 1,-2l10 -26c0,-2 6,-5 13,-5l0 -5 10 0 0 5c8,1 13,3 13,5z"/>
  <ellipse class="fil3" cx="56" cy="88" rx="19" ry="4"/>
 </g>
</svg>
