<?xml version="1.0" encoding="UTF-8"?>
<!DOCTYPE svg PUBLIC "-//W3C//DTD SVG 1.1//EN" "http://www.w3.org/Graphics/SVG/1.1/DTD/svg11.dtd">
<!-- Creator: CorelDRAW X6 -->
<svg xmlns="http://www.w3.org/2000/svg" xml:space="preserve"  version="1.1" style="shape-rendering:geometricPrecision; text-rendering:geometricPrecision; image-rendering:optimizeQuality; fill-rule:evenodd; clip-rule:evenodd"
viewBox="0 0 50 50"
 xmlns:xlink="http://www.w3.org/1999/xlink">
 <defs>
  <style type="text/css">
   <![CDATA[
    .fil2 {fill:black}
    .fil0 {fill:#FAC100}
    .fil1 {fill:white}
   ]]>
  </style>
 </defs>
 <g id="Layer_x0020_1">
  <animateTransform attributeName="transform" begin = "0" type="rotate" values = "0;10;0" dur="4s"  repeatCount="indefinite"/>
  <metadata id="CorelCorpID_0Corel-Layer"/>
  <path class="fil0" d="M33 3c8,2 13,10 12,19 -1,11 -10,19 -20,19 -9,0 -16,-7 -18,-16 3,2 6,4 10,4 9,0 17,-8 18,-17 0,-3 -1,-7 -2,-9z"/>
  <polygon class="fil1" points="17,0 16,2 18,3 16,3 16,5 15,4 13,4 15,2 14,1 15,1 "/>
  <polygon class="fil1" points="13,11 15,12 18,10 16,13 18,14 16,15 14,17 14,15 11,15 13,13 "/>
  <polygon class="fil1" points="4,12 3,14 5,15 3,15 2,16 2,14 0,14 2,13 1,11 3,13 "/>
  <ellipse class="fil1" cx="37" cy="25" rx="1" ry="2"/>
  <circle class="fil2" cx="37" cy="25" r="1"/>
  <circle class="fil1" cx="34" cy="23" r="2"/>
  <circle class="fil2" cx="34" cy="23" r="1"/>
  <ellipse class="fil2" transform="matrix(0.827663 1.10595 -0.128914 0.0964756 34.8925 21.9137)" rx="2" ry="2"/>
  <ellipse class="fil2" transform="matrix(-1.33293 0.362543 0.0422594 0.155372 37.4062 23.095)" rx="2" ry="2"/>
  <path class="fil1" d="M30 30c4,1 9,0 8,2 -2,2 -7,3 -11,2 -4,-1 -6,-4 -5,-6 2,-2 3,1 8,2z"/>
 </g>
</svg>
