<?xml version="1.0" encoding="UTF-8"?>
<!DOCTYPE svg PUBLIC "-//W3C//DTD SVG 1.1//EN" "http://www.w3.org/Graphics/SVG/1.1/DTD/svg11.dtd">
<!-- Creator: CorelDRAW X6 -->
<svg xmlns="http://www.w3.org/2000/svg" xml:space="preserve" width="204px" height="204px" version="1.1" style="shape-rendering:geometricPrecision; text-rendering:geometricPrecision; image-rendering:optimizeQuality; fill-rule:evenodd; clip-rule:evenodd"
viewBox="0 0 31 31"
 xmlns:xlink="http://www.w3.org/1999/xlink">
 <defs>
  <style type="text/css">
   <![CDATA[
    .fil4 {fill:black}
    .fil2 {fill:#666666}
    .fil0 {fill:#999999}
    .fil1 {fill:#B3B3B3}
    .fil3 {fill:#CCCCCC}
   ]]>
  </style>
 </defs>
 <g id="Layer_x0020_1" style="opacity:.9">
  <metadata id="CorelCorpID_0Corel-Layer"/>
  <rect class="fil0" width="31" height="31" rx="5" ry="5"/>
  <circle class="fil1" cx="16" cy="16" r="14"/>
  <circle class="fil2" cx="16" cy="16" r="13"/>
  <circle class="fil3" cx="3" cy="3" r="1"/>
  <circle class="fil3" cx="27" cy="3" r="1"/>
  <circle class="fil3" cx="27" cy="29" r="1"/>
  <circle class="fil3" cx="3" cy="28" r="1"/>
  <polygon class="fil4" points="10,8 10,7 10,7 10,8 "/>
  <polygon class="fil4" points="12,8 12,7 11,7 11,8 "/>
  <polygon class="fil4" points="13,8 13,7 13,7 13,8 "/>
  <polygon class="fil4" points="15,8 15,7 14,7 14,8 "/>
  <polygon class="fil4" points="16,8 16,7 16,7 16,8 "/>
  <polygon class="fil4" points="18,8 18,7 17,7 17,8 "/>
  <polygon class="fil4" points="20,8 20,7 19,7 19,8 "/>
  <polygon class="fil4" points="21,8 21,7 20,7 20,8 "/>
  <polygon class="fil4" points="23,8 23,7 22,7 22,8 "/>
  <polygon class="fil4" points="9,10 9,9 8,9 8,10 "/>
  <polygon class="fil4" points="10,10 10,9 10,9 10,10 "/>
  <polygon class="fil4" points="12,10 12,9 11,9 11,10 "/>
  <polygon class="fil4" points="13,10 13,9 13,9 13,10 "/>
  <polygon class="fil4" points="15,10 15,9 14,9 14,10 "/>
  <polygon class="fil4" points="16,10 16,9 16,9 16,10 "/>
  <polygon class="fil4" points="18,10 18,9 17,9 17,10 "/>
  <polygon class="fil4" points="20,10 20,9 19,9 19,10 "/>
  <polygon class="fil4" points="21,10 21,9 20,9 20,10 "/>
  <polygon class="fil4" points="23,10 23,9 22,9 22,10 "/>
  <polygon class="fil4" points="24,10 24,9 23,9 23,10 "/>
  <polygon class="fil4" points="7,12 7,11 7,11 7,12 "/>
  <polygon class="fil4" points="9,12 9,11 8,11 8,12 "/>
  <polygon class="fil4" points="10,12 10,11 10,11 10,12 "/>
  <polygon class="fil4" points="12,12 12,11 11,11 11,12 "/>
  <polygon class="fil4" points="13,12 13,11 13,11 13,12 "/>
  <polygon class="fil4" points="15,12 15,11 14,11 14,12 "/>
  <polygon class="fil4" points="16,12 16,11 16,11 16,12 "/>
  <polygon class="fil4" points="18,12 18,11 17,11 17,12 "/>
  <polygon class="fil4" points="20,12 20,11 19,11 19,12 "/>
  <polygon class="fil4" points="21,12 21,11 20,11 20,12 "/>
  <polygon class="fil4" points="23,12 23,11 22,11 22,12 "/>
  <polygon class="fil4" points="24,12 24,11 23,11 23,12 "/>
  <polygon class="fil4" points="7,13 7,12 7,12 7,13 "/>
  <polygon class="fil4" points="9,13 9,12 8,12 8,13 "/>
  <polygon class="fil4" points="10,13 10,12 10,12 10,13 "/>
  <polygon class="fil4" points="12,13 12,12 11,12 11,13 "/>
  <polygon class="fil4" points="13,13 13,12 13,12 13,13 "/>
  <polygon class="fil4" points="15,13 15,12 14,12 14,13 "/>
  <polygon class="fil4" points="16,13 16,12 16,12 16,13 "/>
  <polygon class="fil4" points="18,13 18,12 17,12 17,13 "/>
  <polygon class="fil4" points="20,13 20,12 19,12 19,13 "/>
  <polygon class="fil4" points="21,13 21,12 20,12 20,13 "/>
  <polygon class="fil4" points="23,13 23,12 22,12 22,13 "/>
  <polygon class="fil4" points="24,13 24,12 23,12 23,13 "/>
  <polygon class="fil4" points="7,15 7,14 7,14 7,15 "/>
  <polygon class="fil4" points="9,15 9,14 8,14 8,15 "/>
  <polygon class="fil4" points="10,15 10,14 10,14 10,15 "/>
  <polygon class="fil4" points="12,15 12,14 11,14 11,15 "/>
  <polygon class="fil4" points="13,15 13,14 13,14 13,15 "/>
  <polygon class="fil4" points="15,15 15,14 14,14 14,15 "/>
  <polygon class="fil4" points="16,15 16,14 16,14 16,15 "/>
  <polygon class="fil4" points="18,15 18,14 17,14 17,15 "/>
  <polygon class="fil4" points="20,15 20,14 19,14 19,15 "/>
  <polygon class="fil4" points="21,15 21,14 20,14 20,15 "/>
  <polygon class="fil4" points="23,15 23,14 22,14 22,15 "/>
  <polygon class="fil4" points="24,15 24,14 23,14 23,15 "/>
  <polygon class="fil4" points="7,17 7,16 7,16 7,17 "/>
  <polygon class="fil4" points="9,17 9,16 8,16 8,17 "/>
  <polygon class="fil4" points="10,17 10,16 10,16 10,17 "/>
  <polygon class="fil4" points="12,17 12,16 11,16 11,17 "/>
  <polygon class="fil4" points="13,17 13,16 13,16 13,17 "/>
  <polygon class="fil4" points="15,17 15,16 14,16 14,17 "/>
  <polygon class="fil4" points="16,17 16,16 16,16 16,17 "/>
  <polygon class="fil4" points="18,17 18,16 17,16 17,17 "/>
  <polygon class="fil4" points="20,17 20,16 19,16 19,17 "/>
  <polygon class="fil4" points="21,17 21,16 20,16 20,17 "/>
  <polygon class="fil4" points="23,17 23,16 22,16 22,17 "/>
  <polygon class="fil4" points="24,17 24,16 23,16 23,17 "/>
  <polygon class="fil4" points="7,19 7,18 7,18 7,19 "/>
  <polygon class="fil4" points="9,19 9,18 8,18 8,19 "/>
  <polygon class="fil4" points="10,19 10,18 10,18 10,19 "/>
  <polygon class="fil4" points="12,19 12,18 11,18 11,19 "/>
  <polygon class="fil4" points="13,19 13,18 13,18 13,19 "/>
  <polygon class="fil4" points="15,19 15,18 14,18 14,19 "/>
  <polygon class="fil4" points="16,19 16,18 16,18 16,19 "/>
  <polygon class="fil4" points="18,19 18,18 17,18 17,19 "/>
  <polygon class="fil4" points="20,19 20,18 19,18 19,19 "/>
  <polygon class="fil4" points="21,19 21,18 20,18 20,19 "/>
  <polygon class="fil4" points="23,19 23,18 22,18 22,19 "/>
  <polygon class="fil4" points="24,19 24,18 23,18 23,19 "/>
  <polygon class="fil4" points="7,20 7,19 7,19 7,20 "/>
  <polygon class="fil4" points="9,20 9,19 8,19 8,20 "/>
  <polygon class="fil4" points="10,20 10,19 10,19 10,20 "/>
  <polygon class="fil4" points="12,20 12,19 11,19 11,20 "/>
  <polygon class="fil4" points="13,20 13,19 13,19 13,20 "/>
  <polygon class="fil4" points="15,20 15,19 14,19 14,20 "/>
  <polygon class="fil4" points="16,20 16,19 16,19 16,20 "/>
  <polygon class="fil4" points="18,20 18,19 17,19 17,20 "/>
  <polygon class="fil4" points="20,20 20,19 19,19 19,20 "/>
  <polygon class="fil4" points="21,20 21,19 20,19 20,20 "/>
  <polygon class="fil4" points="23,20 23,19 22,19 22,20 "/>
  <polygon class="fil4" points="24,20 24,19 23,19 23,20 "/>
  <polygon class="fil4" points="9,22 9,21 8,21 8,22 "/>
  <polygon class="fil4" points="10,22 10,21 10,21 10,22 "/>
  <polygon class="fil4" points="12,22 12,21 11,21 11,22 "/>
  <polygon class="fil4" points="13,22 13,21 13,21 13,22 "/>
  <polygon class="fil4" points="15,22 15,21 14,21 14,22 "/>
  <polygon class="fil4" points="16,22 16,21 16,21 16,22 "/>
  <polygon class="fil4" points="18,22 18,21 17,21 17,22 "/>
  <polygon class="fil4" points="20,22 20,21 19,21 19,22 "/>
  <polygon class="fil4" points="21,22 21,21 20,21 20,22 "/>
  <polygon class="fil4" points="23,22 23,21 22,21 22,22 "/>
  <polygon class="fil4" points="24,22 24,21 23,21 23,22 "/>
  <polygon class="fil4" points="10,24 10,23 10,23 10,24 "/>
  <polygon class="fil4" points="12,24 12,23 11,23 11,24 "/>
  <polygon class="fil4" points="13,24 13,23 13,23 13,24 "/>
  <polygon class="fil4" points="15,24 15,23 14,23 14,24 "/>
  <polygon class="fil4" points="16,24 16,23 16,23 16,24 "/>
  <polygon class="fil4" points="18,24 18,23 17,23 17,24 "/>
  <polygon class="fil4" points="20,24 20,23 19,23 19,24 "/>
  <polygon class="fil4" points="21,24 21,23 20,23 20,24 "/>
  <polygon class="fil4" points="23,24 23,23 22,23 22,24 "/>
  <polygon class="fil4" points="12,26 12,25 11,25 11,26 "/>
  <polygon class="fil4" points="13,26 13,25 13,25 13,26 "/>
  <polygon class="fil4" points="15,26 15,25 14,25 14,26 "/>
  <polygon class="fil4" points="16,26 16,25 16,25 16,26 "/>
  <polygon class="fil4" points="18,26 18,25 17,25 17,26 "/>
  <polygon class="fil4" points="20,26 20,25 19,25 19,26 "/>
  <path class="fil4" d="M14 5c0,0 0,0 1,0l0 2 -1 0 0 -2z"/>
  <path class="fil4" d="M13 5c0,0 0,0 1,0l0 1 -1 0 0 -1z"/>
  <path class="fil4" d="M11 6c0,0 0,0 1,0l0 1 -1 0 0 -1z"/>
  <path class="fil4" d="M10 6c0,0 0,0 0,0l0 0 0 0z"/>
  <path class="fil4" d="M8 8c0,0 0,0 1,-1l0 0 0 1 -1 0 0 0z"/>
  <path class="fil4" d="M7 10c0,0 0,0 0,-1l0 0 0 1 -1 0 0 0z"/>
  <path class="fil4" d="M5 12c0,0 0,0 0,-1l0 1 0 0z"/>
  <path class="fil4" d="M5 13c0,0 0,-1 0,-1l1 0 0 1 -1 0z"/>
  <path class="fil4" d="M5 15c0,0 0,-1 0,-1l1 0 0 1 -1 0z"/>
  <path class="fil4" d="M5 17c0,0 0,-1 0,-1l1 0 0 1 -1 0z"/>
  <path class="fil4" d="M5 19c0,0 0,-1 0,-1l1 0 0 1 -1 0z"/>
  <path class="fil4" d="M6 20c0,0 0,-1 0,-1l0 0 0 1 0 0z"/>
  <path class="fil4" d="M7 22c0,0 0,0 0,0l0 -1 1 0 0 1 -1 0z"/>
  <path class="fil4" d="M8 24c0,0 0,0 0,0l0 -1 1 0 0 1 -1 0z"/>
  <path class="fil4" d="M10 25c0,0 0,0 -1,0l0 0 1 0 0 1z"/>
  <path class="fil4" d="M13 27c0,0 0,0 0,0l0 0 0 0z"/>
  <path class="fil4" d="M15 27c0,0 0,0 -1,0l0 0 1 0 0 0z"/>
  <path class="fil4" d="M16 27c0,0 0,0 -1,0l0 0 1 0 0 0z"/>
  <path class="fil4" d="M18 27c0,0 0,0 -1,0l0 0 1 0 0 0z"/>
  <path class="fil4" d="M21 25c0,0 0,0 0,0l0 0 0 -1 1 0 0 1z"/>
  <path class="fil4" d="M22 25c0,0 0,0 0,0l0 0 0 0z"/>
  <path class="fil4" d="M24 23c0,0 0,0 -1,1l0 -1 1 0z"/>
  <path class="fil4" d="M25 21c0,0 0,0 0,1l0 -1 0 0z"/>
  <path class="fil4" d="M26 19c0,0 0,1 0,1l-1 0 0 -1 1 0z"/>
  <path class="fil4" d="M27 18c0,0 0,1 0,1l-1 0 0 -1 2 0z"/>
  <path class="fil4" d="M27 16c0,0 0,1 0,1l-2 0 0 -1 2 0z"/>
  <path class="fil4" d="M27 14c0,0 0,1 0,1l-2 0 0 -1 2 0z"/>
  <path class="fil4" d="M26 12c0,0 0,1 0,1l-2 0 0 -1 1 0z"/>
  <path class="fil4" d="M26 11c0,0 0,1 0,1l-1 0 0 -1 1 0z"/>
  <path class="fil4" d="M25 10c0,0 0,0 0,0l0 0 0 0z"/>
  <path class="fil4" d="M23 8c0,0 0,0 0,0l0 0 0 0z"/>
  <path class="fil4" d="M20 6c0,0 0,0 1,0l0 0 -1 0 0 -1z"/>
  <path class="fil4" d="M19 5c0,0 0,0 1,0l0 1 -1 0 0 -1z"/>
  <path class="fil4" d="M17 5c0,0 0,0 1,0l0 1 -1 0 0 -2z"/>
  <path class="fil4" d="M16 5c0,0 0,0 1,0l0 2 -1 0 0 -2z"/>
 </g>
</svg>
