<?xml version="1.0" encoding="UTF-8"?>
<!DOCTYPE svg PUBLIC "-//W3C//DTD SVG 1.1//EN" "http://www.w3.org/Graphics/SVG/1.1/DTD/svg11.dtd">
<!-- Creator: CorelDRAW X6 -->
<svg xmlns="http://www.w3.org/2000/svg" xml:space="preserve" width="1181px" height="60px" version="1.1" style="shape-rendering:geometricPrecision; text-rendering:geometricPrecision; image-rendering:optimizeQuality; fill-rule:evenodd; clip-rule:evenodd"
viewBox="0 0 5909 298"
 xmlns:xlink="http://www.w3.org/1999/xlink">
 <defs>
  <style type="text/css">
   <![CDATA[
    .str0 {stroke:black;stroke-width:2.83742}
    .fil0 {fill:#00CCFF}
   ]]>
  </style>
 </defs>
 <g id="Layer_x0020_1">
  <metadata id="CorelCorpID_0Corel-Layer"/>
  <g id="_733974416">
   <rect class="fil0 str0" transform="matrix(2.64845E-014 -1 1 2.64845E-014 1.41871 296.708)" width="295" height="295"/>
   <rect class="fil0 str0" transform="matrix(2.64845E-014 -1 1 2.64845E-014 2954.31 296.708)" width="295" height="295"/>
   <rect class="fil0 str0" transform="matrix(2.64845E-014 -1 1 2.64845E-014 296.708 296.708)" width="295" height="295"/>
   <rect class="fil0 str0" transform="matrix(2.64845E-014 -1 1 2.64845E-014 3249.6 296.708)" width="295" height="295"/>
   <rect class="fil0 str0" transform="matrix(2.64845E-014 -1 1 2.64845E-014 591.997 296.708)" width="295" height="295"/>
   <rect class="fil0 str0" transform="matrix(2.64845E-014 -1 1 2.64845E-014 3544.89 296.708)" width="295" height="295"/>
   <rect class="fil0 str0" transform="matrix(2.64845E-014 -1 1 2.64845E-014 887.286 296.708)" width="295" height="295"/>
   <rect class="fil0 str0" transform="matrix(2.64845E-014 -1 1 2.64845E-014 3840.18 296.708)" width="295" height="295"/>
   <rect class="fil0 str0" transform="matrix(2.64845E-014 -1 1 2.64845E-014 1182.57 296.708)" width="295" height="295"/>
   <rect class="fil0 str0" transform="matrix(2.64845E-014 -1 1 2.64845E-014 4135.46 296.708)" width="295" height="295"/>
   <rect class="fil0 str0" transform="matrix(2.64845E-014 -1 1 2.64845E-014 1477.86 296.708)" width="295" height="295"/>
   <rect class="fil0 str0" transform="matrix(2.64845E-014 -1 1 2.64845E-014 4430.75 296.708)" width="295" height="295"/>
   <rect class="fil0 str0" transform="matrix(2.64845E-014 -1 1 2.64845E-014 1773.15 296.708)" width="295" height="295"/>
   <rect class="fil0 str0" transform="matrix(2.64845E-014 -1 1 2.64845E-014 4726.04 296.708)" width="295" height="295"/>
   <rect class="fil0 str0" transform="matrix(2.64845E-014 -1 1 2.64845E-014 2068.44 296.708)" width="295" height="295"/>
   <rect class="fil0 str0" transform="matrix(2.64845E-014 -1 1 2.64845E-014 5021.33 296.708)" width="295" height="295"/>
   <rect class="fil0 str0" transform="matrix(2.64845E-014 -1 1 2.64845E-014 2363.73 296.708)" width="295" height="295"/>
   <rect class="fil0 str0" transform="matrix(2.64845E-014 -1 1 2.64845E-014 5316.62 296.708)" width="295" height="295"/>
   <rect class="fil0 str0" transform="matrix(2.64845E-014 -1 1 2.64845E-014 2659.02 296.708)" width="295" height="295"/>
   <rect class="fil0 str0" transform="matrix(2.64845E-014 -1 1 2.64845E-014 5611.91 296.708)" width="295" height="295"/>
  </g>
 </g>
</svg>
