<?xml version="1.0" encoding="UTF-8"?>
<!DOCTYPE svg PUBLIC "-//W3C//DTD SVG 1.1//EN" "http://www.w3.org/Graphics/SVG/1.1/DTD/svg11.dtd">
<!-- Creator: CorelDRAW X6 -->
<svg xmlns="http://www.w3.org/2000/svg" xml:space="preserve"  version="1.1" style="shape-rendering:geometricPrecision; text-rendering:geometricPrecision; image-rendering:optimizeQuality; fill-rule:evenodd; clip-rule:evenodd"
viewBox="0 0 22 15"
 xmlns:xlink="http://www.w3.org/1999/xlink">
 <defs>
  <style type="text/css">
   <![CDATA[
    .str0 {stroke:#99FFFF;stroke-width:0.1}
    .fil0 {fill:#666666}
    .fil1 {fill:#999999}
    .fil2 {fill:rgba(255,255,255,0);}
	 .fil3 {fill:gray}
	 .fil4 {fill:#99CCCC}
	.Layer{box-shadow: 10px 0px 0px #000010;}
   ]]>
  </style>
   <filter id="f3" x="0" y="0" width="200%" height="200%">
		  <feOffset result="offOut" in="SourceAlpha" dx="1" dy="2" />
		  <feGaussianBlur result="blurOut" in="offOut" stdDeviation="1" />
		  <feBlend in="SourceGraphic" in2="blurOut" mode="normal" />
		</filter>
 </defs>
 <g id="Layer" >
  <path class="fil0" filter="url(#f3)" transform="translate(0,1)" d="M5 0l0 0 6 0 0 10 -6 0c0,0 0,0 0,0 0,0 -1,-1 -1,-3l-4 0 0 0c0,0 0,0 0,0 0,0 -1,-1 -1,-2 0,-1 0,-2 1,-2 0,0 0,0 0,0l0 0 4 0c0,-2 0,-3 1,-3l0 0z"/>
   <path class="fil1"  d="M7 0l6 0 0 0 0 0c1,1 1,3 1,6 0,3 0,5 -1,6l0 0 0 0 -6 0 0 0c-1,0 -1,-3 -1,-6 0,-3 1,-6 1,-6l0 0z"/>
    <ellipse class="fil0"  cx="12" cy="6" rx="1" ry="5"/>
	<path class="fil3" d="M6 9c0,3 2,2 5,2 1,0 0,-3 -2,-2 0,0 -3,0 -3,-1 0,0 0,0 0,1z"/>
  <path class="fil4" d="M11 0c0,1 -1,1 -2,1 -2,0 -2,0 -2,0 0,0 1,0 0,-1l4 0z"/>
  <path class="fil4" d="M1 4c0,1 1,1 2,1 2,0 2,0 2,0 0,0 -1,0 0,-1l-4 0z"/>
   <circle fill="rgba(255,255,255,0)" stroke="rgba(253,255,255,0)" stroke-width="0.1" cx="16" cy="6" r="1">
	  <animate attributeName = "cx" begin = "0" dur = "1s" repeatCount="indefinite" values = "12;22"/>
	  <animate attributeName = "cy" begin = "0" dur = "1s" repeatCount="indefinite" values = "6;8;4;8;7"/>
	  <animate attributeName = "fill" begin = "0" dur = "1s" repeatCount="indefinite" values = "rgba(255,255,255,1);rgba(255,255,255,0)"/>
	<animate attributeName = "stroke" begin = "0" dur = "1s" repeatCount="indefinite" values = "rgba(153,255,255,1);rgba(153,255,255,0)"/>

  </circle>
  <circle fill="rgba(255,255,255,0)"  stroke="rgba(253,255,255,0)" stroke-width="0.1" cx="16" cy="6" r=".5">
	  <animate attributeName = "cx" begin = "0" dur = "1.3s" repeatCount="indefinite" values = "12;22"/>
	  <animate attributeName = "cy" begin = "0" dur = "1.3s" repeatCount="indefinite" values = "10;8;11"/>
	  <animate attributeName = "fill" begin = "0" dur = "1.3s" repeatCount="indefinite" values = "rgba(255,255,255,1);rgba(255,255,255,0)"/>
	<animate attributeName = "stroke" begin = "0" dur = "1.3s" repeatCount="indefinite" values = "rgba(153,255,255,1);rgba(153,255,255,0)"/>

  </circle>
  
   <circle fill="rgba(255,255,255,0)" stroke="rgba(253,255,255,0)" stroke-width="0.1" cx="16" cy="6" r=".6">
	  <animate attributeName = "cx" begin = "0" dur = "1s" repeatCount="indefinite" values = "12;22"/>
	  <animate attributeName = "cy" begin = "0" dur = "1s" repeatCount="indefinite" values = "3;8;3"/>
	  <animate attributeName = "fill" begin = "0" dur = "1s" repeatCount="indefinite" values = "rgba(255,255,255,1);rgba(255,255,255,0)"/>
	<animate attributeName = "stroke" begin = "0" dur = "1s" repeatCount="indefinite" values = "rgba(153,255,255,1);rgba(153,255,255,0)"/>

  </circle>
  
  <circle fill="rgba(255,255,255,0)" stroke="rgba(253,255,255,0)" stroke-width="0.1" cx="16" cy="6" r=".4">
	  <animate attributeName = "cx" begin = "0" dur = "1.5s" repeatCount="indefinite" values = "12;22"/>
	  <animate attributeName = "cy" begin = "0" dur = "1.5s" repeatCount="indefinite" values = "7;3;7"/>
	  <animate attributeName = "fill" begin = "0" dur = "1.5s" repeatCount="indefinite" values = "rgba(255,255,255,1);rgba(255,255,255,0)"/>
	<animate attributeName = "stroke" begin = "0" dur = "1.5s" repeatCount="indefinite" values = "rgba(153,255,255,1);rgba(153,255,255,0)"/>
 </circle>
	
	<circle fill="rgba(255,255,255,0)" stroke="rgba(253,255,255,0)" stroke-width="0.1" cx="16" cy="6" r=".4">
	  <animate attributeName = "cx" begin = "0.3s" dur = "1.5s" repeatCount="indefinite" values = "12;22"/>
	  <animate attributeName = "cy" begin = "0.3s" dur = "1.5s" repeatCount="indefinite" values = "10;3;5"/>
	  <animate attributeName = "fill" begin = "0.3s" dur = "1.5s" repeatCount="indefinite" values = "rgba(255,255,255,1);rgba(255,255,255,0)"/>
	<animate attributeName = "stroke" begin = "0.3s" dur = "1.5s" repeatCount="indefinite" values = "rgba(153,255,255,1);rgba(153,255,255,0)"/>

  </circle>
  
  <circle fill="rgba(255,255,255,0)" stroke="rgba(253,255,255,0)" stroke-width="0.1" cx="16" cy="6" r=".7">
	  <animate attributeName = "cx" begin = "0.3s" dur = "1.5s" repeatCount="indefinite" values = "12;22"/>
	  <animate attributeName = "cy" begin = "0.3s" dur = "1.5s" repeatCount="indefinite" values = "11;3"/>
	  <animate attributeName = "fill" begin = "0.3s" dur = "1.5s" repeatCount="indefinite" values = "rgba(255,255,255,1);rgba(255,255,255,0)"/>
	<animate attributeName = "stroke" begin = "0.3s" dur = "1.5s" repeatCount="indefinite" values = "rgba(153,255,255,1);rgba(153,255,255,0)"/>

  </circle>
  
  <circle fill="rgba(255,255,255,0)" stroke="rgba(253,255,255,0)" stroke-width="0.1" cx="16" cy="6" r=".5">
	  <animate attributeName = "cx" begin = "0.3s" dur = "1.2s" repeatCount="indefinite" values = "12;22"/>
	  <animate attributeName = "cy" begin = "0.3s" dur = "1.2s" repeatCount="indefinite" values = "2;2;0"/>
	  <animate attributeName = "fill" begin = "0.3s" dur = "1.2s" repeatCount="indefinite" values = "rgba(255,255,255,1);rgba(255,255,255,0)"/>
	<animate attributeName = "stroke" begin = "0.3s" dur = "1.2s" repeatCount="indefinite" values = "rgba(153,255,255,1);rgba(153,255,255,0)"/>

  </circle>
  
 </g>
</svg>
