<?xml version="1.0" encoding="UTF-8"?>
<!DOCTYPE svg PUBLIC "-//W3C//DTD SVG 1.1//EN" "http://www.w3.org/Graphics/SVG/1.1/DTD/svg11.dtd">
<!-- Creator: CorelDRAW X6 -->
<svg xmlns="http://www.w3.org/2000/svg" xml:space="preserve" width="514px" height="411px" version="1.1" style="shape-rendering:geometricPrecision; text-rendering:geometricPrecision; image-rendering:optimizeQuality; fill-rule:evenodd; clip-rule:evenodd"
viewBox="0 0 430 345"
 xmlns:xlink="http://www.w3.org/1999/xlink">
 <defs>
  <style type="text/css">
   <![CDATA[
    .str0 {stroke:#FFCC00;stroke-width:0.181039}
    .fil0 {fill:#FFFF99}
    .fil1 {fill:#FFCC00;fill-rule:nonzero}
   ]]>
  </style>
  <filter id="shadow">
        <feGaussianBlur in="SourceAlpha" stdDeviation="5" result="blur"/>
        <feOffset in="blur" dx="0" dy="0" result="offsetBlr" />
        <feFlood flood-color="#FFCC00"/>
        <feComposite operator="in" in2="offsetBlr" result="colBlur"/>
        <feMerge>
          <feMergeNode in="colBlur"/>
          <feMergeNode in="SourceGraphic"/>
        </feMerge>
      </filter>
 </defs>
 <g id="Layer_x0020_1" filter="url('#shadow')">
  <metadata id="CorelCorpID_0Corel-Layer"/>
  <path class="fil0" d="M188 279c-18,21 -19,44 -43,65l-145 0 0 -2c9,-7 19,-14 28,-22 29,-27 67,-21 96,-48 10,-9 44,-89 57,-106 39,-48 27,-122 25,-168l97 0c5,51 -14,140 -7,199 3,25 54,58 59,64 20,24 38,33 58,63 5,7 11,14 18,19l-114 0c-16,-22 -16,-45 -33,-65 -22,-27 -74,-25 -96,0z"/>
  <g id="_872640032">
   <path class="fil1 str0" d="M251 23c0,0 -1,0 -1,1 0,1 0,1 1,1 0,0 1,0 1,-1 0,-1 0,-1 -1,-1zm3 -1c-1,0 -1,1 -1,2 0,1 1,1 2,1 1,0 1,-1 1,-2 0,-1 -1,-1 -2,-1zm4 0c-1,0 -1,1 -1,2 0,1 1,2 2,2 1,0 1,-1 1,-2 0,-1 -1,-2 -2,-2zm3 1c0,1 1,1 2,1 1,0 1,-1 1,-2 0,-1 -1,-1 -2,-1 -1,0 -1,1 -1,2zm-10 -3c0,2 2,0 5,1 3,0 6,-1 6,-1 2,-1 1,-5 -1,-5 -2,0 -5,1 -6,1 -1,0 1,-1 3,-3 2,-2 3,-5 2,-7 -1,-2 -7,2 -7,4 -1,2 -1,7 -1,9z"/>
   <path class="fil1 str0" d="M268 41c0,0 1,1 1,1 0,1 0,1 -1,1 0,0 -1,-1 -1,-1 0,-1 0,-1 1,-1zm-3 -1c1,0 1,1 1,2 0,1 -1,1 -2,1 -1,0 -1,-1 -1,-2 0,-1 1,-1 2,-1zm-4 -1c1,0 1,1 1,2 0,1 -1,2 -2,1 -1,0 -1,-1 -1,-2 0,-1 1,-2 2,-1zm-3 1c0,1 -1,1 -2,1 -1,0 -1,-1 -1,-2 0,-1 1,-1 2,-1 1,0 1,1 1,2zm10 -2c-1,2 -2,0 -5,0 -3,0 -5,-1 -5,-1 -2,-1 0,-5 2,-5 2,0 5,2 6,2 1,0 -1,-1 -3,-3 -1,-2 -2,-5 -1,-7 1,-2 6,3 7,5 0,2 0,7 0,9z"/>
  </g>
  <g id="_872641568">
   <path class="fil1 str0" d="M241 65c0,0 -1,0 -1,1 0,1 0,1 1,1 0,0 1,0 1,-1 0,-1 0,-1 -1,-1zm3 -1c-1,0 -1,1 -1,2 0,1 1,1 2,1 1,0 1,-1 1,-2 0,-1 -1,-1 -2,-1zm4 0c-1,0 -1,1 -1,2 0,1 1,2 2,2 1,0 1,-1 1,-2 0,-1 -1,-2 -2,-2zm3 1c0,1 1,1 2,1 1,0 1,-1 1,-2 0,-1 -1,-1 -2,-1 -1,0 -1,1 -1,2zm-10 -3c0,2 2,0 5,1 3,0 6,-1 6,-1 2,-1 1,-5 -1,-5 -2,0 -5,1 -6,1 -1,0 1,-1 3,-3 2,-2 3,-5 2,-7 -1,-2 -7,2 -7,4 -1,2 -1,7 -1,9z"/>
   <path class="fil1 str0" d="M258 84c0,0 1,1 1,1 0,1 0,1 -1,1 0,0 -1,-1 -1,-1 0,-1 0,-1 1,-1zm-3 -1c1,0 1,1 1,2 0,1 -1,1 -2,1 -1,0 -1,-1 -1,-2 0,-1 1,-1 2,-1zm-4 -1c1,0 1,1 1,2 0,1 -1,2 -2,1 -1,0 -1,-1 -1,-2 0,-1 1,-2 2,-1zm-3 1c0,1 -1,1 -2,1 -1,0 -1,-1 -1,-2 0,-1 1,-1 2,-1 1,0 1,1 1,2zm10 -2c-1,2 -2,0 -5,0 -3,0 -5,-1 -5,-1 -2,-1 0,-5 2,-5 2,0 5,2 6,2 1,0 -1,-1 -3,-3 -1,-2 -2,-5 -1,-7 1,-2 6,3 7,5 0,2 0,7 0,9z"/>
  </g>
  <g id="_872638912">
   <path class="fil1 str0" d="M232 108c0,0 -1,0 -1,1 0,1 0,1 1,1 0,0 1,0 1,-1 0,-1 0,-1 -1,-1zm3 -1c-1,0 -1,1 -1,2 0,1 1,1 2,1 1,0 1,-1 1,-2 0,-1 -1,-1 -2,-1zm4 0c-1,0 -1,1 -1,2 0,1 1,2 2,2 1,0 1,-1 1,-2 0,-1 -1,-2 -2,-2zm3 1c0,1 1,1 2,1 1,0 1,-1 1,-2 0,-1 -1,-1 -2,-1 -1,0 -1,1 -1,2zm-10 -3c0,2 2,0 5,1 3,0 6,-1 6,-1 2,-1 1,-5 -1,-5 -2,0 -5,1 -6,1 -1,0 1,-1 3,-3 2,-2 3,-5 2,-7 -1,-2 -7,2 -7,4 -1,2 -1,7 -1,9z"/>
   <path class="fil1 str0" d="M249 126c0,0 1,1 1,1 0,1 0,1 -1,1 0,0 -1,-1 -1,-1 0,-1 0,-1 1,-1zm-3 -1c1,0 1,1 1,2 0,1 -1,1 -2,1 -1,0 -1,-1 -1,-2 0,-1 1,-1 2,-1zm-4 -1c1,0 1,1 1,2 0,1 -1,2 -2,1 -1,0 -1,-1 -1,-2 0,-1 1,-2 2,-1zm-3 1c0,1 -1,1 -2,1 -1,0 -1,-1 -1,-2 0,-1 1,-1 2,-1 1,0 1,1 1,2zm10 -2c-1,2 -2,0 -5,0 -3,0 -5,-1 -5,-1 -2,-1 0,-5 2,-5 2,0 5,2 6,2 1,0 -1,-1 -3,-3 -1,-2 -2,-5 -1,-7 1,-2 6,3 7,5 0,2 0,7 0,9z"/>
  </g>
  <g id="_870694288">
   <path class="fil1 str0" d="M223 151c0,0 -1,0 -1,1 0,1 0,1 1,1 0,0 1,0 1,-1 0,-1 0,-1 -1,-1zm3 -1c-1,0 -1,1 -1,2 0,1 1,1 2,1 1,0 1,-1 1,-2 0,-1 -1,-1 -2,-1zm4 0c-1,0 -1,1 -1,2 0,1 1,2 2,2 1,0 1,-1 1,-2 0,-1 -1,-2 -2,-2zm3 1c0,1 1,1 2,1 1,0 1,-1 1,-2 0,-1 -1,-1 -2,-1 -1,0 -1,1 -1,2zm-10 -3c0,2 2,0 5,1 3,0 6,-1 6,-1 2,-1 1,-5 -1,-5 -2,0 -5,1 -6,1 -1,0 1,-1 3,-3 2,-2 3,-5 2,-7 -1,-2 -7,2 -7,4 -1,2 -1,7 -1,9z"/>
   <path class="fil1 str0" d="M240 169c0,0 1,1 1,1 0,1 0,1 -1,1 0,0 -1,-1 -1,-1 0,-1 0,-1 1,-1zm-3 -1c1,0 1,1 1,2 0,1 -1,1 -2,1 -1,0 -1,-1 -1,-2 0,-1 1,-1 2,-1zm-4 -1c1,0 1,1 1,2 0,1 -1,2 -2,1 -1,0 -1,-1 -1,-2 0,-1 1,-2 2,-1zm-3 1c0,1 -1,1 -2,1 -1,0 -1,-1 -1,-2 0,-1 1,-1 2,-1 1,0 1,1 1,2zm10 -2c-1,2 -2,0 -5,0 -3,0 -5,-1 -5,-1 -2,-1 0,-5 2,-5 2,0 5,2 6,2 1,0 -1,-1 -3,-3 -1,-2 -2,-5 -1,-7 1,-2 6,3 7,5 0,2 0,7 0,9z"/>
  </g>
  <path class="fil1 str0" d="M211 187c0,0 -1,0 -1,0 0,0 -1,1 0,1 0,0 1,0 1,0 0,0 1,-1 0,-1zm3 2c-1,0 -2,0 -2,1 0,1 0,2 1,2 1,0 2,0 2,-1 0,-1 0,-2 -1,-2zm3 3c-1,0 -2,0 -2,1 -1,1 0,2 0,2 1,0 2,0 2,-1 1,-1 0,-2 0,-2zm1 3c0,1 0,2 1,2 1,0 2,0 2,-1 0,-1 0,-2 -1,-2 -1,0 -2,0 -2,1zm-5 -9c-1,2 1,2 3,4 2,2 4,3 4,3 2,1 4,-3 3,-4 -1,-2 -5,-2 -5,-3 -1,-1 2,0 4,0 2,0 5,-1 6,-3 1,-2 -6,-3 -8,-2 -2,1 -6,4 -7,6z"/>
  <path class="fil1 str0" d="M191 220c0,0 -1,0 -1,0 0,0 -1,1 0,1 0,0 1,0 1,0 0,0 1,-1 0,-1zm3 2c-1,0 -2,0 -2,1 0,1 0,2 1,2 1,0 2,0 2,-1 0,-1 0,-2 -1,-2zm3 3c-1,0 -2,0 -2,1 -1,1 0,2 0,2 1,0 2,0 2,-1 1,-1 0,-2 0,-2zm1 3c0,1 0,2 1,2 1,0 2,0 2,-1 0,-1 0,-2 -1,-2 -1,0 -2,0 -2,1zm-5 -9c-1,2 1,2 3,4 2,2 4,3 4,3 2,1 4,-3 3,-4 -1,-2 -5,-2 -5,-3 -1,-1 2,0 4,0 2,0 5,-1 6,-3 1,-2 -6,-3 -8,-2 -2,1 -6,4 -7,6z"/>
  <path class="fil1 str0" d="M162 255c0,0 -1,0 -1,0 0,0 -1,1 0,1 0,0 1,0 1,0 0,0 1,-1 0,-1zm3 2c-1,0 -2,0 -2,1 0,1 0,2 1,2 1,0 2,0 2,-1 0,-1 0,-2 -1,-2zm3 3c-1,0 -2,0 -2,1 -1,1 0,2 0,2 1,0 2,0 2,-1 1,-1 0,-2 0,-2zm1 3c0,1 0,2 1,2 1,0 2,0 2,-1 0,-1 0,-2 -1,-2 -1,0 -2,0 -2,1zm-5 -9c-1,2 1,2 3,4 2,2 4,3 4,3 2,1 4,-3 3,-4 -1,-2 -5,-2 -5,-3 -1,-1 2,0 4,0 2,0 5,-1 6,-3 1,-2 -6,-3 -8,-2 -2,1 -6,4 -7,6z"/>
  <path class="fil1 str0" d="M127 297c0,0 -1,0 -1,0 0,0 -1,1 0,1 0,0 1,0 1,0 0,0 1,-1 0,-1zm3 2c-1,0 -2,0 -2,1 0,1 0,2 1,2 1,0 2,0 2,-1 0,-1 0,-2 -1,-2zm3 3c-1,0 -2,0 -2,1 -1,1 0,2 0,2 1,0 2,0 2,-1 1,-1 0,-2 0,-2zm1 3c0,1 0,2 1,2 1,0 2,0 2,-1 0,-1 0,-2 -1,-2 -1,0 -2,0 -2,1zm-5 -9c-1,2 1,2 3,4 2,2 4,3 4,3 2,1 4,-3 3,-4 -1,-2 -5,-2 -5,-3 -1,-1 2,0 4,0 2,0 5,-1 6,-3 1,-2 -6,-3 -8,-2 -2,1 -6,4 -7,6z"/>
  <path class="fil1 str0" d="M94 334c0,0 -1,0 -1,0 0,0 -1,1 0,1 0,0 1,0 1,0 0,0 1,-1 0,-1zm3 2c-1,0 -2,0 -2,1 0,1 0,2 1,2 1,0 2,0 2,-1 0,-1 0,-2 -1,-2zm3 3c-1,0 -2,0 -2,1 -1,1 0,2 0,2 1,0 2,0 2,-1 1,-1 0,-2 0,-2zm1 3c0,1 0,2 1,2 1,0 2,0 2,-1 0,-1 0,-2 -1,-2 -1,0 -2,0 -2,1zm-5 -9c-1,2 1,2 3,4 2,2 4,3 4,3 2,1 4,-3 3,-4 -1,-2 -5,-2 -5,-3 -1,-1 2,0 4,0 2,0 5,-1 6,-3 1,-2 -6,-3 -8,-2 -2,1 -6,4 -7,6z"/>
  <path class="fil1 str0" d="M266 194c0,0 1,0 1,0 0,0 0,1 0,1 0,0 -1,0 -1,0 0,0 0,-1 0,-1zm-3 1c1,0 2,0 2,1 0,1 0,2 -1,2 -1,0 -2,0 -2,-1 0,-1 0,-2 1,-2zm-3 2c1,0 2,0 2,1 0,1 0,2 0,2 -1,0 -2,0 -2,-1 0,-1 0,-2 0,-2zm-2 3c0,1 0,2 -1,2 -1,0 -2,0 -2,-1 0,-1 0,-2 1,-2 1,0 2,0 2,1zm7 -8c1,2 -1,2 -3,3 -2,2 -5,3 -5,3 -2,0 -3,-3 -2,-5 2,-2 5,-2 6,-2 1,-1 -2,0 -4,-1 -2,0 -5,-2 -6,-4 -1,-2 7,-2 8,-1 2,1 5,5 6,7z"/>
  <path class="fil1 str0" d="M290 229c0,0 1,0 1,0 0,0 0,1 0,1 0,0 -1,0 -1,0 0,0 0,-1 0,-1zm-3 1c1,0 2,0 2,1 0,1 0,2 -1,2 -1,0 -2,0 -2,-1 0,-1 0,-2 1,-2zm-3 2c1,0 2,0 2,1 0,1 0,2 0,2 -1,0 -2,0 -2,-1 0,-1 0,-2 0,-2zm-2 3c0,1 0,2 -1,2 -1,0 -2,0 -2,-1 0,-1 0,-2 1,-2 1,0 2,0 2,1zm7 -8c1,2 -1,2 -3,3 -2,2 -5,3 -5,3 -2,0 -3,-3 -2,-5 2,-2 5,-2 6,-2 1,-1 -2,0 -4,-1 -2,0 -5,-2 -6,-4 -1,-2 7,-2 8,-1 2,1 5,5 6,7z"/>
  <path class="fil1 str0" d="M314 264c0,0 1,0 1,0 0,0 0,1 0,1 0,0 -1,0 -1,0 0,0 0,-1 0,-1zm-3 1c1,0 2,0 2,1 0,1 0,2 -1,2 -1,0 -2,0 -2,-1 0,-1 0,-2 1,-2zm-3 2c1,0 2,0 2,1 0,1 0,2 0,2 -1,0 -2,0 -2,-1 0,-1 0,-2 0,-2zm-2 3c0,1 0,2 -1,2 -1,0 -2,0 -2,-1 0,-1 0,-2 1,-2 1,0 2,0 2,1zm7 -8c1,2 -1,2 -3,3 -2,2 -5,3 -5,3 -2,0 -3,-3 -2,-5 2,-2 5,-2 6,-2 1,-1 -2,0 -4,-1 -2,0 -5,-2 -6,-4 -1,-2 7,-2 8,-1 2,1 5,5 6,7z"/>
  <path class="fil1 str0" d="M338 300c0,0 1,0 1,0 0,0 0,1 0,1 0,0 -1,0 -1,0 0,0 0,-1 0,-1zm-3 1c1,0 2,0 2,1 0,1 0,2 -1,2 -1,0 -2,0 -2,-1 0,-1 0,-2 1,-2zm-3 2c1,0 2,0 2,1 0,1 0,2 0,2 -1,0 -2,0 -2,-1 0,-1 0,-2 0,-2zm-2 3c0,1 0,2 -1,2 -1,0 -2,0 -2,-1 0,-1 0,-2 1,-2 1,0 2,0 2,1zm7 -8c1,2 -1,2 -3,3 -2,2 -5,3 -5,3 -2,0 -3,-3 -2,-5 2,-2 5,-2 6,-2 1,-1 -2,0 -4,-1 -2,0 -5,-2 -6,-4 -1,-2 7,-2 8,-1 2,1 5,5 6,7z"/>
  <path class="fil1 str0" d="M377 331c0,0 1,0 1,0 0,0 0,1 0,1 0,0 -1,0 -1,0 0,0 0,-1 0,-1zm-3 1c1,0 2,0 2,1 0,1 0,2 -1,2 -1,0 -2,0 -2,-1 0,-1 0,-2 1,-2zm-3 2c1,0 2,0 2,1 0,1 0,2 0,2 -1,0 -2,0 -2,-1 0,-1 0,-2 0,-2zm-2 3c0,1 0,2 -1,2 -1,0 -2,0 -2,-1 0,-1 0,-2 1,-2 1,0 2,0 2,1zm7 -8c1,2 -1,2 -3,3 -2,2 -5,3 -5,3 -2,0 -3,-3 -2,-5 2,-2 5,-2 6,-2 1,-1 -2,0 -4,-1 -2,0 -5,-2 -6,-4 -1,-2 7,-2 8,-1 2,1 5,5 6,7z"/>
 </g>
</svg>
