
<svg xmlns="http://www.w3.org/2000/svg" viewBox="0 0 305 195"
 xmlns:xlink="http://www.w3.org/1999/xlink">
 <defs>
  <style type="text/css">
   <![CDATA[
    .fil0 {fill:#000010;stroke:#000010;stroke-width:0; }
	
	
   ]]>
  </style>
  <radialGradient id="grad2" cx="50%" cy="50%" r="100%" fx="50%" fy="50%">
	  <animate attributeName="fx" dur="3s" values="1%;100%;1%" repeatCount="indefinite" />
	  <animate attributeName="fy" dur="5s" values="1%;100%;1%" repeatCount="indefinite" />
	  <animate attributeName="r" dur="6s" values="100%;70%;100%" repeatCount="indefinite" />
    <stop offset="0%" style="stop-color:#000000; stop-opacity:0">
		
	</stop>
	<stop offset="50%" style="stop-color:#000000;stop-opacity:1" />
	
  </radialGradient>
 </defs>

 
  <rect x="2" y="0" transform="translate(0,-1)" fill="#fff" width="305" height="195" class="fil1" stroke="#000010" stroke-width="5" fill-opacity="1"/>
   <path transform="translate(0,-1)" class="fil0" d="M291 188c3,1 0,-1 4,2 -1,1 0,2 -2,3 -1,1 -2,0 -3,-1l1 -3zm-234 5c-2,0 -2,-2 -2,-3 0,-1 0,0 0,-1 1,-1 2,-1 2,-1 1,0 -1,-1 1,0l1 0c1,1 2,3 0,5 -1,1 -2,1 -2,0zm189 -2l-1 1c-2,1 -1,0 -4,-1l0 -2c0,-2 -1,1 0,-1 0,0 0,-1 0,-1 1,-1 3,-1 3,0 0,0 2,2 1,4zm-163 -3c-1,1 -1,2 -2,3 -1,0 -1,0 -3,0 0,-1 -1,-3 1,-4 0,0 0,0 1,0l2 2zm23 1c1,-1 1,-2 1,-3 1,0 2,0 3,0 -1,2 0,1 1,3l-3 2c0,-1 -1,-1 -2,-2zm194 -5l0 -1 2 0 0 1 1 1c-1,3 1,-1 -1,3 -4,-1 -2,0 -3,-3l1 -1zm-92 1c2,0 2,-1 3,-2l1 2 2 -1 -1 2 2 2c-3,0 -2,1 -3,3l-1 -2 -2 1 1 -2 -2 -2zm-17 -1l1 0c0,3 1,1 0,3l0 1c0,0 0,0 0,0 0,0 0,0 -1,1 -1,0 -1,-1 -2,0 0,-1 0,-1 -2,-1l0 -1 -1 -1c2,-2 -1,-1 2,-2 2,-2 0,1 2,-1l1 1zm-10 4l-1 0 -1 2 -1 -2 -3 1 1 -1 -2 -3c3,-1 2,0 3,-3l2 2 2 -1 -1 2 2 2 -1 0zm-64 3l-2 -1 1 -1 1 -3c-3,-2 -1,0 -2,-2 1,-1 1,-1 1,-2 1,-1 0,0 2,-1 1,1 1,0 2,1 0,0 1,1 1,1l-2 3c1,1 1,1 2,0l1 3 -3 2 -1 -1zm-96 -12l2 0c0,0 0,0 0,0l1 3 -3 2 -1 -2 -1 0c1,-1 1,-1 2,-3l1 1zm123 3c-1,-2 2,-4 4,-3 2,2 -1,0 2,2 0,0 -2,3 -2,3 -1,0 -2,0 -3,-1 0,0 -1,-1 -1,-2zm81 -2c4,-3 3,-2 6,0 0,1 -1,3 -2,3l-1 0c0,0 0,0 0,0l-2 0c0,-1 -1,-2 -1,-3zm-69 0c-1,-1 -1,-1 -1,-2 0,-1 0,-2 1,-2 3,-2 4,1 5,2 -2,3 1,1 -4,3zm109 -2l1 1 -1 1c0,1 -1,1 -2,1 0,0 0,0 0,0l-2 -1 -1 0c1,-2 1,0 0,-2l1 0 0 -1c1,0 0,1 1,-1 1,1 1,0 2,1 1,1 0,0 2,1l0 1zm11 -4c2,-2 2,-1 3,-3l1 2 2 -1 -1 3 2 1c-2,1 -1,0 -2,1 -1,1 0,1 -1,2 -1,-2 -1,-2 -4,-1 1,-3 1,-2 -1,-4zm-260 -3l2 1c-1,1 -1,1 -1,3l-3 0 -1 -3 3 -2zm180 2c1,-1 1,-1 2,-2l2 2c-1,2 0,1 -2,2 -2,-1 -1,0 -2,-2zm-53 -2c0,2 0,2 2,3l-2 2 -3 -1 0 -3 3 -1zm146 0c-1,3 0,2 -3,3 -3,-2 -1,0 -3,-2 1,-1 2,-5 5,-1zm-287 1c2,-1 2,0 3,-3 2,2 2,2 4,1 0,2 -1,2 1,4 -2,1 -2,0 -3,3 -2,-2 -1,-2 -4,-1 0,-2 0,-2 -1,-4zm48 -1c1,-1 2,-1 2,-2 1,1 1,1 3,1 -1,2 -1,1 0,3l-3 1c0,-1 -1,-2 -2,-3zm-15 -2l1 2 3 -1 0 3 2 1 -2 1 0 2 -2 -2 -2 1c1,-3 0,-2 -1,-4l2 -1 0 -2zm14 5l0 1c-2,0 -1,0 -2,0 -1,0 0,0 -2,0 0,0 -1,1 -2,-3 0,-1 0,0 0,-1 1,-1 0,0 1,-1 1,-1 2,-1 3,0 1,0 0,-1 1,1 1,1 0,1 1,2l-1 1zm21 -2l0 1c-3,-1 0,1 -2,0 -1,0 -1,0 -1,-1l0 -1 0 0 0 -1c2,-1 1,-1 3,-2 3,2 3,4 1,4zm151 -3c3,0 2,0 3,-2l1 2 2 0c-1,3 -2,1 0,4 -3,1 -1,-2 -3,2 -2,-2 -1,-2 -4,-1 1,-3 1,-2 0,-4zm-85 -3c3,-1 4,0 3,3l-2 0c-1,-2 -1,-1 0,-3zm-36 1l2 -1c1,1 2,2 1,4 -2,2 -4,0 -4,0l0 -2c1,-1 1,-1 2,-1zm-71 2l-1 2 0 -2 -3 0c1,-3 1,-2 0,-4l2 0 1 -2c1,2 0,2 3,2 -1,2 -1,2 0,4l-3 0zm116 -6c1,1 1,2 1,3l0 0c-1,1 -1,1 -2,2 0,0 0,0 0,0 0,0 0,0 0,0l-2 -1 1 -5 2 1zm-36 3l2 1 -3 3 -1 -2 -2 1 1 -3 -2 -1c1,-1 0,0 2,-1l1 -2 1 2 2 -1 -1 3zm175 2l-1 2 -1 -2c-2,0 -1,0 -2,-1l2 -1 -1 -2 3 1 1 -2 1 2 3 0 -2 2 1 2 -2 -1zm-36 -2c1,2 0,1 0,3l1 1 -1 0c-1,3 -3,1 -5,0l0 -1 -1 -1 1 0c1,-3 0,1 2,-2l-1 0c2,-2 2,-1 1,-4 2,1 2,1 4,-1 1,3 0,2 3,3 -3,2 -1,2 -1,4l-2 -1zm-157 -2c-1,-1 -2,-2 -2,-3 0,-2 2,-1 3,-2 0,0 6,5 -1,6zm45 -5l-1 2 -1 -2 -2 0c1,-2 1,-1 1,-3l-1 -1c2,-1 2,1 3,-2 2,3 0,1 3,2l-1 2 1 2 -2 0zm16 -4c2,-3 1,-1 2,-3 5,3 -1,-2 3,3 -1,1 0,0 -1,1 -1,2 0,0 -2,2 -2,-2 -1,0 -3,-3zm114 -4c0,3 0,2 2,3 -2,2 -2,1 -1,4l-3 -1 -1 2 0 -2 -2 0 2 -2 -1 -2c3,1 2,1 4,-1zm34 0l1 -1c0,-1 0,0 1,-1l0 1c1,3 0,1 3,2 -2,1 -1,2 -1,4 -2,0 -2,0 -4,1 -2,-3 0,-2 -3,-2 1,-2 0,-3 1,-4l1 0zm-67 1c-2,2 -2,1 -1,4 -2,0 -2,0 -4,1 -1,-2 0,-2 -3,-3 2,-2 2,-1 1,-4 2,0 3,1 4,-1 2,3 0,1 3,3zm-43 -3c2,1 -1,1 3,3l-1 1c-1,1 0,0 0,2 -2,-1 -2,-2 -4,0 0,-2 0,-2 -2,-3 2,-2 2,-1 2,-3 2,1 2,2 3,-1zm-75 2c2,-1 2,0 3,-3l2 2 2 -1 -1 2 2 2c-3,2 0,-1 -3,3l-1 -2 -2 1c1,-2 1,-2 -1,-3zm-71 -3l1 2 2 -1c-1,2 -1,2 1,4l-2 1 -1 2 -2 -2 -2 1c1,-3 1,-2 -1,-4l2 0 0 -2zm175 1c2,-1 1,0 1,-3 2,1 1,1 3,0 0,2 0,1 1,3 -2,1 -1,0 -2,2 -1,-2 0,-1 -2,-2zm-74 -2l0 -2 2 1c1,-1 -1,0 1,0l2 2c0,1 -1,2 -1,3 -2,0 -2,1 -3,-1 -1,-1 0,-1 -1,-3l1 0zm-59 4c-1,-1 -2,-1 -2,-3 0,-2 2,-2 2,-2 0,0 0,0 0,0 2,1 3,2 2,4l-2 1zm92 -4c-2,1 -1,1 -1,3 -3,-1 0,-1 -3,-1 0,-3 0,-1 -1,-3 2,1 2,0 3,-1 2,3 0,0 3,3zm9 -3l1 -1 1 1 1 0c0,1 2,2 2,3 0,1 -1,1 -1,3 -1,-1 -1,-1 -2,0 -1,-3 -3,-1 -1,-5zm94 0c0,0 0,0 0,0l2 -2c1,0 1,0 2,0l1 2c0,0 0,0 0,0 0,0 0,0 0,0 -1,3 -2,1 -3,2 0,-1 0,-1 -1,-2zm-206 3l0 1 -1 -2 -2 0 1 -1 -1 -2c2,0 2,0 3,-2 2,2 1,2 3,2l-1 2 1 2 -3 0zm-47 -5c-2,3 -1,1 0,4 -4,-1 -2,-1 -4,2l-1 -2 -2 0 1 -2 -1 -2c3,0 2,0 4,-2 1,2 1,2 3,2zm33 -2c1,-1 2,-1 2,-2 1,1 1,1 3,1 -1,2 -1,1 0,3 -2,0 -1,0 -3,1 -1,-2 0,-1 -2,-2zm168 -2l1 1c0,1 1,2 2,3 -1,2 0,1 -2,2 -1,0 -1,-1 -3,-1 0,-1 1,0 0,-2l-1 -1 -2 1 1 -2 -1 -1 0 -1c3,-2 1,0 2,-3l2 1 2 -1 0 2 2 0zm-207 -4l3 3 -3 3 -1 -1c0,0 0,0 0,0l-1 -2 3 -3zm269 0c-1,2 -2,1 -1,4 -2,0 -2,-1 -4,1 -1,-2 0,-2 -3,-3 2,-2 2,-1 1,-4 2,0 3,0 4,-1 1,3 0,1 3,3zm-236 -1l1 0c-1,2 -1,0 -1,2 -2,1 -1,1 -2,0l-1 0c-2,-4 0,-1 -1,-3 2,-1 1,0 3,-2 1,1 1,1 2,1l0 1zm73 1l-2 1 0 -2 -2 -1 0 0c1,-1 1,-2 2,-3l1 1 3 1c0,3 -1,2 1,4 -2,1 -3,1 -3,3l-1 -1zm-27 -5c0,0 0,0 1,0 0,0 1,1 1,1 1,1 1,4 -2,4 0,0 -1,0 -2,-1 0,0 -1,-2 -1,-2 0,-3 3,-3 3,-3zm148 -1l0 2 2 0 -2 1 1 2c-3,0 -1,-1 -4,1 -2,-2 -1,-1 -3,-3l2 -1 -1 -2 2 1 2 -2zm-77 -2c-3,4 -1,1 -3,2 -1,-1 0,-1 -2,-1 0,-2 0,-2 1,-3 1,-1 0,0 3,-1l2 3zm-22 -1c1,0 2,0 2,1l0 2c0,1 0,1 -2,2l-1 0c-1,0 0,0 -1,0 0,0 -1,0 -1,0l-1 -1c0,0 0,0 0,0 0,0 0,-2 1,-3 0,0 0,0 0,0l1 0c0,0 0,0 1,0zm-128 -1l2 3 -1 2 -3 0 0 -3 3 -2zm267 0l2 1c0,0 -1,2 -1,2 -1,1 0,1 0,2 -2,0 -2,0 -3,1 -1,-2 0,-2 -3,-3 2,-2 2,-1 1,-4 2,0 2,0 4,-1l0 2zm-67 1l0 -1c1,-1 1,0 1,-1l1 1 1 -1c1,2 1,0 2,3 0,2 0,3 -3,3 -2,0 -2,-2 -3,-2l1 -1zm-190 -3c1,0 1,0 2,-1 0,0 1,0 1,0 1,3 1,1 0,4 -4,2 -3,0 -4,-1l0 -2zm12 -2c1,1 0,0 1,1 0,0 0,0 0,0l1 2 -3 3 -3 -3 3 -3zm204 3c-1,1 0,1 -2,0l0 0c-2,-1 -2,-2 0,-3 2,0 3,0 3,3l-1 1zm-40 -1c2,-1 0,-1 2,-2 4,-2 4,7 0,5 -3,-1 -2,-2 -2,-3zm-34 -4c2,2 1,1 2,2 -1,1 -1,2 -2,3 -2,-1 -1,-1 -3,-1l0 -3 3 -1zm93 -1c-1,-1 -1,-1 -3,-2 -1,-2 -1,-1 0,-1l1 0 0 -2c3,1 2,1 4,-1l0 2 2 1 -2 2 1 2c-2,-1 -2,-1 -4,1l0 -1zm-57 -5c2,-3 4,-1 5,0 1,3 -2,4 -2,4 -1,0 -1,0 -2,-1 0,0 0,0 -1,-1l1 -1 -2 2c-1,-2 -1,-2 -3,-1 1,-2 1,-1 0,-3 2,1 1,1 3,0 0,1 0,1 1,2zm-86 2l-1 1 0 -1 -2 -1 0 -3c2,1 1,1 3,0 0,2 0,2 1,3 -2,1 -1,0 -2,2zm61 -5c-1,1 -1,0 -2,3l-3 -1c0,-1 0,-2 0,-3l3 -2c0,0 1,1 1,1 0,0 1,1 1,1zm64 -2c-1,3 -1,1 0,4 -2,0 -2,1 -3,2 -1,-2 -1,-2 -3,-2 1,-3 1,-1 0,-4 2,0 2,-1 3,-2 1,3 0,1 3,2zm-59 1l-1 0 1 -1 -1 -1 3 -1 3 3c-2,2 0,1 -1,1 -1,3 -4,2 -4,0zm-100 -5c1,1 1,2 3,3 -2,3 -1,1 -1,3 -3,1 -1,-1 -4,1 -1,-2 -1,-2 -3,-3 2,-2 1,-1 1,-4 3,0 2,1 4,-1zm-72 5c0,-3 -1,0 0,-3 1,-3 0,1 1,-2 2,2 0,0 2,1 1,1 2,2 1,3 0,0 0,0 0,0l0 1c0,0 0,0 -1,1 -2,-1 -1,0 -2,0 0,0 0,0 0,0l-1 0zm272 -6c1,1 0,0 1,2 -1,1 0,1 -1,2 0,0 0,0 -1,1l-3 -3 3 -3c1,1 1,0 2,1zm-60 -1l1 1c-1,3 -1,1 -2,3 -3,-1 -2,0 -3,-3 1,-2 1,-2 3,-3 2,1 1,0 2,2zm-69 0l1 -1 0 0 1 1 2 0c-1,2 -1,3 0,4 -3,0 -1,-1 -3,2 -2,-2 0,-2 -3,-2 1,-1 1,-3 0,-4 3,0 1,0 2,-1zm-8 -3c0,1 2,2 2,3 -2,1 -1,1 -2,2 -1,-1 -2,-1 -3,-1 0,-1 0,-1 0,-3 3,-3 1,0 3,-2zm-84 5l-1 1 -2 0 0 -1 -1 -1c0,-2 -1,-1 0,-3 1,-2 3,-1 4,-1l1 2c-1,1 -1,0 -1,2l-1 0zm32 -1l-2 1 1 3 -2 -1 -2 2c0,-3 0,-2 -2,-3 2,-2 2,-1 1,-4l2 1 2 -1 0 2 2 1zm71 1c-2,1 -1,0 -3,0 0,-1 0,-1 0,-2 0,0 0,0 0,0 0,-1 1,0 -1,-1 3,-1 0,-1 2,-2l1 0c0,0 0,0 0,0l2 2c0,0 0,2 -2,2zm-55 -3c3,0 2,0 4,-2 1,2 1,2 3,2 -1,3 -1,2 0,4l-2 0 -1 2c-1,-2 -1,-2 -3,-2 1,-3 2,-2 0,-4zm27 -3c1,2 0,0 2,3 -1,1 -1,1 -1,2l-3 -1c0,0 0,0 0,0 0,-2 0,-1 0,-3 0,0 1,-1 1,-1 1,-1 0,0 1,0 0,0 0,0 2,-1zm96 -2l-1 1 -2 2 -2 -1c0,-1 0,-2 1,-3 0,-1 0,-1 1,-1l1 -3c3,0 2,1 3,-1 2,3 0,1 3,3 -1,2 -1,1 -1,4 -3,-1 -2,-1 -3,1zm-73 -6c1,0 0,1 2,-1l2 1c0,2 0,1 0,2 0,1 -1,0 0,2 -2,0 -1,0 -2,0 -1,0 0,-1 -2,0l-1 -2c2,-1 0,0 1,-2zm-88 1c2,-1 2,0 2,-3 2,1 2,1 4,0 0,3 -1,2 1,4 -3,2 -1,1 -2,3 -1,-2 -2,-1 -3,0 0,-3 1,-2 -2,-3zm130 -1c2,1 1,0 2,1l-2 1 1 2 -2 -1 -1 2 0 -2 -2 -1 2 -2 -1 -2 2 1 2 -2 0 2zm-95 -3l0 2 2 1 -2 1 1 3 -2 -1 -2 2 0 -2 -2 -1 2 -1 -1 -2 3 1 2 -2zm83 1l-1 -1 0 0c0,-4 2,-2 3,-2 1,2 0,1 1,2 0,1 -1,2 -1,2 -2,1 0,0 -2,0l0 -1zm-67 -5c2,0 2,1 3,-1 0,2 0,2 1,3 -2,1 -1,0 -2,2l-3 -2 0 -3zm-54 2c-1,0 -1,-1 0,-2 1,-1 1,-1 2,-1 2,3 0,4 -2,3zm23 -1c0,0 -1,0 -1,-1l1 0c2,0 1,-1 2,-3 1,2 2,1 3,1 0,2 0,2 2,3 -2,1 -2,1 -2,3 -4,-1 -1,-1 -4,0 0,-2 0,-2 -1,-3zm164 3c-1,1 1,0 -1,1l0 -1c-2,-1 0,-2 0,-4 2,0 1,1 2,0l-2 -1 1 -3 3 1 1 3 -2 1c0,1 0,2 1,3 -2,1 -1,0 -2,2l-1 -1zm-76 -7l0 -2c3,1 0,-1 2,0 1,-1 -1,-1 1,-1 0,2 0,1 1,1l0 1c0,1 0,1 -1,2 -1,1 0,0 -2,1l0 -1 -1 0c-1,-1 -1,-1 -1,-2 0,-1 0,0 0,-1l1 0zm-154 1c2,-1 2,-1 3,-3 2,2 1,2 4,1 -1,2 -1,2 1,4 -2,1 -2,1 -3,3 -2,-2 -1,-1 -4,-1 0,-3 1,-1 -1,-4zm195 1c-2,-1 1,0 -1,-2l1 0 0 -2c3,1 0,-1 2,0 2,1 0,1 3,1 -1,2 0,0 -1,2 -1,3 0,0 -2,2 -1,-1 0,-1 -2,0l0 -1zm-177 -2c3,0 2,1 3,-2 2,2 0,2 4,1 -1,2 -1,1 -1,3 3,1 1,-1 3,0 2,1 0,0 2,2 -1,3 0,2 -3,3 -4,-2 -2,-2 -3,-4 -2,1 -1,0 -2,2 -2,-2 -1,-2 -4,-1l1 -3 -2 -2zm149 -4l2 2 2 -1 -1 2 2 1 -2 0 -1 2 -1 -2 -2 1 1 -2 -2 -1 2 0 1 -2zm-28 1c2,3 -3,6 -4,3l-1 -1c0,0 0,-1 0,-1 1,-3 1,-1 2,-2 2,-1 -1,-1 1,0l2 1zm86 -3c0,1 1,2 2,3 -2,1 -1,0 -2,2l-3 -1 0 -3c2,0 2,1 3,-1zm38 -2l1 3 -3 2c-1,-1 -2,-2 -3,-2 1,-2 1,-1 1,-3l3 0zm-26 6l-1 1 -1 -1c0,0 1,-1 -1,0 -1,-3 -2,-2 -1,-4 0,-1 1,-2 2,-2l1 0c1,0 -1,0 1,0 2,1 1,1 1,1 0,0 0,0 0,0 1,2 1,0 0,1 -1,3 0,1 -1,1zm-163 -2l2 0 1 1c0,1 -1,0 -1,1l-1 1 0 2c-2,-1 -2,-1 -3,0 -1,-1 0,-1 -1,-3l-2 -1 2 -1 0 -2c2,1 2,1 4,0l0 2zm-74 -2l-1 1c-2,-1 -1,1 -3,-2 0,-3 0,-1 1,-3l2 0 0 1 1 0c0,3 0,1 -1,2zm126 -4c0,4 -1,2 -3,3l-2 -3c1,-2 1,-2 2,-2 1,0 2,0 3,1zm63 3l-1 -1 0 0 0 -2c5,-1 1,0 4,0 0,0 1,3 1,3l-2 2c-2,-2 -1,0 -2,-2zm-169 -2c-1,2 0,2 -2,2l-2 0 -1 1 1 -1 -1 -1c1,-2 -1,-3 3,-4 3,-1 3,4 3,4zm224 0l0 2c-3,-4 -4,-1 -4,-5 0,-2 0,-1 1,-2l3 -1 1 2 2 0c-1,2 -1,2 0,4l-3 0zm-83 -1l0 -1 1 0 0 -1c1,0 1,0 1,-1 0,0 0,0 1,0l0 -2c2,0 1,0 2,-1 1,0 0,0 1,0l1 0c1,3 0,0 1,2l0 1c0,0 0,0 0,0l-1 1c0,1 -1,0 0,3 -2,0 -2,0 -3,2 -2,-3 0,-2 -3,-2l1 -1zm32 -4c2,-5 2,-2 4,-2 1,4 0,1 1,4l-2 1c-3,-2 0,2 -3,-2zm-99 -7c1,-1 1,-1 2,-3l1 1c2,1 1,1 3,0 -1,3 -1,1 1,4 -3,1 -2,1 -3,3 -1,-2 -1,-1 -3,-1 1,-5 -1,-2 -1,-4zm151 -1c-2,1 -1,0 -1,3 -1,-1 -1,-1 -3,0 0,-2 1,-2 0,-3 2,-1 1,0 3,-2 1,2 0,2 2,3zm-59 1c2,-1 2,0 2,-3 2,1 1,1 4,0 0,2 -1,2 2,3l-2 1 0 2 -2 -2 -2 1 0 -3 -2 -1zm-192 0l1 2 -2 -1 -1 2c-1,-1 -1,-2 -3,-2 2,-2 2,-1 1,-4 3,1 2,1 4,-1 1,3 1,2 3,2l-1 2zm242 -2c-2,-2 -1,-4 2,-4 2,2 2,4 -2,4zm-172 0l1 1c-2,1 0,-1 -3,3 -1,-2 0,-2 -3,-2 1,2 1,1 2,2 1,1 0,0 0,1 0,0 0,0 0,0l0 1c-1,4 -8,0 -4,-3l1 -1c1,-1 -1,0 1,-2 0,-2 0,-1 -1,-3l2 0 1 -2c0,1 1,1 1,2 1,1 0,0 1,0 1,0 1,0 0,3zm195 1c-3,0 -4,-3 -2,-4l1 -1c0,0 0,0 0,0 1,0 0,0 1,-1 1,1 0,0 1,1 2,1 3,3 1,5 0,0 0,1 -2,1zm-183 -5c2,-1 2,-2 4,0l0 2 -2 1 -2 -1 0 -2zm-66 1c2,-1 2,-1 3,-2 1,2 1,2 4,2 -1,2 -1,1 0,3 1,1 1,0 2,2 0,1 0,0 0,1l-1 2c-2,2 -1,1 -1,1 -4,1 -2,-4 -7,-3 1,-3 1,-2 0,-4zm124 -4c2,-2 4,-1 4,2 -2,2 -4,2 -4,-2zm68 5c0,-2 0,-2 -2,-3 2,-1 1,0 2,-2 0,-1 0,-1 0,-1 2,1 1,1 4,0 0,2 0,1 1,3l1 1c-2,1 -1,0 -2,3 -3,-1 -1,-1 -4,0zm9 -6c3,-1 2,0 3,-3 2,2 1,2 4,1 -1,3 0,2 1,4 -1,1 -1,0 -2,1 -1,1 0,0 -1,1l0 1c-2,-2 -1,-1 -4,-1 1,-2 1,-2 -1,-4zm-46 -2c0,-2 0,-1 1,-2 0,-1 0,0 2,-1l2 3c-1,1 -1,0 -1,2l-1 0 0 1 -3 -1c1,-2 1,0 0,-2l1 0zm-173 2l-1 0c0,-1 0,-1 -1,-1l2 -3c1,1 1,1 3,1l0 1c0,1 0,0 0,2 -2,1 -2,2 -3,0zm23 -6l1 2 3 0 -2 2 1 2 -3 0 -1 2 -1 -2 -3 0 2 -2 -1 -2 3 0 1 -2zm142 2c2,-1 1,-1 2,-3 1,2 1,2 4,1l-1 2 2 2c-3,0 -2,1 -3,3 -3,-2 0,-1 -4,-1l1 -2 -2 -2 1 0zm81 -3l2 0 -2 1 1 3c-2,-1 -2,-1 -4,1 -1,-3 0,-2 -3,-3 2,-2 2,-1 1,-4l2 1 1 -2 0 2zm-251 -4c1,2 1,2 4,1l-1 2 1 2c-3,2 -1,-2 -3,3 -2,-2 -1,-2 -4,-1l1 -3 -1 -1 2 0 1 -2zm100 6l-1 2 -1 -2 -2 0 1 -2 -1 -1c2,-1 2,1 3,-2l1 2c2,-1 0,0 1,-1 3,-2 1,1 3,-3 2,1 2,1 4,1 -1,3 -1,2 1,4 -3,0 -2,0 -2,3 -1,-1 -1,-1 -3,-1 -2,2 0,0 -1,2l-2 0zm55 -8l2 1c1,3 0,3 -3,3l-1 -2 2 -2zm-81 0c1,1 1,1 2,2l-1 3 -3 0 -1 -2 2 -2zm15 6c0,2 -1,1 -1,1l0 -2 -3 0c1,-2 1,-3 0,-4 2,0 1,0 2,-1l1 -1c2,2 0,2 3,2 -1,2 -1,2 0,4 -2,0 -1,0 -3,1zm-65 -6c1,-1 0,-1 2,-3l3 2c-1,1 -1,3 -3,2 -1,0 -1,-1 -2,-2zm103 -1l2 0c-2,2 -2,1 -2,4 -2,-1 -2,-1 -4,0l0 -2 -2 -1 2 -1 0 -3 2 1 2 -2 0 3zm-131 -3l1 -1 -1 1 1 1c-1,1 0,1 -1,2 0,0 -1,1 -1,1 0,0 0,0 0,0 0,0 0,0 0,0 -3,-2 0,0 -2,-2 0,0 0,-4 3,-2zm211 0l2 -1 0 0c0,3 0,2 1,3 -3,1 -1,0 -3,3 -2,-2 -1,-2 -4,-1 0,-2 0,-2 -1,-4 4,-2 1,-1 3,-3l1 2zm-148 0c2,0 2,0 3,-2 2,2 1,2 4,2 -1,2 -1,2 0,4 -3,1 -1,0 -3,2 -1,-2 -1,-2 -3,-2 0,-1 1,-2 0,-4zm190 -4l2 2 -1 3 -3 0 -1 -3 3 -2zm-84 4c-1,1 0,0 -1,1 -1,0 -1,0 -1,0 0,0 0,0 0,0l0 -1c-2,0 -2,-1 -1,-3 1,-2 1,-2 3,-2 3,0 2,4 2,4l-1 0zm5 -1l-1 -1 1 0c-1,-1 0,-1 -1,-1 0,-1 1,-2 2,-2 2,-1 2,0 4,2l-1 3c-1,1 -2,1 -3,0zm66 -1l0 0c-1,1 1,1 -1,1l0 -2 -1 0 1 -1 -1 -1c0,0 3,-4 5,-1 2,3 -1,4 -2,5l0 -1zm-108 0l-1 -1 1 0c2,-1 0,0 2,-2 1,2 1,1 3,1 -1,2 -1,1 0,3 -2,0 -2,0 -3,1 -1,-2 0,-1 -1,-2zm67 -2l1 0c0,0 0,0 0,0 0,0 0,0 0,0 2,1 1,1 3,1 -1,1 -1,2 -1,3 -3,0 -3,0 -5,0l-1 -1c-2,0 -1,0 -3,1l1 -3 -2 -1c1,-1 0,0 2,-1 0,-2 0,-1 1,-2 2,2 1,2 4,1l-1 2zm-55 -1c0,0 0,0 0,0 3,-3 -1,2 1,-1l1 0c1,0 0,0 1,0 0,0 0,0 0,0 2,1 0,0 2,2l-2 3c-2,-1 -1,1 -3,-1l-1 -2c0,-1 1,0 0,-2zm-64 -2c1,1 1,1 3,1 0,1 -1,2 0,3 -2,0 -2,-1 -3,1 -1,-2 0,-2 -2,-2l2 -3zm-46 0c-1,2 -1,1 -1,4 -2,0 -3,0 -3,1 -1,-1 -1,-3 -3,-2 2,-2 2,-1 1,-4 2,0 2,0 4,-1 1,3 0,1 3,3zm-26 -4l1 1c0,2 -1,2 -2,3l-2 -2c1,-2 1,-2 3,-2zm153 -1c1,3 -1,1 2,3 -2,2 -2,1 -1,4 -3,-1 -2,-1 -4,1 0,-3 0,-2 -2,-3 2,-2 2,-1 1,-4 2,1 2,1 4,0zm56 0c1,-1 1,-1 1,-2l3 0 1 3 -3 2 -2 -2c0,0 0,0 0,0zm49 -5l0 -1c2,1 0,0 1,1 1,1 1,1 3,0 0,2 0,2 1,4 -2,1 -2,0 -3,3 -1,-1 -2,-1 -4,-1 0,-3 1,-2 -1,-4l2 -2zm14 1c-1,1 -2,1 -2,3 -2,-2 -1,-1 -3,-1 1,-1 1,-2 0,-3 2,0 2,1 3,-1l0 1c1,2 1,1 2,2zm-233 0c1,-1 1,-1 1,-1 1,-2 4,-1 5,1 0,2 0,0 0,3 -2,1 -1,1 -4,1 -1,-2 0,0 -1,-1l-1 -2zm205 -3c-1,3 -1,1 0,4 -3,0 -2,0 -4,2 -2,-4 0,-1 -3,-2 2,-2 1,-2 0,-4l3 0 1 -2 1 2 2 0zm-197 3c-1,1 1,0 -1,1l1 -1 -2 -3c2,-1 2,0 2,-3 2,1 1,1 4,0 0,3 -1,2 2,3 -2,1 -2,0 -2,3 -2,-1 -1,-2 -3,-1zm128 -3c0,0 0,0 0,0l1 -1c1,-1 0,0 1,-1 4,-2 -1,1 1,-1 2,1 1,0 2,2 0,1 0,0 0,1l-3 3c-2,0 -1,0 -2,-1l-1 -2zm-121 -2c3,-1 2,-1 3,-3 3,2 1,1 4,0 -1,2 -1,3 1,3 -3,2 -2,0 -3,4l-2 -2 -2 1 1 -2 -2 -2zm141 -5c-1,1 -1,1 -1,3 -2,-1 -1,-1 -3,0 0,-2 0,-1 -1,-3 1,-1 2,-1 2,-2 1,2 1,1 2,2zm-29 0c0,0 0,0 0,0l0 1c0,0 0,0 0,0 -3,4 -5,-3 -5,-3 2,-1 0,-1 2,-2 1,-1 3,0 3,3zm-76 1c-2,2 -2,1 -1,4 -3,-1 -1,-1 -4,0 -1,-2 0,-2 -2,-3 2,-1 2,-1 1,-4 3,1 1,1 4,-1 0,3 0,2 2,3zm40 2c0,0 -4,-5 1,-5 1,0 2,0 3,2 1,3 -3,3 -3,3zm-121 -4c3,0 2,0 3,-2l1 2 2 0c-1,2 -2,2 0,3l-2 1c0,0 0,1 -1,2 -1,-2 -1,-2 -3,-2 1,-3 1,-2 0,-4zm-31 191l0 0c305,0 0,0 305,0 0,-80 0,-131 0,-194 -86,0 -246,-1 -305,0 0,30 0,184 0,195z"/>

</svg>
