<?xml version="1.0" encoding="UTF-8"?>
<!DOCTYPE svg PUBLIC "-//W3C//DTD SVG 1.1//EN" "http://www.w3.org/Graphics/SVG/1.1/DTD/svg11.dtd">
<!-- Creator: CorelDRAW X6 -->
<svg xmlns="http://www.w3.org/2000/svg" xml:space="preserve" width="601px" height="303px" version="1.1" style="shape-rendering:geometricPrecision; text-rendering:geometricPrecision; image-rendering:optimizeQuality; fill-rule:evenodd; clip-rule:evenodd"
viewBox="0 0 1666 839"
 xmlns:xlink="http://www.w3.org/1999/xlink">
 <defs>
  <style type="text/css">
   <![CDATA[
    .fil0 {fill:black}
	#Layer_x0020_1{
		-webkit-animation-duration: 12s;
		animation-duration: 12s;
		animation-duration: 12s;
		-webkit-animation-name: bounce;
		animation-name: bounce;
		 -webkit-animation-iteration-count: infinite;
			animation-iteration-count: infinite;
			-webkit-animation-timing-function: linear; /* Safari and Chrome */ 
    animation-timing-function: linear;
	}
	
@-webkit-keyframes bounce {
  0%, 10%, 40%, 65%, 100% {
    -webkit-transform: translateY(0) scale(1) skew(0deg);
    transform: translateY(0) scale(1) skew(0deg);
  }

  25% {
    -webkit-transform: translateY(-10px) scale(1,1.1) skew(10deg);
    transform: translateY(-10px)  scale(1,1.1) skew(10deg);
  }

  50% {
    -webkit-transform: translateY(-15px)  scale(1,1.1) skew(-5deg);
    transform: translateY(-15px)  scale(1,1.1) skew(-5deg);
  }
  75% {
    -webkit-transform: translateY(-15px)  scale(1,1.1) skew(5deg);
    transform: translateY(-15px)  scale(1,1.1) skew(5deg);
  }
}


   ]]>
  </style>
 </defs>
 <g id="Layer_x0020_1">
  <metadata id="CorelCorpID_0Corel-Layer"/>
  <g id="_857976752">
   <path class="fil0" d="M479 561c16,9 12,-3 49,26 1,10 4,29 3,38 -8,-4 -22,-9 -30,-13 -15,-6 -24,-5 -38,-10 -1,-13 10,-32 16,-42zm236 277l-1 0c-11,-10 -4,-53 -5,-69 0,-16 -1,-8 -4,-18 -12,-39 15,-30 -12,-129 -3,-12 -3,-26 -17,-31 -11,-4 -31,-2 -39,7 -9,10 -5,23 -11,34 -5,-3 -3,-14 -14,-22 -18,-2 -46,11 -59,24 -21,21 -22,2 -47,-8 -89,-36 -63,40 -88,48 -13,-18 22,-49 24,-64 2,-13 -32,-49 -42,-46 -8,17 10,56 -4,67 -9,-4 -11,-65 -14,-79 -5,-25 -14,-48 -26,-71 -19,-36 -23,-26 -11,-68 5,-18 2,-22 0,-39 -2,-12 13,-101 13,-126 1,-37 -11,-40 -38,-60 -15,-11 -101,-79 -113,-74 -13,12 8,242 -11,256 -5,-30 0,-47 0,-76 0,-15 -15,-130 -35,-128 -8,1 -37,40 -29,23 9,-17 36,-27 15,-44 -10,-8 -40,-29 -52,-36 -21,-13 -38,3 -45,23 -9,28 -11,31 -40,42 -7,3 -12,-1 -14,-8l0 -33c1,-3 1,-6 2,-7 7,-20 24,22 40,12 5,-4 32,-37 27,-46 -5,-9 -39,-29 -50,-33 -31,-10 -5,-27 -1,-24 4,3 9,17 14,22 5,5 19,13 26,18 25,17 35,2 35,-24 1,-38 -24,-34 -28,-47 11,-6 31,0 44,-2 19,-2 23,0 25,20 2,25 8,24 26,38 43,33 37,10 48,-30 1,-4 14,-38 10,-15 -6,35 -26,74 12,97 25,15 55,35 77,53 30,23 56,52 35,-10 -14,-41 -6,-59 -39,-91 -22,-22 -47,-39 -67,-60 18,-8 14,3 28,11l9 -14 44 6c7,19 -13,50 11,64 34,-14 83,-65 94,-68 0,17 -52,55 -68,66 -23,17 -22,10 -14,40 4,17 10,34 15,51 5,16 12,35 15,51 6,24 9,24 28,39 29,24 58,39 96,25 60,-22 126,-55 179,-90 43,-29 36,-33 51,-82 8,-25 32,-80 31,-102 55,3 93,23 145,32 53,9 103,15 157,18 36,2 45,1 58,-33 6,-16 -10,26 12,30 26,5 56,4 64,-25 9,-34 -1,6 22,14 8,3 63,-11 72,-17 29,-17 24,-23 63,-20 122,10 39,-2 50,32 9,26 23,26 46,17 31,-12 13,-39 38,-48 31,-11 46,19 58,20 18,1 18,-24 39,-12 13,7 16,-13 44,8 14,11 35,-13 34,-5 -2,11 -26,19 -7,31 28,17 5,76 10,111 4,28 2,47 4,74 4,45 -3,29 -28,36 -16,4 -26,40 -15,55 36,46 47,-58 38,87 -1,17 -10,56 -9,66 1,23 10,28 -1,54 -15,36 -8,11 -14,-13 -4,-18 -37,-36 -52,-32 -30,8 1,118 -22,134 0,-35 -4,-90 2,-123 2,-11 4,-18 -8,-23 -18,-7 -57,-6 -77,-6 -66,0 -40,6 -59,12 -5,-28 -10,-23 -45,-32 -36,-10 -45,-6 -79,-10 -17,-2 -13,-8 -18,-21 -11,-31 -38,-53 -62,-71 -12,-9 -24,-35 -39,-50 -26,-26 -26,-14 -39,-50 -8,-22 -38,-65 -63,-70 -12,-3 -18,5 -28,4 8,-13 27,4 41,-39 5,-16 13,-58 6,-72 -10,-5 -81,-6 -97,-6 -33,0 -62,-8 -94,-8 0,15 -1,21 -3,34 -1,11 2,17 3,30l0 133c0,26 6,54 -8,58 12,-18 3,-43 3,-64 0,-19 -1,-16 -4,-32l2 -68c0,-13 -3,-21 -2,-32 3,-21 4,-43 -4,-63 -8,-3 -18,-3 -29,-7 -15,-5 -85,-31 -92,-27 -8,8 -29,75 -34,90 -14,43 -19,55 -20,102 0,76 -13,154 -14,230 0,45 -1,73 -7,118 -6,47 23,104 23,157 0,32 16,29 16,45 0,13 -8,10 -12,19 -4,9 3,10 4,19 1,7 -2,19 -2,27 -1,14 2,18 -9,21zm-172 -217c-7,-10 -7,-27 -6,-40 16,-13 36,-16 57,-14l13 27c-10,6 -23,6 -34,11 -10,5 -21,14 -30,16zm58 -63c14,-9 22,-20 40,-10 9,5 26,20 32,29l-58 15 -13 -34zm-117 -5c0,-12 1,-13 9,-22 5,2 11,3 17,7 15,9 0,8 19,10 10,-8 2,-13 14,-16 7,-2 22,-1 29,0 6,8 12,17 14,27 -23,2 -38,5 -58,18 -20,-15 -37,-18 -44,-23zm142 -17l-30 14c-38,-49 5,-56 30,-14zm-98 -52c14,-1 16,0 23,10 6,9 9,14 11,24 -8,1 -20,3 -27,3l-7 -38zm105 43c-11,-6 -23,-17 -30,-27 4,-31 29,-28 49,-13l-19 40zm-143 -24l-22 -15c7,-11 20,-22 33,-21 1,15 -2,25 -11,36zm119 -33l-15 21c-45,-27 -14,-45 15,-21zm-254 -20c18,-8 15,-2 26,8 10,-6 -2,-5 12,-8 14,8 20,19 24,34 7,26 -2,26 22,39 34,17 36,41 15,71 -4,-3 -58,-56 -61,-61 -16,-29 1,-26 -39,-83zm106 -11c11,-1 29,-4 29,10 0,12 -9,18 -18,24 -1,-2 -11,-29 -11,-33zm-53 3c35,-6 51,-2 52,38 -3,11 -17,22 -27,24 -5,-14 -3,-20 -10,-35 -4,-9 -11,-21 -15,-28zm1233 50l-64 -26c0,-12 10,-53 17,-62 19,-2 44,7 53,23 6,10 3,19 1,31 -1,7 -5,29 -7,35zm-985 -12c-11,-5 -31,-10 -33,-19 0,-13 1,-17 9,-27 7,-1 27,-3 32,-3 -3,16 -7,31 -9,49zm-198 -47c0,-7 1,-7 2,-13l28 9c-11,6 -15,6 -30,5zm107 -27c6,7 8,12 9,21l-30 0c0,-12 10,-20 21,-21zm-159 27l3 -27c15,-1 31,3 43,10 -10,23 -19,19 -46,17zm-12 0c-12,1 -7,1 -16,-6 -9,7 -9,9 -22,8 -1,-12 4,-37 6,-52 8,0 30,5 35,11 8,9 1,28 -3,38zm189 -49c-15,2 -11,8 -27,2 -1,-15 6,-27 11,-41l32 17c-1,9 -4,7 -10,15 13,-2 1,-4 16,-4 1,11 -1,18 3,28 3,9 10,12 7,23 -24,8 -56,-6 -32,-39zm3 -6c0,0 1,0 1,1 0,0 0,0 0,0 0,0 3,-5 -1,-1zm-3 3c0,0 1,0 1,1 0,0 0,0 0,0 0,0 3,-5 -1,-1zm985 80c-10,1 -21,-2 -31,-4 -24,-4 -78,2 -106,-2 -1,-12 15,-29 23,-39 9,-12 15,-33 25,-42 43,-11 72,9 105,30 -2,10 -11,50 -16,57zm-1041 -52c-4,-8 -3,-18 -2,-27l14 4c-4,26 -7,21 -12,24zm-111 -17c15,-10 13,-15 23,-27 27,4 40,48 3,40 -11,-2 -19,-6 -26,-13zm97 -14c4,6 6,25 3,31 -5,-4 -8,-11 -10,-17 -4,-13 -1,-10 7,-15zm-33 11l13 -6c8,8 15,20 14,31 -11,-8 -20,-13 -27,-25zm1171 30c-11,-8 -9,-11 -24,-17 -13,-5 -21,-4 -33,-8 2,-12 13,-57 20,-66 2,1 38,9 43,17 3,27 -2,48 -6,74zm-227 30c-18,-5 -39,-16 -57,-22 -47,-16 -48,-7 -65,-10 0,-8 29,-38 36,-46 27,-31 14,-16 33,-31 7,-6 3,-6 9,-11 23,5 74,28 88,45l-44 75zm-808 -91c6,-6 9,-11 19,-11 5,14 3,29 11,42 6,12 18,22 20,35 -6,0 -27,-2 -35,-3 -7,-9 -12,-18 -15,-29 -7,-22 2,-15 12,-28 -7,-3 -6,2 -12,-6zm-210 28c-12,0 -27,-8 -36,-14 1,-13 16,-40 23,-50 14,10 28,19 38,33 -3,13 -11,27 -25,31zm66 -46c10,13 13,21 11,38 -23,1 -18,0 -40,-22l29 -15zm9 -3c8,-1 26,-3 32,-3 1,13 6,39 -12,35 -11,-2 -20,-22 -20,-32zm109 -36c3,1 35,30 37,33 -3,9 -9,14 -17,20 -22,-6 -51,-10 -21,-52zm997 93c-7,-1 -30,-17 -43,-22 -24,-9 -37,-6 -60,-9l40 -74c23,1 55,14 71,30 13,14 9,14 4,33 -3,11 -7,33 -12,41zm-1187 -80c10,-6 23,-3 52,-18 13,-7 44,-14 59,-12l0 38c-9,1 -12,3 -19,3 -9,0 -11,-3 -22,-3 -16,6 -8,22 -36,22 -11,-3 -28,-19 -33,-30zm1071 55c-7,-4 -23,-20 -36,-27 -11,-6 -38,-16 -44,-22l39 -52c19,-24 24,-41 52,-15 22,20 37,28 22,57 -6,11 -28,50 -35,59zm-952 -49c-3,-16 -4,-20 -3,-38 10,-1 44,9 69,11 -26,41 -16,44 -66,27zm1088 -10c-40,-24 -59,-21 -75,-31l29 -58c24,4 48,18 63,38 -9,16 -8,35 -17,50zm-230 8c-10,-14 -12,-23 -27,-37 -9,-8 -35,-20 -39,-27 9,-13 73,-64 89,-69 12,6 40,39 46,51 -12,22 -47,69 -68,81zm-673 -80c0,48 -11,94 -11,166 0,27 0,151 -10,169 -8,0 -30,-23 -36,-30 -13,-17 6,-33 14,-46 8,-13 4,-36 13,-57 10,-22 -3,-28 -15,-47 -28,-46 -14,-61 4,-105 5,-13 36,-94 42,-95 5,17 -1,30 -1,45zm813 44l-34 -39c-6,-5 -11,-6 -17,-11 5,-10 21,-28 29,-36 15,-15 23,-20 42,-2 28,28 1,37 -9,62 -5,13 1,13 -11,25zm109 -39c-12,-2 -17,-10 -27,-17 -11,-8 -21,-9 -32,-16l26 -41c19,-2 28,12 36,23l7 8 -11 42zm-989 85c-10,-3 -32,-21 -37,-30 -7,-12 -4,-47 4,-57 4,-6 36,-19 45,-24 13,-7 30,-24 43,-27 1,10 -47,124 -55,140zm771 -154l55 -42c17,10 33,24 40,42 -5,13 -36,46 -48,52l-47 -52zm-313 -6c23,-8 46,-17 70,-25 26,-9 51,-23 68,6 15,27 27,38 -2,57 -9,6 -53,29 -54,37 12,1 49,-26 60,-33 25,-17 42,13 51,34 12,28 32,20 57,43 25,23 31,35 7,60 -81,86 -42,72 -90,17 -15,-17 -53,-33 -35,-47 10,-8 52,-32 53,-44 -9,-1 -43,31 -54,38 -22,14 -30,-19 -47,-35 -25,-23 -23,-24 -37,-54 -14,-29 -29,-33 -46,-54zm69 83c0,0 -1,-1 -1,-1 0,0 0,0 0,0 0,0 -3,5 1,1zm398 -51l-43 -30c-13,-9 -6,3 -17,-11 -20,-26 -24,-23 -33,-34 3,-6 32,-32 37,-35 10,3 31,19 33,31 4,20 -20,23 -21,42 15,-1 20,-25 32,-32 11,3 28,19 31,29 1,5 -16,34 -21,39zm37 -43l17 -33c23,0 45,28 22,67 -21,-35 -19,-17 -39,-34zm-377 -33c22,-11 55,-19 79,-29 16,-7 24,-12 37,2 19,21 10,19 16,40 15,4 15,0 24,14 25,39 7,27 -32,64 -9,9 -35,32 -45,33 -7,-8 -10,-19 -16,-28 -7,-10 -17,-14 -20,-25 9,-8 21,-7 22,-19 -11,-1 -12,6 -23,9 -7,-6 -13,-22 -19,-31 -11,-18 -12,-16 -23,-29zm-129 32c0,-10 7,-35 10,-47 4,-17 4,-35 7,-51 44,8 92,-38 96,38 2,30 2,26 -25,34 -18,5 -75,27 -88,27zm548 -66c17,13 25,30 10,50 -8,-6 -5,-7 -12,-14 -4,-4 -12,-8 -16,-11 2,-14 7,-18 19,-25zm-1474 58c-13,-4 -29,-18 -37,-26 -11,-10 -26,-13 -40,-27 -2,-19 15,-42 30,-52 11,3 54,36 63,45 -4,19 -11,9 -17,59zm1384 -93c13,9 22,22 30,36 -20,12 -14,15 -29,30 -5,-7 -6,-14 -13,-21 -8,-8 -13,-7 -21,-15 6,-11 21,-22 33,-29zm-211 24l63 -20c11,7 16,13 22,24 -4,11 -4,-1 -7,11 24,-5 32,15 38,34 -11,8 -48,40 -56,41 -15,-25 1,-10 -30,-45 -7,-8 -21,-34 -29,-46zm294 -2l-14 -14c2,-11 6,-17 14,-23 12,7 11,7 14,20l-14 17zm-425 -27c22,-5 56,-10 75,-16 14,-5 21,-8 32,7 32,45 -14,45 -41,56 -16,7 -35,19 -53,18 -2,-15 -2,-43 -14,-65zm351 -1l21 -19c29,18 30,29 9,56 -5,-4 -9,-13 -14,-20 -7,-8 -12,-11 -16,-17zm28 -25c8,-5 11,-7 17,-14 13,7 16,1 20,19 3,14 -1,18 -12,26 -3,-5 -5,-13 -9,-19 -6,-8 -9,-6 -16,-12zm-1390 39c-3,-3 -8,4 -3,1 0,0 7,2 3,-1zm-6 -3c-3,-3 -14,4 -5,2 3,-1 8,2 5,-2zm-8 -3c-3,-3 -8,4 -3,1 0,0 7,2 3,-1zm1479 -53c0,0 -1,-1 -1,-1 0,0 0,0 0,0 0,0 -3,5 1,1z"/>
   <path class="fil0" d="M1543 11l15 -4c-7,-4 -10,-3 -15,4zm-8 0c3,3 -4,3 8,2l-8 -2z"/>
   <path class="fil0" d="M1415 50c3,3 9,-4 3,-1 0,0 -7,-2 -3,1z"/>
  </g>
 </g>
</svg>
