<?xml version="1.0" encoding="UTF-8"?>
<!DOCTYPE svg PUBLIC "-//W3C//DTD SVG 1.1//EN" "http://www.w3.org/Graphics/SVG/1.1/DTD/svg11.dtd">
<!-- Creator: CorelDRAW X6 -->
<svg xmlns="http://www.w3.org/2000/svg" xml:space="preserve" width="405px" height="195px" version="1.1" style="shape-rendering:geometricPrecision; text-rendering:geometricPrecision; image-rendering:optimizeQuality; fill-rule:evenodd; clip-rule:evenodd"
viewBox="0 0 351 169"
 xmlns:xlink="http://www.w3.org/1999/xlink">
 <defs>
  <style type="text/css">
   <![CDATA[
    .str1 {stroke:#996633;stroke-width:0.490368}
    .str0 {stroke:#CC9933;stroke-width:1.73002}
    .fil0 {fill:#663300}
    .fil1 {fill:#CC9933}
    .fil2 {fill:#FFCC00}
   ]]>
  </style>
 </defs>
 <g id="Layer_x0020_1">
  <metadata id="CorelCorpID_0Corel-Layer"/>
  <path class="fil0" d="M287 102c1,3 2,6 3,9 10,21 73,26 50,34 -22,7 -57,-24 -78,-25 -21,-1 -32,20 -43,20 -11,0 3,-38 -7,-19 -10,19 -19,15 -27,36 -9,21 -11,-13 -18,-30 -8,-17 -1,21 -8,21 -7,0 2,-25 -11,-20 -13,5 -29,42 -45,41 -16,-1 18,-36 -2,-43 -20,-6 -65,21 -87,15 -22,-7 41,-11 41,-29l0 -9c9,8 58,13 117,13 13,0 25,0 36,-1 -29,0 -58,-5 -60,-14l-11 -61c44,3 46,6 132,8l-2 54c0,5 -8,8 -20,10 22,-2 37,-6 42,-10z"/>
  <path class="fil1" d="M47 32l1 0c6,7 54,13 115,14 1,0 2,31 3,31 2,0 4,-31 5,-31 22,0 72,-1 84,-22 9,-16 14,-28 14,-22 1,31 7,-22 6,14 0,12 17,18 19,16l0 0c0,25 -10,54 0,74 10,20 75,25 52,32 -23,7 -59,-23 -81,-23 -22,-1 -34,19 -45,19 -11,0 3,-36 -7,-18 -10,18 -19,14 -29,34 -9,19 -11,-13 -19,-29 -8,-16 -1,20 -9,20 -7,0 2,-24 -11,-19 -13,4 -30,40 -47,39 -17,-1 19,-35 -3,-41 -21,-6 -68,20 -91,14 -23,-6 42,-11 42,-28l0 -74z"/>
  <ellipse class="fil2 str0" cx="170" cy="31" rx="123" ry="15"/>
  <ellipse class="fil2 str0" cx="170" cy="31" rx="104" ry="13"/>
  <ellipse class="fil2 str0" cx="170" cy="28" rx="62" ry="8"/>
  <ellipse class="fil2 str0" cx="167" cy="30" rx="31" ry="4"/>
  <path class="fil0 str1" d="M50 39c3,2 3,5 10,6l0 54c0,18 -8,19 -9,1l-1 -60z"/>
 </g>
</svg>
