<?xml version="1.0" encoding="UTF-8"?>
<!DOCTYPE svg PUBLIC "-//W3C//DTD SVG 1.1//EN" "http://www.w3.org/Graphics/SVG/1.1/DTD/svg11.dtd">
<!-- Creator: CorelDRAW X6 -->
<svg xmlns="http://www.w3.org/2000/svg" xml:space="preserve" width="1432px" height="1015px" version="1.1" style="shape-rendering:geometricPrecision; text-rendering:geometricPrecision; image-rendering:optimizeQuality; fill-rule:evenodd; clip-rule:evenodd"
viewBox="0 0 1447 1026"
 xmlns:xlink="http://www.w3.org/1999/xlink">
 <defs>
  <style type="text/css">
   <![CDATA[
    .str3 {stroke:black;stroke-width:1.78861}
    .str2 {stroke:#1A1A1A;stroke-width:1.78861}
    .str0 {stroke:#999999;stroke-width:1.78861}
    .str1 {stroke:#898989;stroke-width:10.1028}
    .fil2 {fill:#9D9E9E}
    .fil3 {fill:lime}
    .fil1 {fill:#1A1A1A}
    .fil5 {fill:#4D4D4D}
    .fil0 {fill:#999999}
    .fil4 {fill:#99FF00}
   ]]>
  </style>
 </defs>
 <g id="Layer_x0020_1">
  <metadata id="CorelCorpID_0Corel-Layer"/>
  <rect class="fil0 str0" transform="matrix(-0.00645926 0.999979 -0.999979 -0.00645926 1329.63 12.3809)" width="1005" height="948"/>
  <path class="fil1 str1" d="M189 1010c-43,0 -86,-44 -128,-144 -42,-101 -56,-230 -55,-359 1,-129 16,-258 60,-359 44,-100 87,-143 130,-143l359 2c-43,0 -72,43 -101,143 -44,100 -59,229 -60,359 -1,129 13,259 55,359 28,101 71,144 100,144l-359 -2z"/>
  <path class="fil2 str2" d="M249 56c-30,0 -60,-2 -90,-7 43,-17 3,-12 94,-39l252 0c-30,0 -21,3 -42,8 -31,5 -23,8 -23,14 -1,6 -39,12 -9,17 20,5 -44,12 -24,12l-158 -5z"/>
  <path class="fil1 str1" d="M576 1013c-43,0 -72,-44 -114,-144 -42,-115 -56,-230 -55,-359 1,-129 16,-258 60,-359 44,-100 73,-143 116,-143l345 2c-29,0 -72,43 -101,143 -29,100 -45,230 -45,359 -1,129 13,259 41,359 28,101 57,144 100,144l-345 -2z"/>
  <path class="fil1 str1" d="M950 1015c-29,0 -72,-44 -100,-144 -28,-101 -42,-230 -41,-359 1,-129 16,-258 45,-359 29,-100 58,-143 101,-143l330 2c-29,0 -58,43 -87,143 -29,100 -30,215 -31,359 -1,144 13,259 26,359 28,101 57,144 85,144l-330 -2z"/>
  <path class="fil3" d="M749 1014c0,0 0,0 0,0l273 2c-29,0 -57,-43 -85,-144 -28,-101 -27,-216 -26,-359 1,-144 16,-258 31,-359 29,-86 44,-143 73,-143l86 1c-29,0 -58,43 -87,143 -29,100 -30,215 -31,359 -1,144 13,259 26,359 28,101 57,144 85,144l-330 -2 -14 0z"/>
  <path class="fil4" d="M954 158c29,-86 44,-143 73,-143l86 1c-29,0 -58,43 -87,143 -37,28 -38,-15 -72,0z"/>
  <path class="fil3" d="M921 1015c0,0 0,0 0,0l273 2c-29,0 -57,-43 -85,-144 -28,-101 -27,-216 -26,-359 1,-144 16,-258 31,-359 29,-86 44,-143 73,-143l86 1c-29,0 -58,43 -87,143 -29,100 -30,215 -31,359 -1,144 13,259 26,359 28,101 57,144 85,144l-330 -2 -14 0z"/>
  <path class="fil1 str1" d="M1323 1018c-29,0 -57,-43 -85,-144 -28,-101 -27,-216 -26,-359 1,-144 16,-258 31,-359 29,-100 58,-143 87,-143 29,0 57,43 85,144 28,101 27,216 26,359 -1,144 -16,258 -31,359 -29,100 -58,143 -87,143z"/>
  <path class="fil5 str3" d="M1320 959c29,-2 38,-61 30,-161 -8,-100 -27,-156 -56,-154 -29,2 -38,61 -30,161 8,100 27,156 56,154z"/>
  <path class="fil3" d="M992 1016c29,0 43,14 394,9 1,-101 -65,-177 -94,-177 -29,0 -3,50 -3,150 -165,-1 -326,17 -297,17z"/>
  <path class="fil2 str2" d="M632 63c-30,0 -62,-2 -95,-7 30,-17 -6,-12 64,-39l252 0c-30,0 -19,3 -36,8 -27,5 -16,8 -12,14 4,6 -29,12 4,17 23,5 -35,12 -15,12l-162 -5z"/>
  <path class="fil4" d="M1093 152c29,-86 44,-143 73,-143l86 1c-29,0 -58,43 -87,143 -37,28 -38,-15 -72,0z"/>
 </g>
</svg>
