<?xml version="1.0" encoding="UTF-8"?>
<!DOCTYPE svg PUBLIC "-//W3C//DTD SVG 1.1//EN" "http://www.w3.org/Graphics/SVG/1.1/DTD/svg11.dtd">
<!-- Creator: CorelDRAW X6 -->
<svg xmlns="http://www.w3.org/2000/svg" xml:space="preserve" width="1424px" height="1011px" version="1.1" style="shape-rendering:geometricPrecision; text-rendering:geometricPrecision; image-rendering:optimizeQuality; fill-rule:evenodd; clip-rule:evenodd"
viewBox="0 0 1439 1022"
 xmlns:xlink="http://www.w3.org/1999/xlink">
 <defs>
  <style type="text/css">
   <![CDATA[
    .str2 {stroke:black;stroke-width:1.789}
    .str1 {stroke:#1A1A1A;stroke-width:1.789}
    .str0 {stroke:#999999;stroke-width:1.789}
    .fil2 {fill:lime}
    .fil1 {fill:#1A1A1A}
    .fil3 {fill:#4D4D4D}
    .fil0 {fill:#999999}
   ]]>
  </style>
 </defs>
 <g id="Layer_x0020_1">
  <metadata id="CorelCorpID_0Corel-Layer"/>
  <rect class="fil0 str0" transform="matrix(-0.00645926 0.999979 -0.999979 -0.00645926 1325.76 8.22561)" width="1006" height="948"/>
  <path class="fil1 str1" d="M184 1006c-43,0 -86,-44 -128,-144 -42,-101 -56,-230 -55,-359 1,-129 16,-258 60,-359 44,-100 87,-143 130,-143l359 2c-43,0 -72,43 -101,143 -44,100 -59,229 -60,359 -1,129 13,259 55,359 28,101 71,144 100,144l-359 -2z"/>
  <path class="fil1 str1" d="M572 1009c-43,0 -72,-44 -114,-144 -42,-115 -56,-230 -55,-359 1,-129 16,-258 60,-359 44,-100 73,-143 116,-143l345 2c-29,0 -72,43 -101,143 -29,100 -45,230 -45,359 -1,129 13,259 41,359 28,101 57,144 100,144l-345 -2z"/>
  <path class="fil1 str1" d="M946 1011c-29,0 -72,-44 -100,-144 -28,-101 -42,-230 -41,-359 1,-129 16,-258 45,-359 29,-100 58,-143 101,-143l330 2c-29,0 -58,43 -87,143 -29,100 -30,215 -31,359 -1,144 13,259 26,359 28,101 57,144 85,144l-330 -2z"/>
  <path class="fil2" d="M745 1010c0,0 0,0 0,0l273 2c-29,0 -57,-43 -85,-144 -28,-101 -27,-216 -26,-359 1,-144 16,-258 31,-359 29,-86 44,-143 73,-143l86 1c-29,0 -58,43 -87,143 -29,100 -30,215 -31,359 -1,144 13,259 26,359 28,101 57,144 85,144l-330 -2 -14 0z"/>
  <path class="fil2" d="M917 1011c0,0 0,0 0,0l273 2c-29,0 -57,-43 -85,-144 -28,-101 -27,-216 -26,-359 1,-144 16,-258 31,-359 29,-86 44,-143 73,-143l86 1c-29,0 -58,43 -87,143 -29,100 -30,215 -31,359 -1,144 13,259 26,359 28,101 57,144 85,144l-330 -2 -14 0z"/>
  <path class="fil1 str1" d="M1319 1014c-29,0 -57,-43 -85,-144 -28,-101 -27,-216 -26,-359 1,-144 16,-258 31,-359 29,-100 58,-143 87,-143 29,0 57,43 85,144 28,101 27,216 26,359 -1,144 -16,258 -31,359 -29,100 -58,143 -87,143z"/>
  <path class="fil3 str2" d="M1320 942c29,0 43,-57 44,-158 1,-101 -13,-158 -42,-158 -29,0 -43,57 -44,158 -1,101 13,158 42,158z"/>
  <path class="fil2" d="M988 1012c29,0 43,14 395,9 1,-101 -65,-177 -94,-177 -29,0 -3,50 -3,150 -165,-1 -326,17 -297,17z"/>
 </g>
</svg>
