<?xml version="1.0" encoding="UTF-8"?>
<!DOCTYPE svg PUBLIC "-//W3C//DTD SVG 1.1//EN" "http://www.w3.org/Graphics/SVG/1.1/DTD/svg11.dtd">
<!-- Creator: CorelDRAW X6 -->
<svg xmlns="http://www.w3.org/2000/svg" xml:space="preserve" width="390px" height="286px" version="1.1" style="shape-rendering:geometricPrecision; text-rendering:geometricPrecision; image-rendering:optimizeQuality; fill-rule:evenodd; clip-rule:evenodd"
viewBox="0 0 372 268"
 xmlns:xlink="http://www.w3.org/1999/xlink">
 <defs>
  <style type="text/css">
   <![CDATA[
    .str0 {stroke:black;stroke-width:0.202653}
    
    .fil16 {fill:#060606}
    .fil11 {fill:#0F1011}
    .fil17 {fill:#171718}
    .fil0 {fill:#38667A}
    .fil3 {fill:#777879}
    
    .fil4 {fill:#A7D277}
    .fil1 {fill:#ADBE91}
    .fil10 {fill:#ADC5D0}
    .fil15 {fill:#B2CD90}
    .fil2 {fill:#B7E4F9}
    .fil12 {fill:#BCE4FC}
    .fil13 {fill:#C7D6B4}
    .fil14 {fill:#D1ECF9}
    .fil5 {fill:red}
	.fil9 {fill:blue}
    .fil8 {fill:RGB(11, 255, 0)}
    .fil6 {fill:yellow}
	.fil7 {fill:#9900CC}
   ]]>
  </style>
 </defs>
 <g id="Layer_x00">
 <animateTransform attributeName="transform" begin = "0" type="translate-x" values = "-410" dur="1s"/>
 <g id="Layer_x002">
 <animateTransform attributeName="transform" begin = "2;" type="scale" values = "1;.95;1" dur="3s"  repeatCount="indefinite"/>
 <g id="Layer_x0020">
 <animateTransform attributeName="transform" begin = "1;" type="skewX" values = "15;-15;0" dur="1s"/>
 <g id="Layer_x0020_1" transform="translate(0)">
   <animateTransform attributeName="transform" begin = "1;" type="translate-x" values = "-410;90;0" dur="1s"/>
   
  <metadata id="CorelCorpID_0Corel-Layer"/>
  <path class="fil0" d="M64 185c-1,3 -1,2 1,1 4,1 4,4 9,7 3,2 5,4 8,4l0 0c12,4 31,7 53,7 31,0 57,-5 63,-12 3,-1 3,-1 5,-4 -3,-2 -1,-13 0,-17 -2,-3 -6,-6 -10,-5 -10,-4 -33,-7 -60,-7 -18,0 -33,1 -45,3 0,0 0,-1 0,-1 -2,0 -5,1 -9,3 -7,2 -12,4 -12,7 0,0 0,0 0,0 -2,2 -5,4 -6,6 0,4 1,5 1,6 -1,0 -1,1 -1,2 0,1 1,1 2,2 0,0 0,0 0,0z"/>
  <path class="fil1" d="M116 97l-7 11c-7,13 -5,57 -1,71 11,2 60,6 66,-1l-2 0 0 -3c1,-20 -2,-45 -5,-64 -2,-12 -5,-16 -19,-17 -21,-2 -26,4 -34,4z"/>
  <path class="fil2" d="M72 34c-12,15 -12,43 -13,63 -1,24 0,49 0,73l28 -14c0,0 0,0 0,-1l3 0c0,5 1,9 1,13 3,0 10,-5 13,-7 1,-37 -6,-74 46,-69 31,3 13,19 26,33 15,17 -14,34 8,40 0,-25 4,-65 -8,-83 -13,-18 -33,-16 -51,-15 -4,0 -6,1 -10,1 -4,1 -5,2 -9,3l-1 1c0,1 0,1 -1,1 -4,4 -8,10 -10,18l-4 0c4,-19 16,-32 51,-32 63,1 48,57 50,99l11 4 1 -53c0,-7 -1,-12 -1,-18 -1,-27 -12,-60 -40,-69 -12,-4 -16,-2 -24,-3 -19,-2 -38,-2 -55,8 -3,2 -9,7 -11,6z"/>
  <path class="fil3" d="M242 251c7,-2 12,-5 14,-8 4,-3 10,-3 10,-10 0,-1 0,-2 0,-2 -1,-1 -1,-4 -1,-5 8,-19 -51,-29 -49,-55 -11,4 -4,22 -74,21 -23,0 -83,0 -87,-23 -28,4 -87,72 -7,87 3,1 5,1 8,1 4,5 82,10 91,10 46,0 85,-7 96,-16z"/>
  <g id="_586354720">
   <path class="fil4" d="M39 214l-1 -5 -5 -2c-5,7 3,11 6,7z"/>
   <path class="fil4" d="M138 233c0,-2 0,-4 -1,-5 -2,-2 -1,-1 -3,-1 -2,-1 -1,0 -2,-1 -2,3 -2,2 -1,6l3 3c4,0 2,1 5,-1z"/>
   <path class="fil4" d="M238 214c-2,-2 -1,-3 -2,-6l-4 -1 -2 2c0,6 4,9 8,5z"/>
  </g>
  
  <path class="fil5" stroke-width="1" d="M33 204c10,-5 14,9 6,13 -8,4 -16,-8 -6,-13zm14 -4c-6,-2 -11,-8 -21,-1 -12,9 1,33 19,22 8,-5 4,-14 2,-21z">
  	   <animate id="_1" attributeType="XML" attributeName = "fill" begin = "0;_5.end" dur = "1s" values = "rgba(255,0,0,1);rgba(0,0,0,0);rgba(255,0,0,1)"/>
</path>
  <path class="fil9" d="M80 219c9,-4 14,9 7,13 -10,5 -16,-8 -7,-13zm-2 -7c-16,6 -8,32 10,26 16,-6 8,-33 -10,-26z">
  	   <animate id="_2" attributeType="XML" attributeName = "fill" begin = "_1.end" dur = "1s" values = "rgba(0,0,255,1);rgba(0,0,0,0);rgba(0,0,255,1)"/>
	</path>
  <path class="fil8" d="M132 222c9,-5 15,9 7,13 -9,4 -15,-8 -7,-13zm-10 9c2,18 31,14 27,-6 -3,-17 -29,-14 -27,6z">
  	   <animate id="_3" attributeType="XML" attributeName = "fill" begin = "_2.end" dur = "1s" values = "rgba(11, 255, 0,1);rgba(11, 255, 0,0);rgba(11, 255, 0,1)"/>
	</path>
  <path class="fil6" d="M185 219c10,-4 14,10 5,13 -9,3 -14,-10 -5,-13zm16 10c5,-17 -23,-25 -27,-7 -4,20 22,25 27,7z">
  	   <animate id="_4" attributeType="XML" attributeName = "fill" begin = "_3.end" dur = "1s" values = "rgba(255, 234, 0,1);rgba(0,0,0,0);rgba(255, 234, 0,1)"/>
	</path>
  <path class="fil7" d="M230 204c9,-5 15,10 7,13 -9,4 -15,-9 -7,-13zm17 11c6,-17 -20,-26 -26,-9 -7,19 21,26 26,9z">
  	   <animate id="_5" attributeType="XML" attributeName = "fill" begin = "_4.end" dur = "1s" values = "rgba(193, 0, 255,1);rgba(0,0,0,0);rgba(193, 0, 255,1)"/>
	</path>
  
  
  <g id="_750463248">
   <path class="fil10" d="M89 177c-2,2 -5,11 -4,13 2,3 91,11 111,-4 -1,-3 -2,-7 -4,-9 -4,2 -5,5 -9,8 -14,9 -62,7 -74,4 -17,-5 -14,-9 -20,-13z"/>
   <path class="fil10" d="M93 174c6,15 34,13 47,13 12,0 42,1 47,-13 -8,3 -11,6 -20,9 -11,3 -43,2 -54,0 -12,-2 -12,-5 -20,-8z"/>
  </g>
  <path class="fil11 str0" d="M137 250l13 0 0 11 -13 1 0 -12zm-105 -43l5 2 1 5c-4,5 -11,0 -6,-7zm199 0l4 1c1,3 1,3 2,6 -5,4 -9,1 -8,-5l2 -2zm-47 -41l0 7c-1,2 -4,4 -8,5l1 -15 7 3zm17 62c-5,18 -31,12 -27,-7 4,-18 32,-10 27,7zm-123 -16c18,-7 26,20 10,26 -18,6 -26,-20 -10,-26zm44 18c-2,-20 24,-22 27,-6 4,20 -25,23 -27,6zm126 -16c-6,17 -33,9 -26,-9 6,-17 32,-8 26,9zm-114 -89c16,-5 19,25 6,30 -16,6 -21,-25 -6,-30zm-86 75c2,7 6,15 -2,21 -18,12 -31,-12 -19,-22 10,-8 15,-1 21,1zm145 28c-13,7 -14,-10 -2,-8 3,3 3,3 2,8zm-105 -1c-5,8 -15,-2 -8,-6 6,3 3,3 8,6zm51 4c-3,2 -1,1 -5,1l-3 -3c0,-4 -1,-3 1,-6 2,1 0,0 2,1 1,1 1,0 3,1 1,2 1,3 1,5zm74 -42c2,4 9,6 14,6 -3,5 -7,7 -7,13 0,5 2,11 6,14 11,8 18,2 25,-7 3,2 5,5 7,8l-7 6 -3 4 -3 1c2,3 2,8 1,12l-5 2 0 -9c-1,-3 1,-1 -2,-2l0 12c-3,3 -5,3 -8,2 -1,-4 0,-8 1,-12 -4,1 -2,1 -7,1l2 1c1,0 1,0 2,1l0 10 -10 2 0 -11 4 -2c-5,0 -18,2 -23,3 -40,5 -115,5 -154,-5 -6,-2 -16,-6 -21,-7 2,3 1,8 1,12 -7,-6 -6,1 -5,-12 2,-1 3,0 4,-1l-8 -4c2,5 2,6 2,12 -6,-2 -7,-6 -6,-13 1,-1 2,0 3,-1 -6,-6 -8,-9 -4,-17 6,-13 28,-33 43,-35l2 10c17,22 48,26 75,26 26,0 62,-4 81,-21zm-94 -91c7,0 12,-5 31,-4 13,1 15,5 17,17 3,19 6,44 5,63l0 3 1 0c-6,7 -50,3 -60,1 -3,-14 -6,-57 1,-70l6 -11zm141 127l1 5 2 1 -7 7 0 -10 4 -3zm-56 -56c-1,2 -3,10 0,12 -2,2 -2,2 -5,3 -4,-4 -7,-12 -6,-18 3,-1 9,2 11,4zm-170 34c-10,5 -2,16 6,13 8,-3 4,-18 -6,-13zm152 15c-9,3 -4,16 5,13 8,-3 5,-17 -5,-13zm-53 3c-8,4 -2,17 7,13 8,-4 2,-17 -7,-13zm-52 -3c-9,4 -3,18 7,13 7,-4 2,-17 -7,-13zm151 -15c-7,4 -2,17 7,13 8,-3 2,-18 -7,-13zm-197 22c9,-1 12,0 16,-8 3,-6 3,-15 -3,-18l-3 -5c-31,-6 -26,22 -17,28 3,2 4,0 7,2zm90 -81c4,21 30,14 26,-9 -4,-23 -30,-14 -26,9zm4 96c8,4 10,3 18,1 1,-7 9,-5 6,-17 -2,-7 -7,-12 -14,-12 -17,-1 -24,22 -10,29zm-56 -4c9,4 9,5 20,3 1,-2 9,-6 8,-17 -1,-7 -6,-12 -12,-13 -8,-2 -14,1 -18,8 -5,10 1,13 2,20zm109 2c8,2 10,2 18,-1 2,-6 10,-7 5,-19 -2,-7 -9,-11 -16,-11 -8,0 -13,4 -15,12 -1,4 -1,8 1,11 3,5 4,4 6,7zm93 -17l0 1c0,7 -4,14 -12,21 -24,21 -81,23 -112,23l-40 0c-29,-1 -60,-3 -83,-13 -17,-8 -25,-18 -26,-29l0 -5c1,-16 15,-32 33,-43 7,-4 18,-6 19,-14 2,-11 0,-21 0,-32 0,-40 -6,-84 22,-113 16,-16 28,-17 49,-18 106,-10 91,68 92,144 0,9 -1,21 7,27 17,11 49,30 49,52zm-150 27l12 0 1 11 -13 0 0 -12zm-11 0l10 0 0 11 -9 0 0 -12zm41 12l0 -11 10 0 0 11 -9 0zm-52 -12l10 0 0 12 -9 0c-1,-3 -1,-8 -1,-11zm85 -1l9 -1 0 12 -9 1 0 -11zm-2 12l-9 0 0 -12 9 0 0 12zm-95 -12l10 0 0 11 -10 0 0 -11zm-11 -1l10 1 0 11 -10 -1 0 -11zm119 11c0,-4 -1,-9 1,-12 3,-1 6,-1 9,0l0 10 -10 2zm-130 -12l9 1 0 11 -9 -1 0 -11zm105 14l-9 1 -1 -12 10 0 -1 11zm36 -4l0 -11 9 -1 0 10c-1,3 2,1 -3,2 -2,0 -4,0 -6,1zm-152 -2l0 -10c12,-1 10,1 9,13 -4,0 -7,-1 -10,-3zm-11 -12c3,-1 7,1 10,2l0 11c-10,-1 -10,-4 -9,-13zm-10 -3l8 1 0 12 -8 -3 0 -11zm-7 -3c3,0 4,1 6,2l0 10 -6 -2 0 -11zm220 -3l6 -2 0 11 -6 3 0 -12zm-158 -57c6,4 3,8 20,13 12,3 60,5 74,-4 4,-3 5,-6 9,-8 2,3 3,6 4,9 -19,15 -108,7 -111,4 -2,-3 2,-11 4,-13zm5 -2c9,3 9,7 20,8 11,2 43,3 54,0 9,-2 12,-5 20,-9 -4,14 -34,13 -47,13 -13,0 -41,2 -47,-13zm-28 7c21,18 44,15 74,15 68,1 61,-16 72,-19 -3,27 -56,26 -76,26 -20,0 -71,1 -75,-26l4 3c-1,-4 -2,-3 -2,-7 5,-5 20,-10 26,-10 0,9 -2,16 -6,26 -3,0 -6,-1 -8,-3 -4,-2 -5,-5 -9,-5zm28 -12c3,-4 7,-5 12,-5 2,3 2,11 2,15 -6,-1 -11,-3 -14,-10zm83 -27c-1,-7 2,-3 -1,-10 -1,-3 -2,-7 -1,-11 7,3 9,17 2,20zm-72 -72l1 -1 1 -1c7,-10 57,-18 73,7 7,11 9,27 9,41l0 48 -4 -2c-22,-7 8,-24 -8,-40 -13,-14 4,-30 -26,-33 -52,-5 -46,32 -46,69 -2,2 -10,6 -13,7 -2,-22 -4,-80 13,-94zm-33 -40c17,-35 93,-35 119,-9 28,28 19,107 19,144l-8 -5 -11 -4c-2,-42 13,-98 -50,-99 -67,-1 -50,49 -54,95l-28 14c0,-24 -2,-49 0,-73 1,-20 0,-47 13,-63z"/>
  <path class="fil12" d="M133 125c-15,5 -10,35 6,30 13,-5 10,-34 -6,-30z"/>
  <path class="fil13" d="M192 229c1,-5 1,-5 -2,-8 -12,-2 -11,15 2,8z"/>
  <path class="fil14" d="M177 143c6,-3 5,-18 -2,-20 0,3 0,8 1,11 3,6 0,3 1,10z"/>
  <path class="fil15" d="M87 228c-4,-2 -1,-3 -8,-6 -7,4 3,14 8,6z"/>
  <path class="fil16" d="M163 161c-12,0 -19,2 -14,6l15 0 -1 -6z">
	<animate attributeName = "d" begin = "0s" end = "minsk.mouseout" dur = ".41s" repeatCount="indefinite"
							values = "
									M163 161c-12,0 -19,2 -14,6l15 0 -1 -6z;
									M164 162c-12,1 -29,-1 -14,10l15 3 -10 -6z;
									M163 161c-12,0 -19,2 -14,6l15 0 -1 -6z;
									M162 160c-12,1 -10,0 -14,10l15 3 0 -6z;
									M163 161c-12,0 -19,2 -14,6l15 0 -1 -6z"
									
	/>
  </path>	
  <path class="fil16" d="M150 129c-20,-6 -32,-9 -23,-3l25 8 -2 -5z">
	<animate attributeName = "d" begin = "0s" end = "minsk.mouseout" dur = "2s" repeatCount="indefinite"
							values = "
									M150 129c-20,-6 -32,-9 -23,-3l25 8 -2 -5z;
									M150 119c-20,-6 -32,-9 -23,-3l25 8 -2 -5z;
									M150 129c-20,-6 -32,-9 -23,-3l25 8 -2 -5z;
									M150 129c-20,-6 -32,-9 -23,-3l25 8 -2 -5z;
									M150 129c-20,-6 -32,-9 -23,-3l25 8 -2 -5z;
									M150 122c-20,-6 -32,-9 -23,-3l25 8 -2 -5z;
									M150 129c-20,-6 -32,-9 -23,-3l25 8 -2 -5z;
									M150 129c-20,-6 -32,-9 -23,-3l25 8 -2 -5z"
									
	/>
  </path>	
  <path class="fil16" d="M174 123c9,-7 14,-10 10,-3l-11 9 1 -6z">
	<animate attributeName = "d" begin = "0s" end = "minsk.mouseout" dur = "2s" repeatCount="indefinite"
							values = "
									M174 123c9,-7 14,-10 10,-3l-11 9 1 -6z;
									M174 113c9,-7 14,-10 10,-3l-11 9 1 -6z;
									M174 123c9,-7 14,-10 10,-3l-11 9 1 -6z;
									M174 123c9,-7 14,-10 10,-3l-11 9 1 -6z;
									M174 123c9,-7 14,-10 10,-3l-11 9 1 -6z;
									M174 117c9,-7 14,-10 10,-3l-11 9 1 -6z;
									M174 123c9,-7 14,-10 10,-3l-11 9 1 -6z;
									M174 123c9,-7 14,-10 10,-3l-11 9 1 -6z"
									
	/>
  </path>
  <path class="fil17" d="M138 149c1,-6 2,-2 0,-9 -3,4 -3,6 0,9z"/>
 </g>
</g>
</g>
</g>
</svg>
