<?xml version="1.0" encoding="UTF-8"?>
<!DOCTYPE svg PUBLIC "-//W3C//DTD SVG 1.1//EN" "http://www.w3.org/Graphics/SVG/1.1/DTD/svg11.dtd">
<!-- Creator: CorelDRAW X6 -->
<svg xmlns="http://www.w3.org/2000/svg" xml:space="preserve" width="1018px" height="126px" version="1.1" style="shape-rendering:geometricPrecision; text-rendering:geometricPrecision; image-rendering:optimizeQuality; fill-rule:evenodd; clip-rule:evenodd"
viewBox="0 0 10263 1269"
 xmlns:xlink="http://www.w3.org/1999/xlink">
 <defs>
  <style type="text/css">
   <![CDATA[
    .str0 {stroke:aqua;stroke-width:30}
    .fil0 {fill:none}
   ]]>
  </style>
 </defs>
 <g id="Layer_x0020_1">
  <metadata id="CorelCorpID_0Corel-Layer"/>
  <path class="fil0 str0" d="M0 450c530,-1 1217,-437 1832,-437 333,0 581,-52 862,77 220,101 481,-156 673,-37 407,254 1042,123 1548,185 531,65 674,-145 1280,-145 514,0 1568,139 1943,-49 199,-99 358,546 880,243 410,-238 450,46 825,57 257,8 77,32 339,-20 30,-6 61,13 79,34"/>
 <path class="fil0 str0" d="M10 1266c77,-25 493,-21 718,-75 930,-226 1500,-324 2427,-79 1216,322 1577,-311 2396,33 438,184 805,92 1331,116 653,30 642,-220 1438,-220 227,0 864,-37 1053,26 284,95 691,-100 868,8"/>
  <path class="fil0 str0" d="M30 499c560,261 2476,-44 2772,160 365,252 240,-52 844,-52 331,0 529,76 787,48 369,-40 1056,-93 1409,57 786,334 557,-281 1244,-118 394,94 1289,-105 1432,-38 652,305 -88,-91 846,-91 367,0 316,1 667,58 55,9 195,-5 228,6"/>
  
 </g>
</svg>
