<?xml version="1.0" encoding="UTF-8"?>
<!DOCTYPE svg PUBLIC "-//W3C//DTD SVG 1.1//EN" "http://www.w3.org/Graphics/SVG/1.1/DTD/svg11.dtd">
<!-- Creator: CorelDRAW X6 -->
<svg xmlns="http://www.w3.org/2000/svg" xml:space="preserve" width="1068px" height="1068px" version="1.1" style="shape-rendering:geometricPrecision; text-rendering:geometricPrecision; image-rendering:optimizeQuality; fill-rule:evenodd; clip-rule:evenodd"
viewBox="0 0 504 504"
 xmlns:xlink="http://www.w3.org/1999/xlink">
 <defs>
  <style type="text/css">
   <![CDATA[
    .str1 {stroke:#521E00;stroke-width:1}
    .str2 {stroke:#663300;stroke-width:1}
    .str0 {stroke:#A25D01;stroke-width:1}
    .fil49 {fill:#2C0404}
    .fil24 {fill:#2E0205}
    .fil5 {fill:#310204}
    .fil12 {fill:#320401}
    .fil41 {fill:#440C00}
    .fil65 {fill:#4B0D00}
    .fil63 {fill:#4C1300}
    .fil30 {fill:#4E1A00}
    .fil13 {fill:#511A00}
    .fil14 {fill:#521E00}
    .fil38 {fill:#531500}
    .fil17 {fill:#541E00}
    .fil60 {fill:#550C00}
    .fil46 {fill:#552101}
    .fil34 {fill:#561805}
    .fil56 {fill:#5B1C00}
    .fil27 {fill:#5B2301}
    .fil59 {fill:#632401}
    .fil62 {fill:#6B2400}
    .fil61 {fill:#732C01}
    .fil58 {fill:#772A02}
    .fil64 {fill:#7B3401}
    .fil44 {fill:#843500}
    .fil43 {fill:#843C02}
    .fil39 {fill:#863900}
    .fil54 {fill:#893900}
    .fil36 {fill:#8A3C0B}
    .fil31 {fill:#8A3D00}
    .fil37 {fill:#8C4404}
    .fil25 {fill:#8E3F00}
    .fil20 {fill:#8F4200}
    .fil52 {fill:#8F4500}
    .fil28 {fill:#904100}
    .fil19 {fill:#914203}
    .fil22 {fill:#914300}
    .fil11 {fill:#924300}
    .fil0 {fill:#924602}
    .fil8 {fill:#934402}
    .fil4 {fill:#934500}
    .fil1 {fill:#944502}
    .fil15 {fill:#944700}
    .fil2 {fill:#954902}
    .fil33 {fill:#95520C}
    .fil21 {fill:#964603}
    .fil7 {fill:#964704}
    .fil10 {fill:#964905}
    .fil26 {fill:#974A00}
    .fil18 {fill:#994A05}
    .fil51 {fill:#9A4D01}
    .fil23 {fill:#9A4D05}
    .fil50 {fill:#9C530B}
    .fil53 {fill:#9D5101}
    .fil47 {fill:#9E5105}
    .fil32 {fill:#9E5C05}
    .fil16 {fill:#9E5D00}
    .fil29 {fill:#9E6101}
    .fil3 {fill:#A05F00}
    .fil40 {fill:#A15A01}
    .fil42 {fill:#A25304}
    .fil6 {fill:#A25D01}
    .fil9 {fill:#A25E05}
    .fil35 {fill:#A56205}
    .fil45 {fill:#AA5909}
    .fil48 {fill:#B26C0C}
    .fil57 {fill:#B36918}
    .fil55 {fill:#B77419}
   ]]>
  </style>
 </defs>
 <g id="Layer_x0020_1">
  <metadata id="CorelCorpID_0Corel-Layer"/>
  <g id="_857948080">
   <path class="fil0 str0" d="M75 460l-1 -11c6,5 8,13 6,21 -7,3 -13,0 -15,-7 7,0 4,1 11,-2zm-49 7l-3 2 2 -2c24,-90 22,-106 4,-187 -2,-10 -5,-49 -3,-42 5,20 6,33 12,54 6,18 12,38 13,58 2,35 -13,84 -26,117zm0 -95l2 50c-13,9 -19,6 -20,27 0,8 9,24 13,34 4,-4 9,-7 13,-11 5,-6 4,-9 9,-14 8,4 21,34 13,46l15 0c-3,-14 -14,-39 -22,-50 -5,-24 2,-27 20,-36 15,-7 6,-33 14,-43 7,5 10,35 9,44 3,12 7,42 -1,52 -4,-2 -8,-20 -13,-27 -19,-26 -36,11 -10,32 14,11 12,11 15,29l4 0c5,-9 3,-9 0,-18 16,-9 13,-40 28,-35l-7 16 4 -6c0,5 -4,13 -6,18 -4,11 -2,13 -14,17 3,7 2,6 10,9l3 0c17,-46 57,-107 40,-163 -5,-18 -22,-25 -30,-5 -4,11 -8,47 4,54 8,5 19,-16 7,-26 -15,-14 23,-26 7,47l2 3c-7,15 -8,20 -21,31l-3 -2c-16,-16 -9,-88 -6,-110l-10 21 -3 0 -12 -16 -2 23 -4 -7c-5,-57 -8,-128 -35,-179 -29,-55 -16,-119 1,-175l-13 0c-65,112 76,288 37,399 0,0 -19,-124 -30,-164 -12,-45 -15,19 -12,34 7,47 15,52 6,103z"/>
   <path class="fil1 str0" d="M245 61c6,-10 5,-5 6,-17 3,6 0,14 -6,17zm0 -25c0,0 2,-2 3,0 1,3 -3,1 -3,0zm3 49l12 7 -4 8 9 -17c-3,-28 0,-37 -20,-57 -8,-8 8,-20 16,3 32,85 7,84 11,158 3,62 -4,120 0,178 2,28 -4,54 -1,81 3,33 -2,25 -15,44l-7 15 18 0c1,-8 0,-11 5,-18l5 1 2 5 5 13 4 0c-3,-18 -10,-87 3,-99 0,11 -5,31 -5,45 0,16 2,38 5,54l10 0c0,-38 7,-94 -1,-129 -12,-53 -17,-63 -17,-121 -1,-94 23,-157 18,-254l-10 0c2,15 1,61 -8,72 -11,-6 -15,-59 -15,-72l-38 0c-2,17 -2,39 1,57 6,33 19,8 27,8 0,6 -5,14 -8,20z"/>
   <path class="fil2 str0" d="M180 20c1,36 -7,66 -6,100 0,31 7,70 3,99 -5,39 9,63 4,86 -8,33 -10,61 -13,94l8 1c-1,20 0,24 5,44 2,8 9,33 15,36 1,-5 2,-12 8,-14l2 12 -4 2 -7 7c7,3 2,4 11,0 14,-5 7,-11 16,-19l2 4 2 -1 1 13c2,-9 4,-19 0,-28 -7,-1 -3,6 -13,7 -21,-8 -8,-78 -7,-97 1,-7 3,-25 -4,-29 -10,6 -8,22 -16,33l-7 -3c9,-11 7,-15 8,-29l-8 18c-4,-25 23,-68 23,-68 7,-22 -24,-42 -12,-76 -4,0 -3,2 -6,-2 -6,-16 -2,-34 -2,-52 -1,-15 -4,-23 -4,-41 0,-76 17,-28 22,-81l3 -10 8 79 3 0 5 -6 12 44c0,-5 2,-14 0,-17 -2,-6 -1,-5 -2,-12 -2,-26 11,-7 14,-24l-11 3 -14 -11 9 -1 -6 -51 -5 -17c-8,-2 6,5 -11,3 -16,-1 -13,12 -19,18 -8,-10 4,-20 1,-26 -7,-16 -9,9 -10,12z"/>
   <path class="fil0 str0" d="M342 382c-2,-6 -3,-3 1,-6l-1 6zm-45 -86c-16,50 33,90 36,111l-12 9 3 1 5 5 9 -4c28,-12 -2,-26 -10,-43 -7,-15 -11,-50 -10,-66 5,14 3,38 10,57 5,16 22,30 32,43 4,13 -4,12 -7,23l-3 12 2 1 15 -23c2,-15 -10,-34 -17,-49 -8,-3 -7,4 -10,-6l6 -2 -3 -3 8 -10c-8,-2 -3,2 -6,-6l2 -35c-12,-22 28,-30 20,-48 -7,0 -7,10 -13,14 1,-8 7,-12 11,-18l-1 -4c-37,20 -34,-25 -29,-47l11 -24 -3 -1c4,-9 4,-3 2,-11l-3 -3 -5 7c-10,7 -15,11 -13,23 0,1 -5,20 -5,26 -2,36 -5,-20 -6,-21 -1,-1 -3,3 -3,1 -1,-10 8,-31 6,-39 -3,-12 -10,25 -10,26 -3,33 6,76 -9,106z"/>
   <path class="fil1 str0" d="M393 261c-4,6 -8,12 -15,14 -23,47 -14,81 -3,129l5 17 -4 -2 -8 2 -15 23 -2 -1 3 -12 -6 -6 -8 9c5,12 6,10 9,24 1,8 3,10 3,18 0,8 0,9 0,17l-4 1 -8 3 -2 -12c-11,3 -6,5 -10,14l-13 3 41 0c8,-16 0,-12 0,-24 0,-6 0,-24 5,-26 9,11 -6,21 1,32 10,1 3,-11 24,-14 13,-16 12,-40 8,-60 -2,-12 -7,-46 -4,-56 3,2 10,24 11,28 2,10 -3,25 -1,39l4 7c2,-5 7,-22 9,-28 4,-15 -5,-19 -4,-30l9 7 2 -6c-6,-24 -15,-44 0,-68 15,-24 33,-25 59,-26 8,0 6,2 14,0 1,-11 -3,0 -3,-5l4 -5c-15,-4 -26,-2 -41,0 -29,12 -36,13 -50,43 -2,-12 8,-27 11,-38l-2 -6c-10,16 -10,21 -17,38 -3,7 -6,4 -11,10 -3,4 -4,11 -7,12 -4,-14 4,-35 12,-46 15,-21 18,-20 20,-47l-7 -5 3 0 -8 32z"/>
   <path class="fil3 str0" d="M0 122c19,27 12,39 0,67l0 63c13,14 20,55 20,74 0,13 -4,23 -4,39 0,13 -5,24 -16,32 17,14 14,1 25,4 -1,6 -6,4 -1,9 7,-12 -1,-20 2,-37 9,-51 2,-56 -6,-103 -2,-15 0,-79 12,-34 11,40 30,164 30,164 40,-110 -102,-286 -37,-399l-26 0 0 122z"/>
   <path class="fil4 str0" d="M72 140c-11,-11 0,-13 -5,-23 -10,4 1,2 -5,12l-3 -6c2,45 27,63 30,92 2,15 -14,92 5,105l7 -14 -8 -7c7,-13 7,1 5,-17 11,-8 4,-5 10,-12 4,8 -2,18 3,25 6,-4 4,-4 4,-11 -6,-35 9,-49 -6,-82 -9,-18 -23,-54 -8,-73 1,-2 -6,19 13,64 16,38 17,30 4,69l1 17c2,-11 3,-19 15,-20 18,-1 -1,6 -1,6 -2,9 2,33 11,35 9,-6 -5,-3 6,-13 -10,-16 1,-63 -20,-100 -10,-17 -22,-25 -19,-46 3,-23 14,-29 17,-50l-9 2 -5 -12 -1 2c-16,9 -2,31 -15,35 -6,-6 6,-13 -6,-20 -18,2 -9,40 -20,43z"/>
   <path class="fil1 str0" d="M256 100c-5,13 -7,23 -9,37 -1,12 -1,30 -4,40l-3 -53 -2 22c-1,23 -2,48 1,70 2,19 9,39 8,59 -1,18 -5,-15 -12,-18 -13,-7 -8,40 -7,44 4,31 19,186 14,155 -3,-20 -4,-41 -6,-61l-3 -1c2,12 1,35 -12,40 1,-10 8,-20 1,-31 -9,-2 -5,2 -11,5 -1,-7 5,-14 11,-17 -10,-6 -1,-30 -10,-43 -2,24 -7,46 -7,71 0,53 20,22 28,21 6,9 -3,51 -5,64l20 0 7 -15c-13,-58 4,-142 6,-207 1,-46 -16,-58 -11,-98 4,-33 10,-67 15,-101l-9 17z"/>
   <path class="fil5 str0" d="M299 504l12 0c-1,-18 -7,-70 4,-83l1 -4 4 -2 12 -9c-4,-21 -53,-61 -36,-111 3,-25 -4,-136 13,-148l7 -8 3 -13c4,-9 0,-26 -1,-37l-8 -89 -12 0c5,97 -19,160 -18,254 0,58 6,68 17,121 8,36 1,91 1,129z"/>
   <path class="fil6 str0" d="M453 44c2,-8 4,-11 12,-8 3,6 3,9 -1,15 -1,38 -7,70 -45,88l-21 -73 -10 6 6 15c-1,29 2,29 -4,61 -6,30 -7,30 9,55 21,2 19,-18 34,-13 3,14 0,2 7,12l-4 8 9 6c13,-27 43,-41 44,-64 1,-20 -24,39 -49,20 -11,-8 52,-90 33,-161 -9,1 -22,11 -28,18 0,7 1,12 7,17z"/>
   <path class="fil6 str0" d="M265 83c-4,34 -11,67 -15,101 -5,40 13,52 11,98 -2,65 -19,150 -6,207 12,-19 18,-11 15,-44 -3,-26 3,-53 1,-81 -4,-58 3,-117 0,-178 -3,-74 21,-73 -11,-158 -9,-23 -24,-11 -16,-3 20,20 17,29 20,57z"/>
   <path class="fil0 str0" d="M462 326c30,-4 17,49 -8,32 8,-3 16,0 19,-13 3,-11 -2,-16 -11,-19zm13 56c1,-3 11,-23 14,-27 10,-14 2,-22 -1,-33 23,31 -5,60 -13,60zm-43 -79c14,-4 13,-13 29,-13 6,3 3,6 5,6 3,0 1,-5 4,-6 3,-1 5,4 7,5 5,3 4,0 8,3 0,13 -5,3 -16,9 20,35 0,0 -19,7 -22,8 -13,36 -6,50 11,22 26,25 22,50 -3,21 -10,42 -13,63 1,14 -7,13 -3,22 5,-1 5,-1 8,-7l-2 12 24 0 -4 -48 8 48 9 0c-1,-15 -6,-47 -15,-59 -8,-10 0,-28 3,-40 8,-11 8,-6 23,-8l0 -68c-9,-12 -9,-36 -25,-43 -16,-7 -37,4 -48,16z"/>
   <path class="fil5 str0" d="M163 76l5 205c9,20 -1,64 -4,87 -4,32 -7,64 -10,96l-3 39 11 0 6 -105c3,-33 5,-61 13,-94 6,-23 -9,-47 -4,-86 3,-29 -3,-68 -3,-99 0,-34 7,-64 6,-100 -10,-15 -16,-7 -18,-19l-11 0c2,21 25,48 12,76z"/>
   <path class="fil1 str0" d="M135 52c-13,50 16,52 16,70l-13 -9c0,10 3,7 -2,14 -2,-4 -1,-5 -7,-6 -1,8 3,3 -1,6 -4,3 0,-4 -6,3 3,4 7,6 12,8 7,4 9,1 16,-1l-1 -4c11,10 11,23 3,34 -10,3 -10,1 -19,-2l-6 -5 -4 2c14,28 15,15 31,25 8,18 -11,13 -7,38 3,17 6,34 8,51l10 3 3 1 -5 -205c0,-9 2,-22 -1,-29 -13,0 -14,28 -14,36 -7,-11 4,-32 -3,-42l-7 23 -2 -13z"/>
   <path class="fil7 str0" d="M342 168l3 3 3 -4c5,3 3,1 5,-2 7,1 5,-1 9,3 -3,7 -8,5 -16,15l-11 24c12,-12 26,-21 35,-35 13,-20 8,-34 14,-53 1,1 -6,61 -4,72 5,32 22,31 10,70l3 1 8 -32 -3 0 7 5 -2 -20 -3 -12c-16,-25 -15,-25 -9,-55 6,-32 3,-32 4,-61l-7 9 -7 -2 6 -41 -7 -2 12 -19 -5 -8c7,1 7,5 16,0l-12 -5c-1,-5 -4,-6 -8,-8l-6 10c-4,-11 -2,-10 1,-21l-6 0c-4,11 -5,24 -3,36l7 3c2,12 -7,59 -9,75 -1,7 0,32 -1,35 -4,7 -15,7 -24,19z"/>
   <path class="fil8 str0" d="M474 9c19,71 -44,152 -33,161 25,19 50,-40 49,-20 -1,23 -31,38 -44,64l-4 12 0 8 9 13c-6,4 -16,2 -25,4l-19 16 2 6c10,-4 9,-9 22,-14 11,-4 20,-3 31,-6l-6 -14c-7,-15 14,-45 26,-50 2,-11 11,-16 14,-31 4,-20 -2,-22 -4,-38l-5 -5c-7,6 2,4 -10,9l-7 13c-2,7 -1,7 -7,9 -2,7 -4,7 -11,10 -3,-7 9,-23 12,-30 5,-12 9,-23 11,-36 5,-33 9,-56 7,-89l-5 0 -3 9z"/>
   <path class="fil9 str0" d="M75 322l0 29 3 10 2 -23 12 16 3 0 10 -21 -1 -3 1 -24 -5 -1 -7 14c-19,-13 -3,-90 -5,-105 -3,-29 -28,-47 -30,-92l-1 -20c1,-17 4,-38 3,-54 -1,-21 -13,-23 -4,-47l-7 0c-7,18 -3,23 -1,40 4,36 -12,76 13,133 25,57 21,171 14,148z"/>
   <path class="fil5 str0" d="M104 330l1 3c-3,22 -10,94 6,110 12,-11 15,-18 22,-32 17,-73 -22,-61 -7,-47 12,11 1,31 -7,26 -11,-7 -8,-43 -4,-54 8,-20 25,-13 30,5 17,56 -23,117 -40,163l3 0c2,-9 13,-37 19,-43l6 -13 2 -5c12,-37 28,-47 20,-92 -8,-33 -11,-27 -26,-51 -25,1 -17,12 -27,29z"/>
   <path class="fil0 str0" d="M392 32l-12 19 7 2 -6 41 7 2 7 -9 -6 -15c2,-4 26,-36 28,-37 16,4 13,40 7,43 -2,-9 2,-12 -3,-22 -11,-6 -16,1 -22,9l21 73c-9,-16 28,-29 25,-51l-7 5c6,-8 11,-25 9,-35 -2,-1 -5,3 -6,0 -2,-4 -1,-16 -1,-21l-7 48 -1 3 0 -4 5 -84 -14 0 -6 22 1 -22 -7 0c3,18 5,35 -18,31z"/>
   <path class="fil10 str0" d="M75 322c7,23 11,-92 -14,-148 -25,-57 -9,-97 -13,-133 -2,-18 -6,-22 1,-40l-7 0c-13,48 -13,119 3,166 10,29 15,41 20,72 4,28 6,56 10,83z"/>
   <path class="fil11 str0" d="M197 75l5 -3c4,5 -1,10 -7,11l2 -8zm5 -37l4 -1c1,6 3,17 1,22 -3,12 -7,7 -10,16 -6,3 -11,5 -9,12l4 1c-4,8 -4,0 -4,15l-6 4c0,5 1,16 3,20 4,11 9,7 5,13 1,-12 -3,-15 5,-25 8,-32 7,-12 19,12 16,31 16,29 0,57 -13,22 -18,38 -10,63 11,38 16,26 -1,59l3 4c1,0 10,-3 10,-3 7,-3 2,-6 11,-4 -5,-17 -9,-22 -4,-41l-11 -7c-1,-6 4,-5 0,-7 -4,-2 -7,-1 -5,-8 6,0 6,4 10,0 4,-5 -3,-4 -4,-10 0,-5 4,-5 6,-11 2,-6 0,-9 5,-14 9,1 8,14 8,21l4 -49 -1 -30 -12 -44 -5 6 -3 0 -8 -79 -3 10z"/>
   <path class="fil1 str0" d="M431 302c-10,11 -15,26 -15,41 -1,23 7,23 14,40 5,13 8,29 13,43 7,22 2,28 2,50l1 8 7 -11c8,-49 13,-56 -8,-102 -7,-15 -18,-31 -9,-47 7,-13 20,-29 34,-17 11,-5 16,5 16,-9 -4,-3 -3,0 -8,-3 -2,-2 -4,-6 -7,-5 -3,1 -1,6 -4,6 -3,0 0,-3 -5,-6 -16,0 -15,9 -29,13z"/>
   <path class="fil8 str0" d="M319 89c1,11 5,28 1,37 11,12 -2,7 15,16 5,-10 -1,-16 3,-26 7,3 7,11 8,18 11,-4 18,-13 8,-23 -7,-6 -1,-12 -4,-19 -2,-5 -6,3 -3,-6 4,-13 -1,-31 1,-46 2,-14 8,-24 8,-39l-26 0 1 8 5 -1c-3,27 -8,39 -4,68 -4,4 -2,0 -6,4 -2,2 -4,6 -6,9z"/>
   <path class="fil5 str0" d="M335 207c-5,23 -8,67 29,47l6 -3c2,-13 11,-21 2,-36 -11,-4 -21,3 -20,16 6,3 4,3 11,0l6 -3 3 2c2,12 -14,31 -25,25 -11,-6 -10,-37 -1,-47l10 -7c28,-16 39,54 17,72 -18,61 -21,71 -1,133l2 0c-11,-48 -20,-82 3,-129l12 -15c12,-40 -4,-38 -10,-70 -2,-11 6,-72 4,-72 -6,19 -2,33 -14,53 -9,14 -23,24 -35,35z"/>
   <path class="fil12 str0" d="M73 355l2 -4 0 -29c-5,-28 -6,-55 -10,-83 -5,-31 -10,-44 -20,-72 -16,-47 -16,-118 -3,-166l-3 0c-17,56 -30,120 -1,175 27,51 30,122 35,179z"/>
   <path class="fil0 str0" d="M162 504l61 0 0 -4 -6 1 6 -28c-10,12 -8,19 -29,21l10 -7c-8,4 -4,3 -11,0l7 -7c-5,2 -1,2 -6,0 -6,-3 -13,-28 -15,-36 -5,-20 -6,-23 -5,-44l-8 -1 -6 105z"/>
   <path class="fil13 str0" d="M417 373c22,25 22,100 20,131l6 0 3 -28c0,-21 5,-28 -2,-50 -5,-14 -8,-29 -13,-43 -6,-18 -15,-17 -14,-40 1,-15 6,-30 15,-41 11,-11 32,-23 48,-16 16,7 16,32 25,43l0 -35 -29 -16c-26,1 -44,2 -59,26 -15,24 -6,45 0,68z"/>
   <path class="fil10 str0" d="M317 139l0 5 -7 3c-17,12 -11,123 -13,148 15,-29 7,-73 9,-106 0,-1 7,-38 10,-26 2,8 -7,29 -6,39 0,2 2,-1 3,-1 1,1 4,57 6,21 0,-6 5,-25 5,-26 -2,-12 3,-16 13,-23 -2,-12 -10,-21 -3,-32 -16,-9 -4,-4 -15,-16l-3 13z"/>
   <path class="fil1 str0" d="M415 379c7,30 -4,27 -6,52 -2,23 17,9 19,41 -4,-4 -2,-7 -11,-11 -9,-5 -11,-2 -17,-12 2,24 24,9 23,56l13 0c3,-31 3,-107 -20,-131l-2 6z"/>
   <path class="fil14 str1" d="M483 190c-4,15 -22,27 -20,38 4,1 7,1 8,-4 -5,16 15,9 5,17 -11,-4 -4,-14 -19,0l6 14c2,14 -9,4 -17,8l3 7c15,-2 26,-4 41,0l14 6 0 -6c-19,-16 -27,-16 -21,-46 2,-14 12,-35 21,-45l0 -49 -11 -9c2,16 8,18 4,38 -3,15 -12,20 -14,31z"/>
   <path class="fil15 str0" d="M439 36c-1,5 -2,17 1,21 2,3 4,-1 6,0 2,10 -3,27 -9,35l7 -5c3,22 -33,35 -25,51 38,-18 43,-49 45,-88l-3 -5c-5,7 -5,30 -13,34 -2,-9 3,-24 8,-33l-3 -2c-6,-5 -7,-10 -7,-17 6,-7 19,-16 28,-18l3 -9 -35 0c-1,11 -4,26 -2,36z"/>
   <path class="fil9 str0" d="M128 89c-3,21 -14,26 -17,50 -3,21 9,29 19,46 22,37 10,84 20,100l1 9 4 -16c-2,-17 -5,-34 -8,-51 -4,-25 15,-20 7,-38 -16,-10 -17,3 -31,-25 -7,-20 -8,-43 15,-51l13 9c0,-18 -29,-20 -16,-70l1 -19c-8,11 -9,42 -7,56z"/>
   <path class="fil1 str0" d="M315 422c-11,12 -6,65 -4,83l2 0 13 -3c4,-10 -1,-12 10,-14l2 12 8 -3 -5 -32c-1,-16 -10,-19 -9,-36 -3,7 -5,6 -7,14 -1,5 -1,10 -5,12 -3,-12 2,-21 9,-32l-5 -5 -9 5z"/>
   <path class="fil9 str0" d="M194 114l1 21c3,-8 -2,-18 5,-26 9,5 11,35 12,45 -1,24 -6,39 -19,58 -12,34 18,54 12,76 0,0 -27,42 -23,68l8 -18c1,-7 1,-11 6,-16 6,-10 6,-2 8,-17 16,-33 12,-21 1,-59 -8,-26 -3,-41 10,-63 16,-27 16,-26 0,-57 -13,-24 -11,-45 -19,-12z"/>
   <path class="fil4 str0" d="M57 102l6 1 4 -6c1,5 -7,7 3,14 2,-4 8,-22 11,-24 -9,-7 0,-8 -2,-20 -3,-8 0,-26 -1,-36 -1,-10 -2,-22 -5,-31l-16 0c-8,24 3,26 4,47 1,16 -2,38 -3,54z"/>
   <path class="fil1 str0" d="M345 134c-5,2 -3,8 -2,12 8,-5 3,-6 12,-9l2 6 4 -3c4,-13 11,-58 9,-73 -1,-16 -4,-8 -10,-16 -2,-14 0,-37 5,-51l-9 0c0,16 -6,25 -8,39 -2,15 3,33 -1,46 -3,9 1,1 3,6 3,7 -3,13 4,19 10,10 3,19 -8,23z"/>
   <path class="fil16 str0" d="M0 395l0 1 0 107 27 0 -2 -4c-8,0 -6,1 -12,-5l5 -10 16 2c-1,10 -1,-1 1,11 4,-5 4,-10 10,-11l-1 -4 -21 0c-4,-10 -14,-26 -13,-34 1,-21 7,-18 20,-27l-2 -50c-3,17 5,25 -2,37 -5,-5 -1,-3 1,-9 -11,-3 -9,11 -25,-4z"/>
   <path class="fil0 str0" d="M0 270l4 8 -4 -2 0 20 8 12 -8 10 0 77 0 -1c11,-8 15,-18 16,-32 1,-16 4,-26 4,-39 0,-19 -7,-60 -20,-74l0 19z"/>
   <path class="fil17 str0" d="M234 174l-4 49 -9 37c-5,20 -1,24 4,41l12 92c2,20 3,41 6,61 5,31 -10,-125 -14,-155 -1,-4 -6,-51 7,-44 7,4 11,36 12,18 1,-20 -6,-39 -8,-59 -3,-22 -2,-47 -1,-70 -7,11 -1,18 -6,27z"/>
   <path class="fil18 str0" d="M347 309l-2 35c3,8 -2,4 6,6l3 2 -7 11 -6 2c3,11 2,3 10,6 6,15 18,34 17,49l8 -2 -3 -14c-20,-63 -17,-73 1,-133 4,-7 10,-15 5,-23 -10,9 -5,18 -17,30 -7,7 -13,20 -14,30z"/>
   <path class="fil7 str2" d="M79 68c2,12 -7,13 2,20 13,-10 0,-9 5,-18l8 6c4,-3 2,-5 3,-8 6,1 10,7 7,12 -8,16 -27,-7 -32,59 11,-3 2,-40 20,-43 12,7 0,14 6,20 13,-4 -1,-26 15,-35 -7,-27 -13,-40 -11,-70 -11,9 -3,11 -5,25 0,5 -4,12 -7,14 -4,-10 1,-36 -3,-51l-3 0c0,12 1,24 -1,36 -1,11 -4,21 -5,32z"/>
   <path class="fil9 str0" d="M403 215l2 20c-2,27 -4,26 -20,47 -8,11 -16,32 -12,46 3,-1 4,-8 7,-12 5,-6 8,-2 11,-10 6,-16 6,-22 17,-38l19 -16 7 -6c-7,-6 -3,-1 -5,-12l6 3 8 -3 0 -8c-26,3 -14,26 -22,20 -7,-5 -3,-10 0,-15 4,-6 -6,-1 -8,-4 -4,-6 16,-7 16,-9 1,-6 -3,-8 -8,-5 -7,4 -6,-1 -14,-4l-4 5z"/>
   <path class="fil19 str0" d="M134 499c-2,-8 2,-17 4,-25 2,-7 1,-20 6,-22 3,5 -6,42 -10,47zm1 -56l-2 5c0,8 0,8 -6,13 -6,6 -17,34 -19,43l43 0 3 -39 -3 0c-3,-18 2,-32 3,-50 -9,8 -3,21 -18,28z"/>
   <path class="fil16 str0" d="M482 406c8,9 5,7 7,15 1,6 10,4 5,13 -5,-1 -1,-2 -6,-7l-3 4 -2 -6c-4,6 -3,7 0,12 1,2 -2,4 -3,9 9,11 13,44 15,59l10 0 0 -106c-15,2 -15,-3 -23,8z"/>
   <path class="fil20 str0" d="M202 38c-5,52 -22,5 -22,81 0,17 4,26 4,41 1,18 -4,35 2,52 1,-7 5,-46 6,-47 4,5 1,19 1,26 7,-20 1,-30 3,-45 8,-8 9,9 15,10 -1,-10 -2,-40 -12,-45 -7,7 -2,18 -5,26l-1 -21c-8,10 -3,13 -5,25 4,-6 -1,-2 -5,-13 -2,-4 -2,-15 -3,-20l6 -19c-2,-7 3,-9 9,-12 3,-9 7,-4 10,-16 1,-5 -1,-16 -1,-22l-4 1z"/>
   <path class="fil14 str1" d="M360 140l-6 11c-7,1 -7,1 -11,-4 -1,-4 -3,-11 2,-12 0,-7 -1,-15 -8,-18 -3,10 2,16 -3,26 -7,12 1,20 3,32l5 -7c9,-12 20,-11 24,-19 2,-3 1,-28 1,-35 2,-16 11,-63 9,-75l-7 -3c-3,-12 -1,-25 3,-36l-8 0c-4,13 -7,37 -5,51 6,8 8,0 10,16 1,15 -5,60 -9,73z"/>
   <path class="fil8 str0" d="M107 2l3 23c5,-1 9,-11 13,-14 2,-1 22,-7 24,-6 1,7 -5,8 -8,10 -8,4 -2,8 -3,18l-1 19 2 13 7 -23c7,9 -4,31 3,42 1,-9 2,-37 14,-36 4,6 1,19 1,29 14,-28 -10,-55 -12,-76l-44 0 -1 2z"/>
   <path class="fil2 str0" d="M107 2c-6,29 2,50 7,78l5 12 9 -2c-2,-14 -1,-45 7,-56 1,-10 -5,-15 3,-18 3,-2 9,-3 8,-10 -2,-1 -21,5 -24,6 -5,3 -9,13 -13,14l-3 -23z"/>
   <path class="fil1 str0" d="M202 305c-2,15 -1,7 -8,17l7 10c8,-3 5,-7 10,-13 3,9 3,4 6,5 2,1 0,2 2,7 -8,-2 -8,1 -11,7l6 5 -1 6c9,13 0,37 10,43l11 3 3 1 -12 -92c-8,-2 -4,1 -11,4 0,0 -9,3 -10,3l-3 -4z"/>
   <path class="fil21 str0" d="M346 207c-9,10 -10,41 1,47 11,6 27,-12 25,-25l-5 3 -4 -2c-7,3 -5,3 -11,0 -1,-12 9,-19 20,-16 8,16 -1,23 -2,36 6,-2 4,-3 8,-2 5,8 -1,15 -5,23 22,-18 11,-88 -17,-72l0 2c-5,4 -6,7 -11,5z"/>
   <path class="fil10 str0" d="M478 124c12,-5 4,-3 10,-9l5 5 11 9 0 -9c-13,-6 -11,-24 -8,-36 3,-14 3,-31 8,-43l0 -17c-10,-8 -8,-11 -9,-24l-11 0c4,47 6,78 -7,124z"/>
   <path class="fil22 str0" d="M119 278l1 9c8,-5 0,-11 10,-15 5,12 -2,15 -5,22l9 5 -4 2c14,24 18,18 26,51 9,-9 9,-17 9,-30 0,-7 1,-30 0,-33 -6,5 0,25 -11,25l10 -33 -10 -3 -4 16 -1 -9c-11,11 3,7 -6,13 -9,-2 -13,-26 -11,-35 0,0 19,-7 1,-6 -12,1 -14,9 -15,20z"/>
   <path class="fil5 str0" d="M26 466l1 0c13,-33 27,-82 26,-117 -1,-19 -7,-39 -13,-58 -7,-21 -8,-34 -12,-54 -2,-7 1,32 3,42 18,81 20,97 -4,187z"/>
   <path class="fil23 str0" d="M165 281l-10 33c11,0 4,-20 11,-25 1,3 0,25 0,33 1,13 0,21 -9,30 8,44 -8,55 -20,92 16,-7 9,-20 18,-28 -2,17 -6,32 -3,50l3 0c3,-32 6,-64 10,-96 3,-23 12,-67 4,-87l-3 -1z"/>
   <path class="fil14 str1" d="M50 454c9,10 20,36 22,50l12 0c-3,-19 -1,-18 -15,-29 -26,-21 -9,-58 10,-32 5,7 9,25 13,27 7,-10 3,-40 1,-52 -3,4 -10,5 -15,6 -11,1 -6,3 -12,3 -12,-1 -10,21 -15,27z"/>
   <path class="fil13 str1" d="M384 471l-19 33 8 0c2,-7 15,-35 22,-37 17,-6 22,26 22,37l6 0c1,-47 -21,-32 -23,-56l-3 -25c-2,-15 3,-30 1,-39 -1,-5 -7,-26 -11,-28 -3,10 2,45 4,56 4,19 4,44 -8,60z"/>
   <path class="fil1 str0" d="M319 89c2,-3 4,-7 6,-9 4,-4 2,0 6,-4 -4,-30 1,-41 4,-68l-5 1 -1 -8 -18 0 8 89z"/>
   <path class="fil24 str0" d="M453 156l11 -10 7 -9 7 -13c13,-46 11,-77 7,-124l-3 0c2,34 -1,57 -7,89 -2,13 -6,24 -11,36 -3,7 -15,24 -12,30z"/>
   <path class="fil13 str1" d="M453 473l2 4c4,-21 10,-42 13,-63 3,-24 -11,-28 -22,-50 -7,-15 -16,-42 6,-50 18,-7 38,28 19,-7 -14,-11 -27,5 -34,17 -9,16 2,32 9,47 22,46 16,53 8,102z"/>
   <path class="fil25 str0" d="M245 91c-2,17 -16,-2 -14,24 1,8 0,6 2,12 1,4 0,12 0,17l1 30c5,-9 -2,-16 6,-27l2 -22 3 53c2,-10 2,-28 4,-40 2,-13 4,-24 9,-37l4 -8 -12 -7 -3 6z"/>
   <path class="fil0 str0" d="M373 504l33 0 0 -9 4 9 6 0c0,-11 -5,-43 -22,-37 -6,2 -20,29 -22,37z"/>
   <path class="fil14 str0" d="M115 282c-1,-9 -1,-14 3,-22 13,-39 12,-30 -4,-69 -19,-44 -12,-65 -13,-64 -15,19 -1,54 8,73 15,32 0,47 6,82z"/>
   <path class="fil16 str0" d="M401 203l3 12 4 -5c8,2 7,8 14,4 5,-3 8,-1 8,5 0,2 -20,3 -16,9 2,3 11,-1 8,4 -3,5 -7,11 0,15 8,6 -3,-17 22,-20l4 -12 -9 -6 4 -8c-7,-10 -4,3 -7,-12 -16,-4 -13,16 -34,13z"/>
   <path class="fil2 str0" d="M504 269l0 -20c-25,2 -12,-26 0,-34l0 -36c-9,10 -19,31 -21,45 -5,30 2,29 21,46z"/>
   <path class="fil13 str0" d="M206 365c0,19 -13,89 7,97 10,-1 6,-8 13,-7 4,8 2,19 0,28l-3 17 0 4 5 0c2,-12 11,-55 5,-64 -8,1 -27,32 -28,-21 0,-25 5,-47 7,-71l1 -6 -8 23z"/>
   <path class="fil21 str0" d="M115 282c0,8 2,8 -4,11 -5,-7 1,-17 -3,-25 -6,7 0,4 -10,12 2,17 1,4 -5,17l8 7 5 1 -1 24c10,-17 1,-29 27,-29l4 -2 -9 -5c3,-6 10,-10 5,-22 -10,4 -3,10 -10,15l-1 -9 -1 -17c-4,8 -4,13 -3,22z"/>
   <path class="fil19 str0" d="M180 20c1,-2 3,-27 10,-12 3,7 -9,17 -1,26 6,-6 3,-19 19,-18 17,1 3,-5 11,-3l5 17 1 -31 -62 0c2,13 8,4 18,19z"/>
   <path class="fil26 str0" d="M186 211c3,4 2,2 6,2 13,-19 18,-34 19,-58 -6,-2 -8,-18 -15,-10 -2,14 4,24 -3,45 0,-7 3,-21 -1,-26 -1,1 -4,41 -6,47z"/>
   <path class="fil4 str0" d="M123 164l4 -2 6 5 0 -5c12,-3 26,-7 18,-24 -7,2 -8,4 -16,1 -5,-2 -9,-4 -12,-8 6,-7 2,1 6,-3 3,-3 0,1 1,-6 5,2 4,2 7,6 5,-6 1,-4 2,-14 -23,8 -22,31 -15,51z"/>
   <path class="fil27 str0" d="M338 418l-5 9c-1,17 8,19 9,36l4 3 2 -7c-3,-14 -3,-12 -9,-24l1 -8c10,-7 16,1 20,-18 -11,-13 -27,-27 -32,-43 -6,-18 -5,-43 -10,-57 -1,16 3,52 10,66 8,16 37,31 10,43z"/>
   <path class="fil9 str0" d="M397 423l3 25c6,10 8,7 17,12 9,5 7,8 11,11 -3,-32 -21,-18 -19,-41 2,-25 13,-22 6,-52l-9 -7c-2,11 7,15 4,30 -1,6 -7,23 -9,28l-4 -7z"/>
   <path class="fil13 str1" d="M410 274c-3,11 -13,26 -11,38 14,-30 21,-30 50,-43l-3 -7c7,-3 19,6 17,-8 -11,3 -20,1 -31,6 -13,5 -12,10 -22,14z"/>
   <path class="fil13 str1" d="M50 454c5,-7 4,-28 15,-27 7,0 1,-2 12,-3 5,0 12,-1 15,-6 1,-9 -2,-38 -9,-44 -8,10 1,36 -14,43 -18,9 -25,12 -20,36z"/>
   <path class="fil28 str0" d="M81 88c-2,2 -8,20 -11,24 -10,-7 -2,-9 -3,-14l-4 6 -6 -1 1 20 3 6c7,-9 -4,-8 5,-12 5,11 -6,13 5,23 4,-66 24,-44 32,-59 3,-5 -2,-12 -7,-12 -1,3 2,5 -3,8l-8 -6c-5,9 7,8 -5,18z"/>
   <path class="fil1 str0" d="M221 261l9 -37c0,-8 1,-20 -8,-21 -4,5 -3,8 -5,14 -2,6 -6,6 -6,11 0,6 7,5 4,10 -4,5 -4,0 -10,0 -2,8 2,6 5,8 3,2 -1,1 0,7l11 7z"/>
   <path class="fil13 str0" d="M223 31l6 51 5 12 11 -3 3 -6c3,-6 8,-14 8,-20 -8,1 -21,25 -27,-8 -3,-17 -4,-39 -1,-57l-4 0 -1 31z"/>
   <path class="fil9 str0" d="M22 483l21 0 1 4c7,7 6,7 6,17l6 0c9,-12 -4,-42 -13,-46 -5,5 -4,8 -9,14 -4,4 -8,7 -13,11z"/>
   <path class="fil20 str0" d="M194 322c-5,5 -5,9 -6,16 -1,14 1,18 -8,29l7 3c8,-11 6,-27 16,-33 6,4 5,22 4,29l8 -23 -6 -5c3,-6 3,-9 11,-7 -2,-4 -1,-6 -2,-7 -3,-1 -2,4 -6,-5 -4,6 -2,10 -10,13l-7 -10z"/>
   <path class="fil8 str0" d="M402 24c8,-8 6,-13 6,-24l-30 0c-3,11 -5,10 -1,21l6 -10c4,2 6,3 8,8l12 5z"/>
   <path class="fil22 str0" d="M355 504l10 0 19 -33c-21,4 -15,15 -24,14 -7,-11 8,-21 -1,-32 -5,2 -5,21 -5,26 0,12 8,8 0,24z"/>
   <path class="fil9 str0" d="M389 71l10 -6c6,-9 11,-15 22,-9 5,10 1,12 3,22 6,-3 9,-40 -7,-43 -2,1 -26,33 -28,37z"/>
   <path class="fil12 str0" d="M289 0l-2 0 -1 37c-2,6 -2,12 -6,15 -12,-8 -10,-39 -9,-53l-5 0c0,13 4,66 15,72 8,-11 9,-58 8,-72z"/>
   <path class="fil29 str0" d="M504 121l0 -80c-5,12 -5,30 -8,43 -3,12 -5,30 8,36z"/>
   <path class="fil0 str0" d="M102 12l2 -12 -17 0c3,15 -1,40 3,51 3,-1 7,-9 7,-14 1,-15 -6,-16 5,-25z"/>
   <path class="fil13 str0" d="M234 394l-11 -3c-6,3 -12,10 -11,17 6,-3 3,-6 11,-5 8,11 0,21 -1,31 13,-6 14,-29 12,-40z"/>
   <path class="fil17 str0" d="M79 68c1,-11 4,-21 5,-32 1,-12 0,-24 1,-36l-12 0c3,10 4,21 5,31 1,11 -2,28 1,36z"/>
   <path class="fil30 str1" d="M457 240c15,-15 8,-4 19,0 10,-7 -10,-1 -5,-17 -1,5 -4,5 -8,4 -2,-10 17,-23 20,-38 -12,5 -33,35 -26,50z"/>
   <path class="fil31 str0" d="M87 504l15 0c-8,-3 -6,-2 -10,-9l16 -29 7 -16c-15,-5 -12,26 -28,35 3,9 5,9 0,18z"/>
   <path class="fil2 str0" d="M0 133c8,10 6,28 0,39l0 17c12,-27 19,-40 0,-67l0 11z"/>
   <path class="fil32 str0" d="M504 248l0 -34c-12,9 -25,37 0,34z"/>
   <path class="fil33 str0" d="M287 38l-3 0c-7,-4 -7,-8 -9,-16 -3,-9 0,-11 1,-22l-5 0c-1,13 -3,44 9,53 4,-3 5,-9 6,-15z"/>
   <path class="fil9 str0" d="M151 137c8,17 -5,21 -18,24l0 5c9,3 9,4 19,2 9,-11 9,-25 -3,-34l1 4z"/>
   <path class="fil28 str0" d="M453 44l3 2c-5,9 -9,24 -8,33 8,-4 8,-26 13,-34l3 5c4,-6 4,-9 1,-15 -8,-3 -11,0 -12,8z"/>
   <path class="fil34 str0" d="M431 84l1 1 7 -48c-2,-10 1,-26 2,-36l-5 0 -5 84z"/>
   <path class="fil19 str0" d="M476 279l29 16 0 -20 -14 -6 -4 5c0,5 4,-6 3,5 -8,2 -6,0 -14,0z"/>
   <path class="fil13 str0" d="M475 381c9,0 36,-29 13,-60 2,11 10,20 1,33 -3,4 -13,24 -14,27z"/>
   <path class="fil35 str0" d="M479 446c1,-5 4,-7 3,-9 -3,-5 -4,-6 0,-12l2 6 3 -4c5,5 1,6 6,7 4,-9 -5,-7 -5,-13 -1,-8 2,-7 -7,-15 -3,12 -10,29 -3,40z"/>
   <path class="fil36 str0" d="M275 22l1 -10c6,4 7,20 8,26l3 0 1 -37 -12 0c0,10 -3,13 -1,22z"/>
   <path class="fil37 str0" d="M445 476l-3 28 16 0 2 -12c-2,5 -2,5 -8,7 -5,-9 3,-9 3,-22l-2 -4 -7 11 -1 -8z"/>
   <path class="fil38 str0" d="M287 504l3 0c-3,-16 -5,-37 -5,-54 0,-15 5,-35 5,-45 -13,12 -6,81 -3,99z"/>
   <path class="fil6 str0" d="M27 504l1 0 6 -6c-2,-12 -2,-1 -1,-11l-16 -2 -5 10c6,6 4,4 12,5l2 4z"/>
   <path class="fil13 str0" d="M462 326c9,3 14,9 11,19 -4,13 -11,10 -19,13 25,18 39,-36 8,-32z"/>
   <path class="fil39 str0" d="M370 251l-5 7c-4,6 -10,10 -11,18 5,-5 5,-15 13,-14 8,18 -32,26 -20,48 2,-10 7,-23 14,-30 12,-12 6,-21 17,-30 -5,-2 -2,-1 -8,2z"/>
   <path class="fil40 str0" d="M426 252c8,-2 19,0 25,-4l-9 -13 -8 3 -6 -3c2,10 -2,5 5,12l-7 6z"/>
   <path class="fil41 str0" d="M102 12c-2,30 4,43 11,70l1 -2c-5,-28 -13,-49 -7,-78l1 -2 -3 0 -2 12z"/>
   <path class="fil8 str0" d="M34 498l-6 6 12 0 2 -3 1 3 8 0c0,-10 1,-10 -6,-17 -6,2 -6,6 -10,11z"/>
   <path class="fil13 str0" d="M402 24c-8,5 -8,1 -16,0l5 8c23,3 22,-13 18,-31l-2 0c1,11 3,16 -6,24z"/>
   <path class="fil42 str0" d="M134 499c4,-5 14,-43 10,-47 -6,3 -5,15 -6,22 -2,8 -6,17 -4,25z"/>
   <path class="fil39 str0" d="M329 422c-7,10 -12,19 -9,32 4,-2 4,-7 5,-12 2,-8 5,-7 7,-14l5 -9 -9 4z"/>
   <path class="fil43 str0" d="M342 463l5 32 4 -1c-1,-8 -1,-9 0,-17 0,-8 -2,-10 -3,-18l-2 7 -4 -3z"/>
   <path class="fil32 str0" d="M504 24l0 -24 -9 0c1,13 -1,15 9,24z"/>
   <path class="fil17 str0" d="M75 460c-7,4 -4,2 -11,2 2,8 8,10 15,7 3,-7 1,-16 -6,-21l1 11z"/>
   <path class="fil20 str0" d="M345 170c2,8 2,3 -2,11l3 1c7,-10 13,-8 16,-15 -5,-3 -3,-2 -9,-3 -2,4 0,5 -5,2l-3 4z"/>
   <path class="fil44 str0" d="M205 487l-10 7c21,-2 19,-9 29,-21l0 -1 -2 -4c-10,7 -2,14 -16,19z"/>
   <path class="fil45 str0" d="M108 466l-16 29c12,-4 9,-6 14,-17 2,-5 6,-13 6,-18l-4 6z"/>
   <path class="fil46 str0" d="M0 171c6,-11 8,-29 0,-39l0 39z"/>
   <polygon class="fil42 str0" points="223,472 224,473 218,501 223,500 226,483 226,471 "/>
   <path class="fil47 str0" d="M339 435l8 -9 6 6c3,-11 11,-9 7,-23 -3,19 -10,11 -20,18l-1 8z"/>
   <path class="fil48 str0" d="M111 443l3 2c13,-11 14,-17 21,-31l-2 -3c-7,14 -10,22 -22,32z"/>
   <path class="fil19 str0" d="M343 146c4,6 4,5 11,4l6 -11 -4 3 -2 -6c-9,3 -4,4 -12,9z"/>
   <path class="fil49 str0" d="M275 22c2,8 2,12 9,16 -1,-7 -2,-22 -8,-26l-1 10z"/>
   <path class="fil25 str0" d="M196 480c4,3 1,3 6,0l4 -2 -2 -12c-5,2 -7,8 -8,14z"/>
   <polygon class="fil14 str0" points="0,319 8,310 0,297 "/>
   <path class="fil49 str0" d="M267 504l4 0 2 -14c4,-1 0,1 3,-3l-5 -1c-5,7 -4,10 -5,18z"/>
   <polygon class="fil50 str0" points="271,504 280,504 278,491 273,490 "/>
   <polygon class="fil41 str0" points="481,504 485,504 477,456 "/>
   <path class="fil51 str0" d="M181 107l6 -4c1,-15 0,-6 4,-15l-4 -1 -6 19z"/>
   <polygon class="fil52 str0" points="234,94 229,82 220,83 "/>
   <polygon class="fil13 str0" points="422,0 417,0 416,22 "/>
   <path class="fil53 str0" d="M197 75l-2 8c6,-1 11,-6 7,-11l-5 3z"/>
   <polygon class="fil54 str0" points="347,363 354,352 351,350 343,360 "/>
   <path class="fil55 str0" d="M378 276c6,-2 11,-8 15,-14l-3 -1 -12 15z"/>
   <polygon class="fil56 str0" points="376,419 379,421 375,405 373,405 "/>
   <path class="fil55 str0" d="M346 207c5,1 6,-2 11,-5l0 -2 -10 7z"/>
   <path class="fil48 str0" d="M453 156c7,-2 9,-2 11,-10l-11 10z"/>
   <path class="fil57 str0" d="M128 461c6,-5 6,-5 6,-13l-6 13z"/>
   <polygon class="fil57 str0" points="363,230 367,232 372,229 369,227 "/>
   <path class="fil58 str0" d="M245 61c6,-3 8,-11 6,-17 -1,12 0,7 -6,17z"/>
   <polygon class="fil48 str0" points="315,422 324,417 321,415 317,417 "/>
   <polygon class="fil59 str0" points="407,504 411,504 407,495 "/>
   <polygon class="fil57 str0" points="310,147 318,144 317,139 "/>
   <polygon class="fil60 str0" points="280,504 282,504 278,491 "/>
   <path class="fil55 str0" d="M464 146c6,-3 5,-3 7,-9l-7 9z"/>
   <polygon class="fil61 str0" points="0,277 5,279 0,270 "/>
   <polygon class="fil62 str0" points="73,355 77,361 75,351 "/>
   <polygon class="fil57 str0" points="364,254 365,258 370,251 "/>
   <path class="fil31 str0" d="M343 376c-4,3 -4,0 -1,6l1 -6z"/>
   <path class="fil63 str0" d="M273 490l4 1 -2 -5c-2,4 2,2 -3,3z"/>
   <path class="fil64 str0" d="M246 36c0,1 4,2 3,0 -1,-2 -3,0 -3,0z"/>
   <polygon class="fil65 str0" points="40,504 43,504 42,501 "/>
   <polygon class="fil64 str0" points="433,85 431,84 431,88 "/>
   <polygon class="fil61 str0" points="27,466 26,466 24,469 "/>
  </g>
 </g>
</svg>
