<?xml version="1.0" encoding="UTF-8"?>
<!DOCTYPE svg PUBLIC "-//W3C//DTD SVG 1.1//EN" "http://www.w3.org/Graphics/SVG/1.1/DTD/svg11.dtd">
<!-- Creator: CorelDRAW X6 -->
<svg xmlns="http://www.w3.org/2000/svg" xml:space="preserve" width="450px" height="431px" version="1.1" style="shape-rendering:geometricPrecision; text-rendering:geometricPrecision; image-rendering:optimizeQuality; fill-rule:evenodd; clip-rule:evenodd"
viewBox="0 0 416 398"
 xmlns:xlink="http://www.w3.org/1999/xlink">
 <defs>
  <style type="text/css">
   <![CDATA[
    .str2 {stroke:black;stroke-width:0.524306}
    .str1 {stroke:white;stroke-width:0.524306}
    .str0 {stroke:black;stroke-width:4.62412}
    .fil7 {fill:black}
    .fil0 {fill:#050505}
    .fil4 {fill:#AA6D1E}
    .fil5 {fill:#C18B4A}
    .fil3 {fill:#C4A97B}
    .fil1 {fill:#CBB152}
    .fil2 {fill:#D5756D}
    .fil6 {fill:white}
   ]]>
  </style>
 </defs>
 <g id="Layer_x00">
 <animateTransform attributeName="transform" begin = "0" type="translate-x" values = "510" dur="1s"/>
 <g id="Layer_x002">
 <!--animateTransform attributeName="transform" begin = "0;" type="scale-x" values = "1;1.01;1;1.01;1;1.01;1" dur="3s"  repeatCount="2"/-->
 <g id="Layer_x0020">
 <animateTransform attributeName="transform" begin = "1;" type="skewX" values = "-10;10;0" dur="1s"/>
 <g id="Layer_x0020_1" transform="translate(0)">
   <animateTransform attributeName="transform" begin = "1;" type="translate-x" values = "510;90;0" dur="1s"/>
   
  <path class="fil0" d="M0 243l0 10c6,12 5,17 27,26 17,7 28,6 46,9 4,7 1,7 10,19 3,4 11,12 16,14 -3,29 3,27 -5,37 -1,2 -5,7 -6,8 -2,7 9,10 17,10 9,1 17,-1 24,-3l-4 -10c-5,-10 -6,-18 -4,-31 7,1 11,2 19,1 1,10 0,18 2,28 5,11 2,4 -6,24 4,5 13,7 22,7 11,0 15,-4 21,-8 -1,-8 -9,-13 -14,-25 -3,-10 -4,-14 -4,-26 9,1 18,3 28,4 19,2 43,2 62,2 9,0 24,-2 32,-1 -2,7 -3,13 -3,21 0,11 -5,8 -8,19 7,6 23,6 32,3 0,-9 -2,-12 -2,-22 2,-24 2,-22 14,-20 -2,10 -5,17 -5,29 -1,15 -7,9 -11,24 10,5 31,9 40,1 0,-6 -5,-11 -6,-16 -1,-3 1,-4 2,-14l1 -5c0,0 0,0 0,-1 -6,-26 35,-17 44,-39 6,2 11,9 12,17 0,5 -10,6 -8,20 2,15 16,27 33,25l0 -1c-6,-10 7,-43 -18,-46 0,-14 -1,-25 -14,-31 -2,-59 -67,-166 -92,-204 1,-2 -1,0 2,-2 -5,0 -6,-2 -4,-6 -4,1 -3,0 -6,-4 -3,-5 -3,-3 0,-5 -8,-1 -2,-1 -7,-5 -4,-3 -6,-7 -9,-10l-11 -12 3 0c-5,-3 -3,0 -8,-4 -3,-3 -4,-2 -2,-6 -1,1 -2,1 -4,1l-2 -2c-4,-3 -7,-5 -4,-8l-4 -1c1,-2 0,1 0,-1 -3,1 -5,-1 -7,-3 -2,-2 -3,-3 -1,-6 -2,0 -1,0 -2,2l-3 -2c-3,-1 -7,-5 -7,-5l-2 -1c0,0 0,0 0,0 0,0 0,0 0,0l-2 -1c-3,-1 -5,-3 -8,-5 -7,-2 -8,-2 -5,-7 -4,1 -3,2 -6,1 0,0 0,0 -1,0 -5,-1 -10,-5 -15,-4l2 -4c-3,1 -2,1 -3,4 -12,-1 -16,1 -18,-4 0,4 2,2 -2,3l-2 -3c-1,3 1,-3 0,1 0,0 0,2 0,2 -13,3 -14,6 -18,3 1,5 1,3 -3,5l-10 5c-2,1 -1,0 -5,0 4,1 1,0 2,2 -5,4 -2,5 -9,4 1,1 1,-1 1,2 0,2 -1,2 -2,3l-15 17c0,0 0,1 -4,2l3 2c-3,2 -8,11 -9,15 -3,-2 -1,-1 -3,-3 2,5 0,14 -6,12l3 2 -3 3c-2,4 -2,9 -8,10l3 2c-3,4 -7,15 -8,20 -3,8 -4,16 -4,25 -41,1 -25,-12 -26,-27 -4,0 -6,3 -9,6 -8,7 -16,16 -15,29 2,16 21,20 37,22 -8,2 -30,8 -35,12 2,5 5,8 9,10 6,4 7,4 15,4l-3 4c-6,7 -12,12 -18,19 -3,4 -6,8 -9,13 -3,5 -4,10 -6,15z"/>
  <path class="fil1" d="M76 147l-1 -2c0,-6 -4,-4 -10,-3 -10,1 -19,2 -28,0 -3,-1 -3,-1 -6,0l-5 4c1,-4 2,-4 4,-6 -3,1 -2,0 -5,2l3 -4c0,0 0,0 1,-1 -4,1 -4,1 -6,3 2,-3 4,-4 5,-6 2,-4 -2,-3 -5,-2l3 -2c2,-1 1,-4 1,-8 -11,6 -14,31 4,32 1,-2 2,-3 3,-5l-2 6 4 2c2,-3 2,-2 3,-6 0,1 0,2 1,2l1 1c0,0 0,0 0,1l1 2 7 0 3 -6 -1 7c3,-2 4,-4 4,-10 1,5 1,5 0,10 13,1 14,-9 15,-12 0,7 -1,7 -4,12 7,-2 7,-6 8,-14 2,6 1,9 -2,13 3,-3 5,-4 5,-11zm77 -11c0,0 0,0 0,1 0,1 1,2 1,5 -2,-4 -1,-3 -4,-4 0,3 0,1 2,4 -1,1 -2,0 -2,2 -1,-3 -1,-2 -3,-4 -5,1 -8,3 -14,4l0 6c0,-1 0,-3 -1,-4l-1 -1c-2,-1 -7,0 -10,0 -2,5 -4,6 -3,14l2 -5 1 6c2,-2 1,-3 2,-6 2,5 -3,8 14,9 0,-1 1,-2 1,-4l1 -4c0,0 0,-1 0,-1l0 8c1,-2 1,-4 1,-6 2,3 1,3 1,6 7,-1 3,-4 7,-9l0 8c9,-3 18,-9 14,-21 1,2 2,4 3,7 1,-5 0,-6 -2,-10 2,2 2,2 4,4 1,-8 0,-14 -4,-18 -2,2 0,0 -2,4 -2,6 -3,6 -8,10z"/>
  <path class="fil2" d="M88 281l4 0c-3,-4 -7,-8 -4,-16 1,-6 6,-9 11,-11 14,-4 26,6 23,20 5,-2 6,-3 5,-9 0,-3 -2,-8 -4,-10 -3,-4 -13,-8 -21,-7 -14,2 -25,16 -15,33zm-78 -41c0,0 -6,7 -2,10l1 0c-1,2 -2,3 0,5 3,-4 4,-7 10,-9 21,-6 27,23 17,28l6 2c7,-9 5,-19 -2,-27 -9,-10 -17,-7 -28,-2 0,-1 0,-3 7,-5 16,-5 38,9 28,35l11 3c0,0 0,-1 0,-1 0,0 0,0 0,-1l0 -1c0,-1 0,0 1,-3 1,4 1,4 3,6 -2,-9 -1,-19 2,-26 -1,11 -3,16 2,27l19 0c-7,-11 -2,-32 16,-35 15,-3 28,3 30,17l1 6c8,-9 -2,-26 -7,-31 -8,-8 -21,-10 -36,-9 -19,1 -56,0 -71,7 -4,2 -5,3 -8,4z"/>
  <path class="fil3" d="M141 384l7 2c2,-5 1,-5 5,-9l-1 10c8,2 13,-2 19,-4 -1,-7 -4,-8 -6,-13 -8,2 -9,3 -18,0 -1,5 -5,10 -6,15z"/>
  <path class="fil3" d="M91 368l8 3c1,-5 2,-6 4,-9l-2 10c8,0 12,0 19,-2l-5 -12c-8,0 -10,0 -16,-3 -2,4 -7,9 -8,14z"/>
  <path class="fil3" d="M304 389c2,2 2,1 5,2 1,-4 2,-5 4,-8l0 8c7,2 14,0 20,-2 0,-5 -2,-9 -5,-12 -8,0 -9,0 -17,-1 -2,4 -6,6 -7,12z"/>
  <path class="fil4" d="M17 178c1,4 5,8 10,9 5,1 11,-2 15,-4 9,-5 16,-10 22,-16 -10,-1 -40,6 -47,11z"/>
  <path class="fil4" d="M75 145l1 2c2,-6 1,4 0,7 -2,4 -2,1 -1,4 1,12 4,1 -8,15l-18 17c-12,11 -25,23 -34,37 -2,4 -4,9 -6,12 1,2 -1,0 2,1 0,0 0,-1 0,-1 0,0 0,-1 5,-4 15,-8 50,-7 69,-8 14,-1 29,-1 38,6 8,6 14,16 14,30 8,-7 32,-8 -28,-91 12,4 20,12 28,19 11,9 16,13 24,5 2,-2 4,-4 5,-8 0,0 0,-1 -1,0l-44 -18c-19,-8 6,-28 -20,-41 -12,-6 -25,1 -24,15l-2 1c0,0 0,0 -2,1z"/>
  <path class="fil4" d="M155 162c-11,8 -21,3 -31,3 2,2 48,20 51,22 -1,2 -1,4 -3,6 -3,4 -3,1 -4,6 -1,1 -2,1 -3,2l-3 3 -1 1c-5,2 -7,2 -13,-1 -7,-4 -22,-18 -25,-20l15 22 8 11c17,24 19,51 -24,63 -20,6 -40,8 -43,7 -2,-1 7,19 20,29 11,8 27,9 39,9 2,-3 1,-10 8,-18 2,6 -10,69 13,56 1,-2 -2,-9 -3,-12 -1,-5 -1,-10 -2,-15 0,-6 0,-21 3,-27l2 -3c0,0 0,0 1,-1l2 20c28,4 54,6 83,6 14,0 79,-2 86,4 -9,8 -8,-1 -12,14 -2,6 -4,17 -2,23 1,1 7,2 9,1 13,-3 -4,-27 17,-38 11,-6 29,-9 32,-20l-6 -3c14,-3 23,6 26,18 1,9 1,5 -2,10 -11,15 6,34 19,35 -6,-5 -17,-10 -16,-25 1,12 8,19 16,22 -2,-4 -5,-7 -7,-12l4 6 0 -3c1,2 3,5 5,7 1,-8 0,-16 -2,-23 -2,-7 -6,-11 -15,-12 3,-9 0,-17 -4,-24 -5,-8 -13,-7 -18,-8 0,0 -1,0 -1,0 0,0 -1,0 -1,0l-1 -1c3,-3 4,-2 6,-4 -1,-35 -27,-92 -45,-124 -2,-4 -7,-12 -9,-16l-31 -50c-2,-3 -3,-5 -5,-8l-5 -7c-1,-2 -6,-9 -8,-11 -3,-4 -4,-7 -10,-8 6,-1 2,1 2,-2 -2,-1 -3,-3 -5,-5 -3,0 -3,1 -5,2 1,-2 1,-2 2,-4 -2,1 -3,1 -4,2 1,-4 1,-1 2,-5 -1,0 -2,-1 -3,-1 -2,-2 -2,-6 -8,-6 2,-2 1,-2 -1,-4 -3,-3 -3,-3 -6,-1 2,-5 3,-3 -2,-7 -4,-3 -3,-4 -9,-4 3,-2 3,-2 -2,-4l-2 -2c0,0 -1,-1 -1,-1 -1,-1 -2,-1 -3,-2 -4,-3 -3,-3 -9,-2 0,0 1,-1 2,-1l2 -2c-8,-2 -5,-6 -14,-6 0,-1 3,-1 -2,-3 -4,-2 -3,0 -6,1 2,-3 2,-3 -2,-5 -3,-1 -5,-2 -8,-2 -2,2 -1,2 -4,4l2 -5c-8,-2 -11,-4 -14,0 1,-3 0,-2 0,-3 -2,0 -1,0 -3,0l-3 1c-9,-1 -18,3 -26,8 -5,3 -6,2 -7,9 -2,-4 0,-2 -2,-3 -1,1 -4,3 -5,5 4,1 3,-1 4,2 -7,-1 -9,1 -17,12 -4,6 -11,12 -12,20 -3,1 2,-4 -2,0 -2,2 -2,4 -2,6 -2,1 2,-1 -1,0 -4,2 -15,25 -17,29 -4,10 -12,27 -11,38l11 -1c3,-6 5,-7 10,-10 4,-3 2,1 3,-5 1,1 0,2 4,2 1,0 1,0 3,0l1 -8 3 5c0,0 0,-1 0,-1 1,-5 -1,-5 4,-9 -2,2 -2,3 -2,7 1,-1 2,-2 4,-3 -1,3 -2,5 -2,9l4 1c3,-2 1,-2 4,-4 0,0 0,-1 3,1 -2,2 -2,2 -2,5 2,3 3,2 6,6 3,4 2,4 7,5 14,2 40,-8 30,-25 -3,-4 -5,-3 -5,-7 13,-11 42,35 8,58z"/>
  <path class="fil4" d="M295 366l4 -27 -11 0c-3,5 -4,10 -5,17 -1,10 0,13 12,10z"/>
  <path class="fil4" d="M113 351l0 -21 -9 -4c-1,6 -2,10 -2,17 0,9 2,9 11,8z"/>
  <path class="fil3" d="M276 376l3 2c2,-3 1,-3 5,-6l-1 7c7,1 10,1 16,0l-1 -9c-6,2 -11,1 -16,0 -2,2 -5,4 -6,7z"/>
  <path class="fil5" d="M308 267l-9 -13c-3,-2 1,4 -8,-4 -23,-20 -67,-1 -80,14 -17,20 20,19 34,21 10,1 19,2 29,3 5,0 10,1 15,1 7,0 11,3 14,-3l1 3c9,0 8,-4 6,-18l1 1c0,1 1,2 1,2 0,1 1,3 1,4 0,4 -1,7 -1,10 18,-2 8,-23 1,-30 -6,-7 -16,-16 -31,-18 3,2 23,11 28,26z"/>
  <path class="fil5" d="M123 76l9 1 -3 4c0,0 0,0 0,0l-3 1c0,0 1,0 1,0 1,3 -1,0 3,2 5,3 2,0 9,1 0,0 4,1 5,1 2,0 16,-6 16,-7 9,-5 15,-12 20,-19 3,-4 0,-2 4,-4 0,1 2,3 -2,-1 0,0 -1,-1 -1,-1 3,0 1,0 3,-1l2 -5c0,-5 0,-2 -1,-4 0,1 -1,2 -1,4l-2 3c5,-13 3,-14 -2,-20 -1,-2 -2,-3 -7,-4 -6,-2 -4,-1 -6,0 -1,1 2,3 -5,0 -8,-3 -13,5 -13,6 0,0 0,0 -1,0 0,0 0,0 -1,0 -6,0 3,-5 -6,0 -9,6 -6,6 -9,9 -7,6 -10,11 -12,19 -1,5 -1,12 3,15z"/>
  <path class="fil4 str0" d="M147 264l2 1c2,0 3,1 6,-1 16,-7 10,-22 1,-32 -3,-3 -8,-9 -12,-10 2,5 3,8 5,12 2,4 4,6 6,10 8,16 -6,20 -8,21z">
  <animateTransform attributeName="transform" begin = "1;" type="translate" values = "3,-1;0,0;0,-3;3,0;0,-3;0,0;3,-1;" dur="2s"  repeatCount="indefinite"/>
  </path>
  <ellipse class="fil6 str1" transform="matrix(0.999999 0.00168407 -0.00168407 0.999999 78.1124 158.833)" rx="15" ry="14"/>
  <ellipse class="fil6 str1" transform="matrix(0.999999 0.00168407 -0.00168407 0.999999 108.467 159.852)" rx="15" ry="14"/>
  <circle class="fil7 str2" transform="matrix(0.999999 0.00168407 -0.00168407 0.999999 78.1124 158.833)" r="3">
  <animateTransform attributeName="transform" begin = "1;" type="translate" values = "70,160;85,160;70,160;" dur="4s"  repeatCount="indefinite"/>
  </circle>
  <circle class="fil7 str2" transform="matrix(0.999999 0.00168407 -0.00168407 0.999999 108.467 159.852)" r="3">
	<animateTransform attributeName="transform" begin = "1;" type="translate" values = "100,160;115,160;100,160;" dur="4s"  repeatCount="indefinite"/>
   </circle>
  <path class="fil7 str0" d="M97 150c-1,-2 3,-4 5,-5 2,-2 4,-3 7,-4 2,-1 4,-1 6,-1 2,0 7,-1 8,2l1 2c1,2 -4,-1 -5,-1 -1,0 -3,0 -4,0 -2,0 -2,0 -5,1 -3,1 -10,14 -12,8l-1 -2z">
  <animateTransform attributeName="transform" begin = "1;" type="translate" values = "0,-5;0,0;0,-1;0,0;0,-2;0,0;0,-5;" dur="3s"  repeatCount="indefinite"/>
  </path>
  <path class="fil7 str0" d="M92 149c0,-3 -4,-4 -7,-6 -3,-2 -6,-3 -9,-3 -3,0 -5,0 -8,1 -3,1 -8,1 -9,5l0 3c0,3 4,-2 5,-3 1,-1 3,-1 5,-1 2,0 3,-1 6,0 4,0 15,15 16,8l0 -3z">
  <animateTransform attributeName="transform" begin = "1;" type="translate" values = "0,-1;0,0;0,-5;0,0;0,-2;0,0;0,-1;" dur="3s"  repeatCount="indefinite"/>
  </path>
 </g></g></g></g>
</svg>
